<?xml version="1.0" encoding="UTF-8" standalone="no"?><!DOCTYPE svg PUBLIC "-//W3C//DTD SVG 1.1//EN" "http://www.w3.org/Graphics/SVG/1.1/DTD/svg11.dtd"><svg width="100%" height="100%" viewBox="0 0 100 100" version="1.1" xmlns="http://www.w3.org/2000/svg" xmlns:xlink="http://www.w3.org/1999/xlink" xml:space="preserve" style="fill-rule:evenodd;clip-rule:evenodd;stroke-linecap:round;stroke-linejoin:round;stroke-miterlimit:1.5;"><g id="biblia"><g id="biblio"><path d="M13.496,65.397l75.156,0l0.362,0.125l0,0.251l-0.362,0.125l-75.156,0l-0.084,-0.122c0.07,-0.012 0.127,-0.065 0.127,-0.129c0,-0.063 -0.057,-0.116 -0.127,-0.128l0.084,-0.122l0,0Z" style="fill:#4c4343;"/><path d="M13.825,68.004l74.317,0l0.358,0.125l0,0.251l-0.358,0.125l-74.317,0l-0.084,-0.123c0.07,-0.011 0.126,-0.065 0.126,-0.128c0,-0.063 -0.056,-0.116 -0.126,-0.128l0.084,-0.122l0,0Z" style="fill:#4c4343;"/><path d="M13.824,70.61l74.044,0l0.356,0.126l0,0.25l-0.356,0.126l-74.044,0l-0.083,-0.123c0.07,-0.011 0.125,-0.065 0.125,-0.128c0,-0.063 -0.055,-0.117 -0.125,-0.128l0.083,-0.123l0,0Z" style="fill:#4c4343;"/><path d="M13.825,73.133l74.317,0l0.358,0.126l0,0.25l-0.358,0.126l-74.317,0l-0.084,-0.123c0.07,-0.011 0.126,-0.065 0.126,-0.128c0,-0.063 -0.056,-0.117 -0.126,-0.128l0.084,-0.123l0,0Z" style="fill:#4c4343;"/><path d="M13.496,75.824l75.156,0l0.362,0.126l0,0.25l-0.362,0.125l-75.156,0l-0.084,-0.122c0.07,-0.011 0.127,-0.065 0.127,-0.128c0,-0.063 -0.057,-0.117 -0.127,-0.128l0.084,-0.123l0,0Z" style="fill:#4c4343;"/><path d="M88.847,61.888l-75.602,0c-1.247,0 -2.259,2.037 -2.259,4.547l0,9.096c0,2.51 1.012,4.547 2.259,4.547l75.602,0" style="fill:none;stroke:#50534f;stroke-width:2.35px;"/></g><g id="biblio1"><path d="M85.78,43.616l-69.721,0l-0.336,0.131l0,0.263l0.336,0.131l69.721,0l0.078,-0.128c-0.065,-0.012 -0.118,-0.068 -0.118,-0.134c0,-0.067 0.053,-0.123 0.118,-0.135l-0.078,-0.128Z" style="fill:#756b6b;"/><path d="M85.476,46.333l-68.944,0l-0.332,0.131l0,0.263l0.332,0.131l68.944,0l0.077,-0.129c-0.065,-0.011 -0.117,-0.067 -0.117,-0.134c0,-0.066 0.052,-0.122 0.117,-0.134l-0.077,-0.128Z" style="fill:#756b6b;"/><path d="M85.476,49.049l-68.69,0l-0.331,0.132l0,0.262l0.331,0.132l68.69,0l0.077,-0.129c-0.064,-0.011 -0.116,-0.068 -0.116,-0.134c0,-0.066 0.052,-0.123 0.116,-0.134l-0.077,-0.129Z" style="fill:#756b6b;"/><path d="M85.476,51.679l-68.944,0l-0.332,0.131l0,0.263l0.332,0.131l68.944,0l0.077,-0.129c-0.065,-0.011 -0.117,-0.068 -0.117,-0.134c0,-0.066 0.052,-0.122 0.117,-0.134l-0.077,-0.128Z" style="fill:#756b6b;"/><path d="M85.78,54.483l-69.721,0l-0.336,0.131l0,0.263l0.336,0.131l69.721,0l0.078,-0.128c-0.065,-0.012 -0.118,-0.068 -0.118,-0.134c0,-0.067 0.053,-0.123 0.118,-0.135l-0.078,-0.128Z" style="fill:#756b6b;"/><path d="M15.284,39.959l70.712,0c1.166,0 2.113,2.123 2.113,4.739l0,9.478c0,2.617 -0.947,4.74 -2.113,4.74l-70.712,0" style="fill:none;stroke:#4c4343;stroke-width:2.71px;"/></g><g id="biblio2"><path d="M34.695,25.758l53.709,0l0.259,0.072l0,0.144l-0.259,0.071l-53.709,0l-0.06,-0.07c0.05,-0.006 0.091,-0.037 0.091,-0.073c0,-0.037 -0.041,-0.067 -0.091,-0.074l0.06,-0.07l0,0Z" style="fill:#7e7e7e;"/><path d="M34.93,27.865l53.109,0l0.256,0.072l0,0.144l-0.256,0.071l-53.109,0l-0.06,-0.07c0.05,-0.006 0.09,-0.037 0.09,-0.073c0,-0.036 -0.04,-0.067 -0.09,-0.074l0.06,-0.07l0,0Z" style="fill:#7e7e7e;"/><path d="M34.93,29.972l52.913,0l0.255,0.072l0,0.144l-0.255,0.072l-52.913,0l-0.06,-0.071c0.05,-0.006 0.09,-0.037 0.09,-0.073c0,-0.036 -0.04,-0.067 -0.09,-0.074l0.06,-0.07l0,0Z" style="fill:#7e7e7e;"/><path d="M34.93,32.011l53.109,0l0.256,0.072l0,0.144l-0.256,0.072l-53.109,0l-0.06,-0.071c0.05,-0.006 0.09,-0.037 0.09,-0.073c0,-0.036 -0.04,-0.067 -0.09,-0.073l0.06,-0.071l0,0Z" style="fill:#7e7e7e;"/><path d="M34.695,34.186l53.709,0l0.259,0.072l0,0.144l-0.259,0.072l-53.709,0l-0.06,-0.07c0.05,-0.007 0.091,-0.038 0.091,-0.074c0,-0.036 -0.041,-0.067 -0.091,-0.073l0.06,-0.071l0,0Z" style="fill:#7e7e7e;"/><path d="M89.014,22.922l-54.932,0c-0.906,0 -1.642,1.647 -1.642,3.675l0,7.352c0,2.029 0.736,3.676 1.642,3.676l54.932,0" style="fill:none;stroke:#5a606d;stroke-width:1.29px;stroke-linecap:square;stroke-linejoin:miter;stroke-miterlimit:1;"/></g></g></svg>
