<?xml version="1.0" encoding="UTF-8" standalone="no"?><!DOCTYPE svg PUBLIC "-//W3C//DTD SVG 1.1//EN" "http://www.w3.org/Graphics/SVG/1.1/DTD/svg11.dtd"><svg width="100%" height="100%" viewBox="0 0 100 100" version="1.1" xmlns="http://www.w3.org/2000/svg" xmlns:xlink="http://www.w3.org/1999/xlink" xml:space="preserve" style="fill-rule:evenodd;clip-rule:evenodd;stroke-linecap:square;stroke-miterlimit:1;"><g id="gift"><rect x="26.699" y="41.742" width="51.701" height="38.331" style="fill:none;stroke:#50534f;stroke-width:0.64px;"/><path d="M79.584,41.742l-54.754,0l0,-5.679c0,-0.851 0.917,-1.541 2.047,-1.541l50.66,0c1.13,0 2.047,0.69 2.047,1.541l0,5.679Z" style="fill:none;stroke:#50534f;stroke-width:0.57px;"/><path d="M56.222,49.317l22.178,0l0,0.005l0.885,0l0,5.899l-0.885,0l0,0.005l-22.178,0l0,24.847l-8.106,0l0,-24.847l-22.255,0l0,-5.909l22.255,0l0,-14.795l8.106,0l0,14.795Zm-3.001,26.29c-0.998,0 -1.807,0.613 -1.807,1.368c0,0.755 0.809,1.369 1.807,1.369c-0.3,-0.32 -0.542,-0.823 -0.542,-1.369c0,-0.546 0.242,-1.049 0.542,-1.368Zm-0.936,-5.328c0.331,-0.547 0.992,-0.547 1.322,-0.274c0.331,0.274 0.331,0.821 0,1.369c-0.231,0.41 -0.826,0.821 -1.322,1.095c-0.495,-0.274 -1.09,-0.685 -1.322,-1.095c-0.33,-0.548 -0.33,-1.095 0,-1.369c0.331,-0.273 0.992,-0.273 1.322,0.274Zm1.044,-7.152c-0.684,-0.577 -1.776,-0.561 -2.439,0.036c-0.661,0.596 -0.643,1.549 0.041,2.126c0.685,0.577 1.777,0.561 2.439,-0.036l-1.24,-1.045l1.199,-1.081Zm-1.027,-3.522l0,-0.495l0.223,0.468l0.325,-0.08l-0.223,-0.468l0.422,0.39l0.271,-0.152l-0.422,-0.39l0.575,0.271l0.188,-0.207l-0.575,-0.271l0.666,0.122l0.084,-0.24l-0.666,-0.121l0.685,-0.041l-0.028,-0.247l-0.685,0.041l0.629,-0.198l-0.138,-0.227l-0.629,0.199l0.506,-0.335l-0.233,-0.182l-0.506,0.335l0.327,-0.435l-0.302,-0.118l-0.327,0.435l0.113,-0.487l-0.339,-0.041l-0.113,0.488l-0.113,-0.488l-0.339,0.041l0.113,0.487l-0.327,-0.435l-0.302,0.118l0.327,0.435l-0.505,-0.335l-0.233,0.182l0.506,0.335l-0.63,-0.199l-0.138,0.227l0.63,0.198l-0.685,-0.041l-0.029,0.247l0.685,0.041l-0.666,0.121l0.084,0.24l0.667,-0.122l-0.576,0.271l0.188,0.207l0.575,-0.271l-0.422,0.39l0.272,0.152l0.422,-0.39l-0.224,0.468l0.325,0.08l0.224,-0.468l0,0.495l0.343,0Zm8.63,-8.62c0.302,0 0.608,0.607 0.608,0.607c0,0 0.981,-0.072 1.025,-0.031c0.189,0.173 -0.268,0.727 -0.268,0.727c0,0 0.688,0.517 0.672,0.569c-0.068,0.216 -0.943,0.299 -0.943,0.299c0,0 -0.123,0.717 -0.187,0.739c-0.273,0.096 -0.907,-0.353 -0.907,-0.353c0,0 -0.841,0.376 -0.906,0.353c-0.272,-0.096 -0.188,-0.739 -0.188,-0.739c0,0 -0.926,-0.248 -0.942,-0.299c-0.067,-0.216 0.672,-0.569 0.672,-0.569c0,0 -0.314,-0.685 -0.269,-0.727c0.189,-0.173 1.026,0.031 1.026,0.031c0,0 0.535,-0.607 0.607,-0.607Zm-8.627,0.093l1.566,0.685l-1.566,2.052l-1.565,-2.052l1.565,-0.685Zm-21.579,0c-0.997,0 -1.807,0.614 -1.807,1.369c0,0.755 0.81,1.368 1.807,1.368c-0.299,-0.319 -0.542,-0.822 -0.542,-1.368c0,-0.546 0.243,-1.049 0.542,-1.369Zm6.872,0l1.392,0.685l-1.392,2.052l-1.393,-2.052l1.393,-0.685Zm6.522,0l0.103,0.654l0.212,-0.364l-0.011,0.4l0.456,-0.554l-0.27,0.624l0.394,-0.257l-0.233,0.357l0.72,-0.344l-0.591,0.47l0.498,-0.097l-0.408,0.242l0.839,-0.067l-0.793,0.224l0.502,0.081l-0.502,0.08l0.793,0.224l-0.839,-0.067l0.408,0.243l-0.498,-0.097l0.591,0.47l-0.72,-0.344l0.233,0.356l-0.394,-0.256l0.27,0.624l-0.456,-0.554l0.011,0.4l-0.212,-0.364l-0.103,0.653l-0.104,-0.653l-0.212,0.364l0.011,-0.4l-0.456,0.554l0.27,-0.624l-0.394,0.256l0.233,-0.356l-0.719,0.344l0.59,-0.47l-0.497,0.097l0.408,-0.243l-0.84,0.067l0.794,-0.224l-0.503,-0.08l0.503,-0.081l-0.794,-0.224l0.84,0.067l-0.408,-0.242l0.497,0.097l-0.59,-0.47l0.719,0.344l-0.233,-0.357l0.394,0.257l-0.27,-0.624l0.456,0.554l-0.011,-0.4l0.212,0.364l0.104,-0.654Zm31.425,0l0.103,0.654l0.213,-0.364l-0.012,0.4l0.457,-0.554l-0.271,0.624l0.394,-0.257l-0.232,0.357l0.719,-0.344l-0.591,0.47l0.498,-0.097l-0.408,0.242l0.839,-0.067l-0.793,0.224l0.502,0.081l-0.502,0.08l0.793,0.224l-0.839,-0.067l0.408,0.243l-0.498,-0.097l0.591,0.47l-0.719,-0.344l0.232,0.356l-0.394,-0.256l0.271,0.624l-0.457,-0.554l0.012,0.4l-0.213,-0.364l-0.103,0.653l-0.103,-0.653l-0.213,0.364l0.011,-0.4l-0.456,0.554l0.27,-0.624l-0.394,0.256l0.233,-0.356l-0.719,0.344l0.59,-0.47l-0.497,0.097l0.408,-0.243l-0.84,0.067l0.794,-0.224l-0.503,-0.08l0.503,-0.081l-0.794,-0.224l0.84,0.067l-0.408,-0.242l0.497,0.097l-0.59,-0.47l0.719,0.344l-0.233,-0.357l0.394,0.257l-0.27,-0.624l0.456,0.554l-0.011,-0.4l0.213,0.364l0.103,-0.654Zm-7.109,0.548c0.331,-0.548 0.992,-0.548 1.322,-0.274c0.331,0.274 0.331,0.821 0,1.369c-0.231,0.41 -0.826,0.821 -1.322,1.094c-0.495,-0.273 -1.09,-0.684 -1.322,-1.094c-0.33,-0.548 -0.33,-1.095 0,-1.369c0.331,-0.274 0.992,-0.274 1.322,0.274Zm-16.131,-8.747l0.297,0.795l0.571,-0.246l-0.092,0.55l0.959,0l-0.776,0.491l0.445,0.398l-0.628,0.094l0.297,0.795l-0.776,-0.492l-0.297,0.492l-0.296,-0.492l-0.776,0.492l0.296,-0.795l-0.628,-0.094l0.445,-0.398l-0.776,-0.491l0.959,0l-0.091,-0.55l0.571,0.246l0.296,-0.795Zm-0.176,-6.3c0.259,0 0.519,0.519 0.519,0.519c0,0 0.839,-0.061 0.878,-0.026c0.161,0.148 -0.23,0.621 -0.23,0.621c0,0 0.588,0.442 0.574,0.486c-0.057,0.185 -0.805,0.256 -0.805,0.256c0,0 -0.105,0.613 -0.161,0.633c-0.233,0.082 -0.775,-0.303 -0.775,-0.303c0,0 -0.719,0.322 -0.775,0.303c-0.232,-0.083 -0.16,-0.633 -0.16,-0.633c0,0 -0.792,-0.212 -0.806,-0.256c-0.057,-0.184 0.575,-0.486 0.575,-0.486c0,0 -0.268,-0.586 -0.23,-0.621c0.161,-0.148 0.877,0.026 0.877,0.026c0,0 0.458,-0.519 0.519,-0.519Z" style="fill:#50534f;"/><path d="M52.011,34.309c0,0 -5.773,-15.348 -9.922,-10.418c-5.527,6.567 4.599,13.616 9.922,10.418c8.783,-5.278 22.634,-1.297 14.959,-8.988c-8.426,-8.444 -14.807,8.931 -14.959,8.988Z" style="fill:none;stroke:#50534f;stroke-width:2px;stroke-linecap:round;stroke-linejoin:round;"/></g></svg>
