<?xml version="1.0" encoding="UTF-8" standalone="no"?><!DOCTYPE svg PUBLIC "-//W3C//DTD SVG 1.1//EN" "http://www.w3.org/Graphics/SVG/1.1/DTD/svg11.dtd"><svg width="100%" height="100%" viewBox="0 0 139 138" version="1.1" xmlns="http://www.w3.org/2000/svg" xmlns:xlink="http://www.w3.org/1999/xlink" xml:space="preserve" xmlns:serif="http://www.serif.com/" style="fill-rule:evenodd;clip-rule:evenodd;stroke-linejoin:round;stroke-miterlimit:1.41421;"><g id="games"><g><path d="M42.974,31.974c-2.883,0 -5.69,-0.3 -8.367,-0.867c-0.012,1.065 -0.108,1.201 1.085,1.58c3.964,1.253 10.037,1.307 14.197,0.252c1.551,-0.392 1.47,-0.52 1.444,-1.828c-2.671,0.563 -5.475,0.863 -8.359,0.863Zm-6.645,-9.325c0.047,0.075 0.094,0.146 0.155,0.232c0.816,1.11 0.906,1.72 -0.321,2.835c-0.984,0.899 -1.577,1.506 -1.568,3.105l0.008,0.767c0.053,0.055 0.128,0.1 0.213,0.145c2.606,0.557 5.339,0.851 8.158,0.851c2.889,0 5.691,-0.312 8.357,-0.896l0,-0.464c0,-1.75 -0.521,-2.458 -1.61,-3.495c-1.124,-1.07 -1.184,-1.64 -0.208,-2.72c0.121,-0.134 0.208,-0.261 0.272,-0.381c-2.208,0.312 -4.482,0.482 -6.811,0.482c-2.269,0 -4.488,-0.162 -6.645,-0.461Zm10.262,-12.888c1.998,0 2.668,9.485 2.668,9.485c0,1.395 -0.67,2.529 -2.668,2.529l-7.239,0c-1.998,0 -2.667,-1.134 -2.667,-2.529c0,0 0.669,-9.485 2.667,-9.485l7.239,0Zm2.387,-7.354c-0.572,2.504 -0.655,4.266 -0.024,6.508c-3.931,-0.328 -7.929,-0.331 -11.989,-0.028c0.839,-2.33 0.773,-4.07 0.028,-6.48l1.91,0l0,1.755l1.448,0l0,-1.755l1.91,0l0,1.755l1.449,0l0,-1.755l1.91,0l0,1.755l1.448,0l0,-1.755l1.91,0Z" style="fill:#a39f9f;"/><path d="M15.867,26.734c0.052,0.082 0.104,0.161 0.171,0.255c0.902,1.226 1.001,1.9 -0.354,3.131c-1.087,0.993 -1.742,1.663 -1.731,3.429l0.008,0.848c0.059,0.061 0.142,0.11 0.235,0.16c2.878,0.614 5.896,0.939 9.01,0.939c3.19,0 6.284,-0.344 9.228,-0.989l0,-0.513c0,-1.933 -0.575,-2.714 -1.778,-3.859c-1.241,-1.181 -1.308,-1.811 -0.23,-3.004c0.135,-0.148 0.23,-0.288 0.301,-0.421c-2.438,0.345 -4.949,0.532 -7.521,0.532c-2.507,0 -4.957,-0.178 -7.339,-0.508m7.339,10.298c-3.185,0 -6.285,-0.332 -9.24,-0.958c-0.013,1.176 -0.12,1.326 1.198,1.745c4.378,1.384 11.083,1.443 15.677,0.278c1.713,-0.432 1.624,-0.574 1.596,-2.019c-2.951,0.622 -6.046,0.954 -9.231,0.954m8.904,-13.262c-0.041,0.554 -0.109,0.945 -0.351,1.234c-2.756,0.457 -5.611,0.706 -8.553,0.706c-2.806,0 -5.538,-0.224 -8.175,-0.641c-0.124,-0.208 -0.096,-0.444 0.009,-0.718c0.282,-0.72 1.118,-1.613 1.677,-2.299l4.36,-5.278c0.928,-1.122 2.053,-2.206 0.616,-2.73c-0.583,-0.208 -1.177,-0.371 -1.772,-0.552c-1.074,-0.329 -1.853,-0.586 -2.992,-0.586c-0.043,1.097 -0.099,1.186 -0.709,1.105c-0.902,-0.123 -1.348,-0.499 -1.699,-1.105c-0.492,-0.84 -0.538,-1.657 -0.555,-2.558c-0.027,-1.245 1.296,-1.31 2.217,-1.971c1.255,-0.905 2.374,-2.152 3.331,-3.455c0.484,-0.661 0.842,-1.515 1.56,-1.938c0.374,-0.222 0.518,-0.087 1.199,0.233l1.106,0.534l-0.077,-3.016c0.755,-0.25 0.939,-0.183 1.666,0.208c1.108,0.603 2.046,1.451 2.989,2.311l-0.228,0.765l0.877,-0.233l0.386,0.382c3.157,3.161 3.501,8.424 3.465,12.629c-0.02,2.315 -0.174,4.616 -0.347,6.973" style="fill:#a39f9f;fill-rule:nonzero;"/></g><g><path d="M70.514,51.338c-0.292,-0.231 -0.329,-0.671 -0.082,-0.982c0.246,-0.311 0.683,-0.376 0.974,-0.145c0.246,0.195 0.308,0.537 0.175,0.826l3.363,2.665l-0.25,0.317l-3.374,-2.673c-0.248,0.169 -0.573,0.177 -0.806,-0.008" style="fill:#514040;fill-rule:nonzero;"/><path d="M57.365,56.99c-1.101,-2.497 -0.762,-5.436 0.997,-5.839c1.069,-0.246 2.57,-0.092 3.671,2.405c0,0 2.682,5.594 1.076,6.302l-0.761,0.336c-1.652,0.727 -3.882,-0.707 -4.983,-3.204" style="fill:#a39f9f;fill-rule:nonzero;"/><path d="M98.142,65.3l-2.291,0.075l0.59,18.048l2.291,-0.075l-0.59,-18.048Z" style="fill:#7f7f7f;"/><path d="M7.443,61.979c5.201,-2.293 12.277,1.048 15.688,7.104l33.583,-15.044l0.777,1.764c0.564,1.279 2.014,1.895 3.332,1.462l10.585,-4.479c1.381,-0.608 2.014,-2.206 1.413,-3.568l-0.611,-1.754l29.249,-13.101l12.754,28.936c0,0 -21.511,7.834 -58.749,14.135c-46.064,7.794 -49.461,5.895 -53.816,-3.083c-2.166,-4.464 0.593,-10.079 5.795,-12.372" style="fill:#7c7c7c;fill-rule:nonzero;"/><path d="M119.313,40.345c-0.52,-1.18 1.377,-3.159 4.237,-4.419c0.45,-0.199 0.895,-0.364 1.33,-0.503c-1.415,-1.926 -15.178,-20.907 -10.281,-23.433c4.982,-2.569 9.891,21.077 10.362,23.408c2.301,-0.718 4.277,-0.602 4.71,0.382c0.434,0.984 -0.814,2.52 -2.895,3.735c1.402,1.919 15.545,21.497 10.287,23.441c-5.168,1.911 -9.893,-21.056 -10.361,-23.399c-0.396,0.228 -0.818,0.445 -1.267,0.643c-2.861,1.261 -5.601,1.326 -6.122,0.145" style="fill:#939393;fill-rule:nonzero;"/><path d="M125.068,37.809c1.221,2.77 -0.035,6.004 -2.804,7.225l-3.7,1.631c-2.769,1.22 -6.004,-0.035 -7.225,-2.804c-1.221,-2.77 0.035,-6.005 2.805,-7.226l3.699,-1.63c2.769,-1.221 6.004,0.035 7.225,2.804" style="fill:#7c7c7c;fill-rule:nonzero;"/><path d="M101.495,34.445l5.138,-2.265c5.153,-2.271 5.653,-3.099 7.925,2.054l8.189,18.579c2.271,5.153 2.004,5.842 -3.15,8.113l-5.384,2.373l-12.718,-28.854Z" style="fill:#a39f9f;fill-rule:nonzero;"/><path d="M103.205,36.097c0.25,0.567 0.912,0.824 1.48,0.574c0.568,-0.25 0.825,-0.913 0.575,-1.48c-0.251,-0.568 -0.913,-0.825 -1.481,-0.575c-0.567,0.25 -0.825,0.913 -0.574,1.481" style="fill:#595959;fill-rule:nonzero;"/><path d="M104.4,38.809c0.25,0.568 0.913,0.825 1.481,0.575c0.567,-0.25 0.825,-0.913 0.574,-1.48c-0.25,-0.568 -0.913,-0.825 -1.48,-0.575c-0.568,0.25 -0.825,0.913 -0.575,1.48" style="fill:#595959;fill-rule:nonzero;"/><path d="M105.596,41.522c0.25,0.568 0.913,0.825 1.48,0.574c0.568,-0.249 0.825,-0.912 0.575,-1.48c-0.25,-0.567 -0.913,-0.825 -1.48,-0.574c-0.568,0.25 -0.825,0.913 -0.575,1.48" style="fill:#595959;fill-rule:nonzero;"/><path d="M106.792,44.235c0.25,0.567 0.913,0.825 1.48,0.575c0.568,-0.251 0.825,-0.914 0.575,-1.481c-0.25,-0.567 -0.913,-0.825 -1.481,-0.575c-0.567,0.251 -0.824,0.913 -0.574,1.481" style="fill:#595959;fill-rule:nonzero;"/><path d="M107.988,46.948c0.25,0.567 0.912,0.825 1.48,0.574c0.567,-0.25 0.825,-0.912 0.575,-1.48c-0.251,-0.568 -0.913,-0.825 -1.481,-0.575c-0.567,0.25 -0.825,0.913 -0.574,1.481" style="fill:#595959;fill-rule:nonzero;"/><path d="M109.292,49.907c0.25,0.568 0.913,0.825 1.48,0.575c0.568,-0.25 0.825,-0.913 0.575,-1.48c-0.25,-0.568 -0.913,-0.826 -1.48,-0.575c-0.568,0.25 -0.825,0.913 -0.575,1.48" style="fill:#595959;fill-rule:nonzero;"/><path d="M110.488,52.62c0.25,0.568 0.912,0.825 1.48,0.575c0.568,-0.25 0.825,-0.913 0.575,-1.48c-0.251,-0.568 -0.913,-0.826 -1.481,-0.575c-0.567,0.25 -0.825,0.913 -0.574,1.48" style="fill:#595959;fill-rule:nonzero;"/><path d="M40.947,63.243c0.25,0.567 0.913,0.824 1.48,0.574c0.568,-0.25 0.825,-0.912 0.575,-1.48c-0.25,-0.568 -0.913,-0.825 -1.48,-0.575c-0.568,0.251 -0.825,0.914 -0.575,1.481" style="fill:#c4c4c4;fill-rule:nonzero;"/><path d="M42.142,65.956c0.251,0.567 0.913,0.824 1.481,0.574c0.567,-0.25 0.825,-0.913 0.575,-1.48c-0.25,-0.568 -0.913,-0.825 -1.481,-0.575c-0.567,0.25 -0.825,0.913 -0.575,1.481" style="fill:#c4c4c4;fill-rule:nonzero;"/><path d="M43.338,68.669c0.25,0.567 0.913,0.824 1.481,0.574c0.567,-0.25 0.824,-0.913 0.575,-1.48c-0.251,-0.568 -0.914,-0.825 -1.481,-0.575c-0.568,0.25 -0.825,0.913 -0.575,1.481" style="fill:#c4c4c4;fill-rule:nonzero;"/><path d="M44.534,71.382c0.25,0.567 0.913,0.824 1.481,0.574c0.567,-0.25 0.824,-0.913 0.574,-1.48c-0.25,-0.568 -0.913,-0.825 -1.48,-0.575c-0.568,0.25 -0.825,0.913 -0.575,1.481" style="fill:#c4c4c4;fill-rule:nonzero;"/><path d="M45.73,74.094c0.25,0.568 0.913,0.825 1.48,0.575c0.568,-0.25 0.825,-0.913 0.575,-1.48c-0.25,-0.568 -0.913,-0.825 -1.48,-0.575c-0.568,0.25 -0.825,0.913 -0.575,1.48" style="fill:#c4c4c4;fill-rule:nonzero;"/><path d="M47.034,77.054c0.25,0.567 0.913,0.825 1.481,0.574c0.567,-0.25 0.824,-0.913 0.575,-1.48c-0.251,-0.568 -0.914,-0.825 -1.481,-0.575c-0.568,0.25 -0.825,0.913 -0.575,1.481" style="fill:#c4c4c4;fill-rule:nonzero;"/><path d="M111.683,55.333c0.25,0.567 0.913,0.825 1.481,0.575c0.567,-0.25 0.825,-0.913 0.574,-1.481c-0.25,-0.568 -0.913,-0.825 -1.48,-0.575c-0.568,0.25 -0.825,0.913 -0.575,1.481" style="fill:#595959;fill-rule:nonzero;"/><path d="M112.879,58.046c0.25,0.567 0.913,0.824 1.481,0.574c0.567,-0.25 0.824,-0.913 0.574,-1.48c-0.25,-0.568 -0.913,-0.825 -1.48,-0.575c-0.568,0.251 -0.825,0.913 -0.575,1.481" style="fill:#595959;fill-rule:nonzero;"/><path d="M114.075,60.759c0.25,0.567 0.913,0.824 1.48,0.574c0.568,-0.25 0.825,-0.913 0.575,-1.48c-0.25,-0.568 -0.913,-0.825 -1.48,-0.575c-0.568,0.25 -0.825,0.913 -0.575,1.481" style="fill:#595959;fill-rule:nonzero;"/><path d="M72.076,47.447c-1.036,-0.684 -4.353,-1.025 -3.658,-6.634c5.303,-3.588 12.2,-1.388 13.731,2.085c0.005,0.012 -1.292,0.939 -2.225,2.637c-1.881,3.423 -7.035,3.752 -7.027,3.772l-0.821,-1.86Z" style="fill:#b5b4b4;fill-rule:nonzero;"/><path d="M1.837,85.363c2.804,-0.747 8.645,-4.014 14.778,-6.717c6.134,-2.704 10.616,-3.978 10.102,-5.144c-0.515,-1.167 -1.047,-2.102 -7.181,0.602c-6.133,2.703 -18.931,11.587 -17.699,11.259" style="fill:#a39f9f;fill-rule:nonzero;"/><path d="M95.768,19.945l-2.291,0.075l1.03,31.408l2.292,-0.075l-1.031,-31.408Z" style="fill:#7f7f7f;"/><path d="M80.482,25.324l-2.29,0.075l1.093,33.357l2.291,-0.076l-1.094,-33.356Z" style="fill:#7f7f7f;"/><path d="M60.313,71.373c5.073,-1.353 15.645,-7.264 26.746,-12.157c11.1,-4.893 19.212,-7.198 18.281,-9.31c-0.931,-2.111 -1.894,-3.804 -12.995,1.089c-11.101,4.893 -34.262,20.972 -32.032,20.378" style="fill:#a39f9f;fill-rule:nonzero;"/><path d="M59.686,37.041c5.074,-1.353 15.645,-7.264 26.746,-12.157c11.101,-4.893 19.212,-7.198 18.282,-9.309c-0.931,-2.112 -1.895,-3.804 -12.996,1.089c-11.1,4.892 -34.261,20.971 -32.032,20.377" style="fill:#7c7c7c;fill-rule:nonzero;"/><path d="M92.802,86.948c1.486,3.371 5.423,4.899 8.794,3.414c3.372,-1.486 4.9,-5.423 3.414,-8.795c-1.486,-3.371 -5.423,-4.899 -8.794,-3.413c-3.371,1.486 -4.9,5.423 -3.414,8.794" style="fill:#6c6c6c;fill-rule:nonzero;"/><path d="M95.083,85.943c0.931,2.111 3.397,3.068 5.508,2.137c2.111,-0.93 3.068,-3.396 2.138,-5.507c-0.931,-2.111 -3.397,-3.068 -5.508,-2.138c-2.111,0.931 -3.068,3.396 -2.138,5.508" style="fill:#7f7f7f;fill-rule:nonzero;"/><path d="M85.615,91.015c2.982,0.144 7.9,-4.089 13.615,-6.608c5.714,-2.519 10.422,-2.499 8.887,-5.982c-1.535,-3.483 -2.918,-6.366 -8.633,-3.847c-5.715,2.519 -15.18,16.374 -13.869,16.437" style="fill:#7c7c7c;fill-rule:nonzero;"/></g><g id="balaa"><path d="M120.628,120.835c0,0.035 0,0.069 0,0.103c0,9.291 -7.645,16.936 -16.935,16.936c-9.291,0 -16.936,-7.645 -16.936,-16.936c0,-0.034 0,-0.068 0.001,-0.103c-0.001,-0.034 -0.001,-0.068 -0.001,-0.102c0,-9.291 7.645,-16.936 16.936,-16.936c9.29,0 16.935,7.645 16.935,16.936c0,0.034 0,0.068 0,0.102Z" style="fill:#a39f9f;"/><path d="M92.237,133.326c-0.414,-0.345 -0.712,-0.703 -1.062,-1.074c1.713,0.028 2.982,-0.402 4.527,-1.469c1.292,-0.815 2.973,-5.618 2.327,-9.971c-0.422,-3.736 -1.186,-3.026 -2.088,-8.654c-0.393,-2.163 0.009,-5.154 2.987,-7.57c0.813,-0.23 1.147,-0.317 2.48,-0.534c-4.958,3.369 -4.407,6.138 -4.087,8.3c0.168,3.062 1.813,4.625 2.234,8.508c0.646,4.5 -1.376,9.928 -2.668,10.743c-1.545,1.067 -2.936,1.75 -4.649,1.721l-0.001,0Z" style="fill:#f7f7f7;"/><path d="M116.996,110.345c0.418,0.485 0.65,0.811 1.015,1.402c0.363,4.271 0.514,7.905 -0.501,11.434c-1.349,3.815 -4.235,8.318 -3.888,9.535c-0.032,0.587 -0.065,1.201 0.22,1.761c-0.318,0.147 -0.609,0.399 -0.927,0.546c-0.181,-0.662 -0.23,-1.377 -0.173,-2.013c0.33,-2.417 1.243,-4.25 2.421,-6.455c0.745,-1.491 1.173,-2.982 1.76,-4.474c0.713,-2.216 0.685,-5.81 0.073,-11.736l0,0Z" style="fill:#f7f7f7;"/></g><path d="M39.301,107.086c-0.164,-0.38 -0.013,-0.844 0.369,-1.078l7.035,-4.292c0.495,-0.896 1.283,-2.455 -4.224,-2.648c-2.627,-0.092 -1.238,-5.498 1.762,-7.33c3.002,-1.831 7.391,0.013 5.963,3.525c-1.606,3.952 -0.074,3.919 1.212,3.577l6.421,-3.917c0.418,-0.255 0.951,-0.14 1.193,0.256l4.416,6.67c-0.104,0.644 -1.027,1.358 -3.29,0.68c-2.733,-0.819 -4.227,2.822 -2.951,4.912c1.275,2.09 6.104,3.321 6.352,1.378c0.408,-3.185 1.517,-3.303 2.187,-3.18l3.703,6.614c0.242,0.396 0.1,0.923 -0.317,1.177l-18.169,11.087c-0.013,0.007 -0.026,0.015 -0.039,0.021l-0.166,0.103c-0.368,0.227 -0.858,0.103 -1.094,-0.278l-3.975,-6.441c-0.832,-0.446 -2.525,-2.522 -2.721,2.565c-0.093,2.427 -4.874,2.58 -6.57,-0.168c-1.695,-2.749 -0.184,-7.729 3.081,-6.455c3.673,1.434 3.543,0.402 3.228,-0.781l-3.308,-5.356c-0.124,-0.201 -0.152,-0.432 -0.098,-0.641Z" style="fill:#a39f9f;"/></g></svg>
