<?xml version="1.0" encoding="UTF-8" standalone="no"?><!DOCTYPE svg PUBLIC "-//W3C//DTD SVG 1.1//EN" "http://www.w3.org/Graphics/SVG/1.1/DTD/svg11.dtd"><svg width="100%" height="100%" viewBox="0 0 136 125" version="1.1" xmlns="http://www.w3.org/2000/svg" xmlns:xlink="http://www.w3.org/1999/xlink" xml:space="preserve" xmlns:serif="http://www.serif.com/" style="fill-rule:evenodd;clip-rule:evenodd;stroke-linejoin:round;stroke-miterlimit:1.41421;"><g id="games"><g><path d="M45.45,31.405c-2.825,0 -5.575,-0.294 -8.197,-0.849c-0.012,1.043 -0.106,1.177 1.063,1.548c3.883,1.227 9.832,1.28 13.907,0.246c1.519,-0.383 1.44,-0.509 1.415,-1.79c-2.617,0.551 -5.363,0.845 -8.188,0.845Zm-6.51,-9.134c0.046,0.072 0.092,0.142 0.151,0.226c0.8,1.088 0.888,1.685 -0.314,2.777c-0.964,0.881 -1.545,1.476 -1.536,3.042l0.007,0.752c0.053,0.054 0.127,0.098 0.21,0.142c2.552,0.545 5.229,0.833 7.992,0.833c2.83,0 5.575,-0.305 8.186,-0.877l0,-0.455c0,-1.715 -0.51,-2.408 -1.578,-3.423c-1.1,-1.048 -1.159,-1.607 -0.203,-2.665c0.119,-0.132 0.203,-0.255 0.266,-0.374c-2.162,0.307 -4.39,0.473 -6.671,0.473c-2.224,0 -4.397,-0.158 -6.51,-0.451Zm10.053,-12.627c1.957,0 2.613,9.292 2.613,9.292c0,1.368 -0.656,2.478 -2.613,2.478l-7.092,0c-1.957,0 -2.613,-1.11 -2.613,-2.478c0,0 0.656,-9.292 2.613,-9.292l7.092,0Zm2.338,-7.203c-0.561,2.452 -0.642,4.179 -0.024,6.376c-3.851,-0.322 -7.767,-0.325 -11.744,-0.029c0.821,-2.282 0.757,-3.987 0.027,-6.347l1.871,0l0,1.719l1.419,0l0,-1.719l1.871,0l0,1.719l1.419,0l0,-1.719l1.871,0l0,1.719l1.419,0l0,-1.719l1.871,0Z" style="fill:#a39f9f;"/><path d="M18.895,26.272c0.051,0.08 0.102,0.157 0.167,0.25c0.884,1.201 0.981,1.861 -0.346,3.067c-1.065,0.973 -1.707,1.629 -1.697,3.359l0.008,0.831c0.058,0.059 0.14,0.108 0.231,0.156c2.819,0.602 5.776,0.921 8.826,0.921c3.125,0 6.157,-0.338 9.04,-0.969l0,-0.503c0,-1.893 -0.563,-2.658 -1.742,-3.78c-1.215,-1.158 -1.281,-1.774 -0.225,-2.943c0.132,-0.145 0.225,-0.282 0.295,-0.412c-2.389,0.338 -4.849,0.521 -7.368,0.521c-2.456,0 -4.856,-0.174 -7.189,-0.498m7.189,10.088c-3.12,0 -6.156,-0.326 -9.052,-0.938c-0.013,1.152 -0.117,1.299 1.174,1.709c4.289,1.355 10.858,1.413 15.358,0.272c1.678,-0.423 1.59,-0.562 1.563,-1.977c-2.891,0.608 -5.923,0.934 -9.043,0.934m8.723,-12.992c-0.041,0.544 -0.107,0.926 -0.344,1.209c-2.7,0.448 -5.497,0.692 -8.379,0.692c-2.749,0 -5.425,-0.22 -8.008,-0.628c-0.121,-0.203 -0.095,-0.435 0.008,-0.704c0.277,-0.705 1.096,-1.58 1.644,-2.252l4.271,-5.17c0.909,-1.1 2.011,-2.161 0.603,-2.675c-0.571,-0.203 -1.153,-0.363 -1.736,-0.54c-1.052,-0.322 -1.815,-0.574 -2.931,-0.574c-0.042,1.075 -0.096,1.162 -0.694,1.082c-0.884,-0.12 -1.321,-0.488 -1.664,-1.082c-0.483,-0.823 -0.528,-1.623 -0.545,-2.506c-0.025,-1.22 1.27,-1.283 2.172,-1.931c1.229,-0.886 2.326,-2.109 3.264,-3.384c0.474,-0.648 0.824,-1.485 1.528,-1.899c0.366,-0.218 0.507,-0.085 1.174,0.229l1.083,0.522l-0.075,-2.954c0.74,-0.245 0.92,-0.179 1.632,0.204c1.086,0.59 2.004,1.421 2.928,2.264l-0.223,0.749l0.859,-0.228l0.378,0.373c3.093,3.098 3.43,8.253 3.395,12.373c-0.02,2.267 -0.171,4.522 -0.34,6.83" style="fill:#a39f9f;fill-rule:nonzero;"/></g><g><path d="M70.219,54.752c-0.264,-0.25 -0.262,-0.683 0.005,-0.965c0.268,-0.282 0.699,-0.308 0.964,-0.057c0.223,0.211 0.254,0.551 0.099,0.821l3.051,2.891l-0.272,0.288l-3.061,-2.9c-0.256,0.144 -0.574,0.123 -0.786,-0.078" style="fill:#514040;fill-rule:nonzero;"/><path d="M56.9,59.131c-0.858,-2.532 -0.273,-5.37 1.478,-5.612c1.065,-0.147 2.516,0.133 3.374,2.665c0,0 2.134,5.69 0.505,6.242l-0.772,0.262c-1.674,0.567 -3.727,-1.025 -4.585,-3.557" style="fill:#a39f9f;fill-rule:nonzero;"/><path d="M95.972,70.766l-2.242,-0.125l-0.985,17.662l2.242,0.125l0.985,-17.662Z" style="fill:#7f7f7f;"/><path d="M7.755,59.683c5.274,-1.788 11.889,2.084 14.694,8.288l34.071,-11.776l0.606,1.788c0.44,1.297 1.801,2.024 3.125,1.715l10.716,-3.455c1.4,-0.474 2.155,-1.979 1.687,-3.36l-0.444,-1.764l29.673,-10.256l9.944,29.339c0,0 -21.668,5.785 -58.549,8.713c-45.623,3.623 -48.774,1.477 -52.247,-7.661c-1.727,-4.543 1.45,-9.784 6.724,-11.571" style="fill:#595959;fill-rule:nonzero;"/><path d="M118.788,48.245c-0.405,-1.197 1.617,-2.963 4.517,-3.946c0.455,-0.155 0.904,-0.277 1.341,-0.375c-1.214,-2.003 -13.004,-21.714 -8.007,-23.755c5.084,-2.077 7.83,21.421 8.088,23.737c2.307,-0.501 4.225,-0.217 4.563,0.78c0.338,0.997 -1.012,2.389 -3.148,3.394c1.202,1.994 13.31,22.321 8.011,23.763c-5.208,1.418 -7.833,-21.401 -8.087,-23.728c-0.406,0.188 -0.837,0.363 -1.292,0.518c-2.9,0.983 -5.58,0.809 -5.986,-0.388" style="fill:#939393;fill-rule:nonzero;"/><path d="M124.623,46.268c0.951,2.808 -0.553,5.856 -3.361,6.808l-3.751,1.271c-2.808,0.952 -5.856,-0.553 -6.808,-3.361c-0.952,-2.808 0.553,-5.856 3.361,-6.808l3.751,-1.271c2.808,-0.952 5.856,0.553 6.808,3.361" style="fill:#595959;fill-rule:nonzero;"/><path d="M101.911,40.947l5.21,-1.766c5.224,-1.771 5.784,-2.535 7.555,2.69l6.385,18.837c1.77,5.225 1.45,5.873 -3.775,7.644l-5.46,1.851l-9.915,-29.256Z" style="fill:#a39f9f;fill-rule:nonzero;"/><path d="M103.437,42.706c0.195,0.575 0.819,0.884 1.395,0.689c0.575,-0.195 0.883,-0.82 0.688,-1.395c-0.195,-0.576 -0.819,-0.884 -1.394,-0.689c-0.576,0.195 -0.884,0.82 -0.689,1.395" style="fill:#595959;fill-rule:nonzero;"/><path d="M104.369,45.457c0.195,0.575 0.819,0.884 1.395,0.688c0.575,-0.195 0.884,-0.819 0.689,-1.394c-0.196,-0.576 -0.82,-0.884 -1.395,-0.689c-0.576,0.195 -0.884,0.819 -0.689,1.395" style="fill:#595959;fill-rule:nonzero;"/><path d="M105.301,48.207c0.195,0.576 0.82,0.884 1.395,0.689c0.575,-0.195 0.884,-0.819 0.689,-1.395c-0.195,-0.575 -0.82,-0.884 -1.395,-0.688c-0.576,0.194 -0.884,0.819 -0.689,1.394" style="fill:#595959;fill-rule:nonzero;"/><path d="M106.233,50.958c0.195,0.575 0.82,0.884 1.395,0.689c0.576,-0.195 0.884,-0.82 0.689,-1.395c-0.195,-0.576 -0.82,-0.884 -1.395,-0.689c-0.575,0.195 -0.884,0.82 -0.689,1.395" style="fill:#595959;fill-rule:nonzero;"/><path d="M107.166,53.709c0.195,0.575 0.819,0.883 1.395,0.688c0.575,-0.195 0.883,-0.819 0.688,-1.394c-0.195,-0.576 -0.819,-0.885 -1.395,-0.69c-0.575,0.196 -0.883,0.82 -0.688,1.396" style="fill:#595959;fill-rule:nonzero;"/><path d="M108.183,56.709c0.195,0.575 0.819,0.884 1.395,0.689c0.575,-0.195 0.883,-0.82 0.688,-1.395c-0.195,-0.575 -0.819,-0.884 -1.395,-0.689c-0.575,0.195 -0.883,0.82 -0.688,1.395" style="fill:#595959;fill-rule:nonzero;"/><path d="M109.115,59.46c0.195,0.575 0.819,0.883 1.395,0.688c0.575,-0.195 0.883,-0.819 0.689,-1.394c-0.196,-0.576 -0.82,-0.884 -1.395,-0.689c-0.576,0.195 -0.884,0.819 -0.689,1.395" style="fill:#595959;fill-rule:nonzero;"/><path d="M40.339,63.813c0.195,0.575 0.819,0.883 1.395,0.688c0.575,-0.195 0.884,-0.819 0.689,-1.394c-0.195,-0.576 -0.82,-0.884 -1.395,-0.689c-0.576,0.195 -0.884,0.82 -0.689,1.395" style="fill:#c4c4c4;fill-rule:nonzero;"/><path d="M41.271,66.563c0.195,0.576 0.819,0.884 1.395,0.689c0.575,-0.195 0.884,-0.819 0.689,-1.395c-0.195,-0.575 -0.82,-0.884 -1.395,-0.689c-0.576,0.195 -0.884,0.82 -0.689,1.395" style="fill:#c4c4c4;fill-rule:nonzero;"/><path d="M42.203,69.314c0.195,0.575 0.82,0.884 1.395,0.689c0.576,-0.195 0.884,-0.82 0.689,-1.395c-0.195,-0.576 -0.82,-0.884 -1.395,-0.689c-0.575,0.195 -0.884,0.819 -0.689,1.395" style="fill:#c4c4c4;fill-rule:nonzero;"/><path d="M43.136,72.065c0.195,0.575 0.819,0.883 1.395,0.688c0.575,-0.195 0.883,-0.819 0.688,-1.394c-0.195,-0.576 -0.819,-0.885 -1.395,-0.69c-0.575,0.196 -0.884,0.82 -0.688,1.396" style="fill:#c4c4c4;fill-rule:nonzero;"/><path d="M44.068,74.815c0.195,0.575 0.819,0.884 1.395,0.689c0.575,-0.195 0.883,-0.82 0.688,-1.395c-0.195,-0.576 -0.819,-0.884 -1.394,-0.689c-0.576,0.195 -0.884,0.82 -0.689,1.395" style="fill:#c4c4c4;fill-rule:nonzero;"/><path d="M45.085,77.816c0.195,0.575 0.819,0.883 1.395,0.688c0.575,-0.195 0.883,-0.819 0.689,-1.394c-0.196,-0.576 -0.82,-0.884 -1.396,-0.69c-0.575,0.196 -0.883,0.82 -0.688,1.396" style="fill:#c4c4c4;fill-rule:nonzero;"/><path d="M110.047,62.21c0.195,0.576 0.82,0.884 1.395,0.689c0.575,-0.195 0.884,-0.819 0.689,-1.395c-0.195,-0.576 -0.82,-0.884 -1.395,-0.689c-0.576,0.195 -0.884,0.82 -0.689,1.395" style="fill:#595959;fill-rule:nonzero;"/><path d="M110.979,64.961c0.195,0.575 0.82,0.883 1.395,0.689c0.576,-0.195 0.884,-0.82 0.689,-1.395c-0.195,-0.576 -0.82,-0.884 -1.395,-0.689c-0.575,0.195 -0.884,0.819 -0.689,1.395" style="fill:#595959;fill-rule:nonzero;"/><path d="M111.912,67.712c0.195,0.575 0.819,0.883 1.395,0.688c0.575,-0.195 0.883,-0.819 0.688,-1.395c-0.195,-0.575 -0.819,-0.883 -1.395,-0.688c-0.575,0.195 -0.883,0.819 -0.688,1.395" style="fill:#595959;fill-rule:nonzero;"/><path d="M72.08,51.09c-0.951,-0.756 -4.158,-1.376 -2.996,-6.789c5.485,-3.043 12.025,-0.3 13.219,3.222c0.004,0.012 -1.342,0.805 -2.399,2.381c-2.132,3.177 -7.189,3.053 -7.183,3.073l-0.641,-1.887Z" style="fill:#b5b4b4;fill-rule:nonzero;"/><path d="M0.263,82.016c2.8,-0.487 8.783,-3.169 15.002,-5.277c6.219,-2.108 10.702,-2.963 10.301,-4.146c-0.401,-1.183 -0.84,-2.141 -7.058,-0.034c-6.219,2.108 -19.475,9.671 -18.245,9.457" style="fill:#a39f9f;fill-rule:nonzero;"/><path d="M97.577,26.303l-2.243,-0.125l-1.709,30.737l2.242,0.125l1.71,-30.737Z" style="fill:#7f7f7f;"/><path d="M82.196,30.23l-2.242,-0.125l-1.817,32.644l2.242,0.125l1.817,-32.644Z" style="fill:#7f7f7f;"/><path d="M58.533,73.42c5.068,-0.881 15.894,-5.735 27.15,-9.55c11.255,-3.815 19.369,-5.363 18.643,-7.503c-0.725,-2.141 -1.519,-3.876 -12.774,-0.061c-11.255,3.814 -35.246,17.502 -33.019,17.114" style="fill:#a39f9f;fill-rule:nonzero;"/><path d="M60.89,39.866c5.068,-0.882 15.895,-5.736 27.15,-9.551c11.255,-3.814 19.369,-5.363 18.644,-7.503c-0.726,-2.141 -1.52,-3.876 -12.775,-0.061c-11.255,3.814 -35.246,17.502 -33.019,17.115" style="fill:#595959;fill-rule:nonzero;"/><path d="M88.889,91.428c1.159,3.418 4.869,5.249 8.287,4.091c3.418,-1.158 5.25,-4.868 4.091,-8.286c-1.158,-3.418 -4.868,-5.25 -8.286,-4.092c-3.418,1.159 -5.25,4.869 -4.092,8.287" style="fill:#6c6c6c;fill-rule:nonzero;"/><path d="M91.202,90.644c0.726,2.14 3.049,3.287 5.19,2.562c2.14,-0.726 3.288,-3.049 2.562,-5.189c-0.726,-2.141 -3.049,-3.288 -5.189,-2.563c-2.141,0.726 -3.288,3.049 -2.563,5.19" style="fill:#7f7f7f;fill-rule:nonzero;"/><path d="M81.524,94.775c2.898,0.398 8.063,-3.307 13.857,-5.271c5.794,-1.964 10.386,-1.538 9.189,-5.069c-1.197,-3.531 -2.297,-6.464 -8.091,-4.5c-5.794,1.963 -16.228,14.665 -14.955,14.84" style="fill:#595959;fill-rule:nonzero;"/></g><g><path d="M71.594,108.742c0,0.032 0,0.063 0,0.094c0,8.408 -6.919,15.327 -15.328,15.327c-8.408,0 -15.327,-6.919 -15.327,-15.327c0,-0.031 0,-0.062 0,-0.094c0,-0.031 0,-0.062 0,-0.093c0,-8.408 6.919,-15.327 15.327,-15.327c8.409,0 15.328,6.919 15.328,15.327c0,0.031 0,0.062 0,0.093Z" style="fill:#a39f9f;"/><path d="M45.898,120.048c-0.375,-0.313 -0.645,-0.637 -0.961,-0.973c1.55,0.025 2.699,-0.364 4.097,-1.33c1.17,-0.737 2.691,-5.084 2.106,-9.024c-0.381,-3.381 -1.073,-2.738 -1.89,-7.833c-0.355,-1.957 0.009,-4.664 2.704,-6.85c0.736,-0.208 1.038,-0.288 2.244,-0.484c-4.487,3.049 -3.988,5.555 -3.699,7.512c0.153,2.771 1.641,4.186 2.023,7.7c0.584,4.073 -1.246,8.987 -2.415,9.724c-1.398,0.966 -2.658,1.583 -4.208,1.558l-0.001,0Z" style="fill:#f7f7f7;"/><path d="M68.307,99.248c0.378,0.439 0.589,0.734 0.919,1.269c0.328,3.865 0.465,7.155 -0.454,10.349c-1.221,3.452 -3.833,7.528 -3.519,8.63c-0.029,0.531 -0.059,1.086 0.2,1.593c-0.288,0.133 -0.552,0.361 -0.839,0.494c-0.165,-0.599 -0.209,-1.246 -0.157,-1.822c0.298,-2.187 1.125,-3.846 2.191,-5.842c0.675,-1.349 1.062,-2.699 1.593,-4.049c0.646,-2.006 0.62,-5.258 0.066,-10.622l0,0Z" style="fill:#f7f7f7;"/></g></g></svg>
