<?xml version="1.0" encoding="UTF-8" standalone="no"?><!DOCTYPE svg PUBLIC "-//W3C//DTD SVG 1.1//EN" "http://www.w3.org/Graphics/SVG/1.1/DTD/svg11.dtd"><svg width="100%" height="100%" viewBox="0 0 136 136" version="1.1" xmlns="http://www.w3.org/2000/svg" xmlns:xlink="http://www.w3.org/1999/xlink" xml:space="preserve" xmlns:serif="http://www.serif.com/" style="fill-rule:evenodd;clip-rule:evenodd;stroke-linejoin:round;stroke-miterlimit:1.41421;"><g id="games"><g><path d="M42.048,31.334c-2.825,0 -5.575,-0.294 -8.196,-0.849c-0.012,1.044 -0.107,1.177 1.062,1.548c3.884,1.227 9.832,1.28 13.907,0.247c1.52,-0.384 1.441,-0.51 1.416,-1.791c-2.618,0.551 -5.364,0.845 -8.189,0.845Zm-6.51,-9.134c0.046,0.072 0.092,0.142 0.152,0.226c0.8,1.088 0.887,1.686 -0.314,2.778c-0.964,0.88 -1.545,1.475 -1.536,3.041l0.007,0.752c0.052,0.054 0.126,0.098 0.209,0.142c2.553,0.545 5.23,0.833 7.992,0.833c2.83,0 5.575,-0.305 8.186,-0.877l0,-0.455c0,-1.714 -0.51,-2.407 -1.577,-3.423c-1.101,-1.048 -1.16,-1.607 -0.204,-2.665c0.119,-0.131 0.204,-0.255 0.267,-0.373c-2.163,0.306 -4.39,0.472 -6.672,0.472c-2.223,0 -4.397,-0.158 -6.51,-0.451Zm10.053,-12.626c1.957,0 2.613,9.291 2.613,9.291c0,1.368 -0.656,2.478 -2.613,2.478l-7.091,0c-1.957,0 -2.613,-1.11 -2.613,-2.478c0,0 0.656,-9.291 2.613,-9.291l7.091,0Zm2.339,-7.204c-0.561,2.453 -0.643,4.179 -0.024,6.376c-3.851,-0.322 -7.767,-0.325 -11.744,-0.029c0.821,-2.282 0.756,-3.987 0.027,-6.347l1.871,0l0,1.719l1.418,0l0,-1.719l1.872,0l0,1.719l1.418,0l0,-1.719l1.872,0l0,1.719l1.418,0l0,-1.719l1.872,0Z" style="fill:#a39f9f;"/><path d="M15.493,26.201c0.051,0.08 0.102,0.157 0.168,0.25c0.883,1.201 0.98,1.861 -0.347,3.067c-1.064,0.973 -1.706,1.63 -1.696,3.359l0.008,0.831c0.058,0.059 0.139,0.108 0.231,0.156c2.819,0.602 5.775,0.921 8.826,0.921c3.125,0 6.156,-0.338 9.04,-0.969l0,-0.503c0,-1.893 -0.564,-2.658 -1.742,-3.78c-1.216,-1.157 -1.281,-1.774 -0.225,-2.943c0.131,-0.145 0.225,-0.282 0.294,-0.412c-2.388,0.338 -4.848,0.521 -7.367,0.521c-2.456,0 -4.856,-0.174 -7.19,-0.498m7.19,10.088c-3.12,0 -6.157,-0.325 -9.052,-0.938c-0.013,1.152 -0.118,1.299 1.174,1.709c4.288,1.356 10.857,1.414 15.357,0.273c1.678,-0.424 1.591,-0.563 1.563,-1.978c-2.89,0.609 -5.923,0.934 -9.042,0.934m8.722,-12.991c-0.04,0.543 -0.106,0.925 -0.344,1.209c-2.699,0.447 -5.497,0.691 -8.378,0.691c-2.749,0 -5.425,-0.22 -8.009,-0.628c-0.121,-0.203 -0.094,-0.435 0.009,-0.703c0.276,-0.706 1.095,-1.581 1.643,-2.253l4.271,-5.17c0.909,-1.099 2.011,-2.161 0.604,-2.674c-0.572,-0.204 -1.153,-0.364 -1.737,-0.541c-1.052,-0.322 -1.814,-0.574 -2.93,-0.574c-0.043,1.075 -0.097,1.162 -0.695,1.082c-0.884,-0.12 -1.321,-0.488 -1.664,-1.082c-0.483,-0.823 -0.528,-1.623 -0.544,-2.506c-0.026,-1.22 1.27,-1.283 2.172,-1.931c1.229,-0.886 2.325,-2.108 3.263,-3.384c0.474,-0.648 0.824,-1.484 1.528,-1.899c0.367,-0.218 0.507,-0.085 1.174,0.229l1.084,0.522l-0.075,-2.954c0.739,-0.245 0.919,-0.179 1.632,0.204c1.085,0.591 2.004,1.422 2.927,2.264l-0.223,0.749l0.859,-0.228l0.378,0.374c3.093,3.097 3.431,8.252 3.395,12.372c-0.02,2.267 -0.17,4.522 -0.34,6.831" style="fill:#a39f9f;fill-rule:nonzero;"/></g><g><path d="M69.026,50.303c-0.286,-0.226 -0.322,-0.657 -0.08,-0.961c0.241,-0.305 0.669,-0.369 0.955,-0.142c0.24,0.191 0.301,0.526 0.171,0.809l3.295,2.61l-0.246,0.311l-3.305,-2.619c-0.243,0.166 -0.561,0.174 -0.79,-0.008" style="fill:#514040;fill-rule:nonzero;"/><path d="M56.145,55.84c-1.078,-2.446 -0.746,-5.325 0.977,-5.72c1.048,-0.24 2.518,-0.09 3.596,2.356c0,0 2.628,5.481 1.054,6.174l-0.746,0.329c-1.617,0.713 -3.802,-0.692 -4.881,-3.139" style="fill:#a39f9f;fill-rule:nonzero;"/><path d="M96.091,63.981l-2.244,0.074l0.578,17.68l2.244,-0.074l-0.578,-17.68Z" style="fill:#7f7f7f;"/><path d="M7.241,60.728c5.095,-2.246 12.026,1.026 15.368,6.959l32.899,-14.737l0.761,1.727c0.552,1.253 1.973,1.857 3.264,1.432l10.369,-4.386c1.353,-0.597 1.973,-2.162 1.385,-3.496l-0.599,-1.718l28.652,-12.835l12.495,28.347c0,0 -21.073,7.674 -57.552,13.847c-45.125,7.635 -48.452,5.775 -52.719,-3.02c-2.121,-4.373 0.581,-9.874 5.677,-12.12" style="fill:#7c7c7c;fill-rule:nonzero;"/><path d="M116.831,39.535c-0.51,-1.156 1.349,-3.095 4.151,-4.33c0.44,-0.194 0.876,-0.355 1.302,-0.492c-1.386,-1.887 -14.869,-20.481 -10.071,-22.955c4.88,-2.517 9.69,20.647 10.15,22.93c2.255,-0.702 4.19,-0.589 4.615,0.374c0.425,0.964 -0.797,2.47 -2.837,3.66c1.374,1.88 15.228,21.058 10.078,22.963c-5.063,1.872 -9.692,-20.627 -10.15,-22.922c-0.388,0.223 -0.801,0.436 -1.241,0.63c-2.803,1.235 -5.487,1.299 -5.997,0.142" style="fill:#939393;fill-rule:nonzero;"/><path d="M122.468,37.051c1.196,2.713 -0.034,5.881 -2.747,7.077l-3.624,1.598c-2.713,1.195 -5.882,-0.035 -7.077,-2.747c-1.196,-2.714 0.034,-5.883 2.747,-7.079l3.624,-1.597c2.713,-1.196 5.882,0.034 7.077,2.748" style="fill:#7c7c7c;fill-rule:nonzero;"/><path d="M99.376,33.755l5.033,-2.219c5.048,-2.225 5.538,-3.036 7.763,2.012l8.023,18.2c2.225,5.049 1.963,5.723 -3.086,7.948l-5.275,2.325l-12.458,-28.266Z" style="fill:#a39f9f;fill-rule:nonzero;"/><path d="M101.051,35.373c0.245,0.555 0.894,0.807 1.45,0.563c0.556,-0.245 0.808,-0.895 0.563,-1.45c-0.245,-0.557 -0.895,-0.809 -1.45,-0.564c-0.556,0.245 -0.809,0.895 -0.563,1.451" style="fill:#595959;fill-rule:nonzero;"/><path d="M102.222,38.03c0.245,0.556 0.894,0.808 1.45,0.563c0.556,-0.245 0.808,-0.894 0.563,-1.45c-0.245,-0.556 -0.894,-0.808 -1.45,-0.563c-0.556,0.245 -0.808,0.894 -0.563,1.45" style="fill:#595959;fill-rule:nonzero;"/><path d="M103.393,40.688c0.245,0.556 0.895,0.808 1.451,0.562c0.556,-0.244 0.808,-0.894 0.563,-1.45c-0.246,-0.556 -0.895,-0.808 -1.451,-0.562c-0.556,0.245 -0.808,0.894 -0.563,1.45" style="fill:#595959;fill-rule:nonzero;"/><path d="M104.565,43.345c0.245,0.556 0.894,0.808 1.45,0.563c0.556,-0.245 0.808,-0.894 0.563,-1.45c-0.245,-0.556 -0.895,-0.808 -1.45,-0.563c-0.556,0.245 -0.808,0.894 -0.563,1.45" style="fill:#595959;fill-rule:nonzero;"/><path d="M105.736,46.003c0.245,0.556 0.894,0.808 1.45,0.563c0.556,-0.245 0.808,-0.894 0.563,-1.45c-0.245,-0.557 -0.894,-0.809 -1.45,-0.564c-0.556,0.246 -0.808,0.895 -0.563,1.451" style="fill:#595959;fill-rule:nonzero;"/><path d="M107.014,48.902c0.245,0.556 0.894,0.808 1.45,0.563c0.556,-0.245 0.808,-0.895 0.563,-1.45c-0.245,-0.556 -0.894,-0.808 -1.45,-0.563c-0.556,0.245 -0.808,0.894 -0.563,1.45" style="fill:#595959;fill-rule:nonzero;"/><path d="M108.185,51.56c0.245,0.555 0.895,0.808 1.451,0.562c0.555,-0.245 0.807,-0.894 0.563,-1.45c-0.246,-0.556 -0.895,-0.808 -1.451,-0.563c-0.556,0.245 -0.808,0.895 -0.563,1.451" style="fill:#595959;fill-rule:nonzero;"/><path d="M40.062,61.966c0.245,0.556 0.894,0.808 1.45,0.562c0.556,-0.245 0.808,-0.893 0.563,-1.45c-0.245,-0.556 -0.894,-0.808 -1.45,-0.563c-0.556,0.246 -0.808,0.895 -0.563,1.451" style="fill:#c4c4c4;fill-rule:nonzero;"/><path d="M41.233,64.623c0.245,0.556 0.894,0.808 1.45,0.563c0.556,-0.245 0.808,-0.894 0.564,-1.45c-0.246,-0.556 -0.895,-0.808 -1.451,-0.563c-0.556,0.245 -0.808,0.894 -0.563,1.45" style="fill:#c4c4c4;fill-rule:nonzero;"/><path d="M42.405,67.281c0.245,0.556 0.894,0.808 1.45,0.563c0.556,-0.245 0.808,-0.895 0.563,-1.45c-0.245,-0.557 -0.895,-0.809 -1.45,-0.564c-0.557,0.246 -0.809,0.895 -0.563,1.451" style="fill:#c4c4c4;fill-rule:nonzero;"/><path d="M43.576,69.939c0.245,0.555 0.894,0.807 1.45,0.562c0.556,-0.245 0.808,-0.894 0.563,-1.45c-0.245,-0.556 -0.894,-0.808 -1.45,-0.563c-0.556,0.245 -0.808,0.895 -0.563,1.451" style="fill:#c4c4c4;fill-rule:nonzero;"/><path d="M44.747,72.596c0.245,0.556 0.895,0.808 1.451,0.563c0.556,-0.245 0.807,-0.895 0.563,-1.45c-0.246,-0.556 -0.895,-0.808 -1.451,-0.563c-0.556,0.245 -0.808,0.894 -0.563,1.45" style="fill:#c4c4c4;fill-rule:nonzero;"/><path d="M46.025,75.495c0.245,0.556 0.894,0.808 1.45,0.563c0.556,-0.245 0.808,-0.894 0.564,-1.45c-0.246,-0.556 -0.895,-0.808 -1.451,-0.563c-0.556,0.245 -0.808,0.894 -0.563,1.45" style="fill:#c4c4c4;fill-rule:nonzero;"/><path d="M109.357,54.217c0.245,0.556 0.894,0.808 1.45,0.563c0.556,-0.245 0.808,-0.894 0.563,-1.45c-0.245,-0.556 -0.895,-0.808 -1.45,-0.563c-0.557,0.245 -0.808,0.894 -0.563,1.45" style="fill:#595959;fill-rule:nonzero;"/><path d="M110.528,56.875c0.245,0.555 0.894,0.808 1.45,0.563c0.556,-0.245 0.808,-0.895 0.563,-1.45c-0.245,-0.557 -0.894,-0.809 -1.45,-0.564c-0.556,0.246 -0.808,0.895 -0.563,1.451" style="fill:#595959;fill-rule:nonzero;"/><path d="M111.699,59.532c0.245,0.556 0.895,0.808 1.451,0.563c0.556,-0.245 0.808,-0.894 0.563,-1.45c-0.246,-0.556 -0.895,-0.808 -1.451,-0.563c-0.556,0.245 -0.808,0.894 -0.563,1.45" style="fill:#595959;fill-rule:nonzero;"/><path d="M70.556,46.492c-1.014,-0.67 -4.263,-1.005 -3.583,-6.498c5.195,-3.516 11.951,-1.361 13.451,2.042c0.005,0.011 -1.266,0.92 -2.179,2.583c-1.843,3.353 -6.892,3.676 -6.884,3.695l-0.805,-1.822Z" style="fill:#b5b4b4;fill-rule:nonzero;"/><path d="M1.749,83.635c2.747,-0.732 8.469,-3.932 14.477,-6.58c6.009,-2.649 10.399,-3.897 9.896,-5.039c-0.504,-1.143 -1.026,-2.059 -7.034,0.589c-6.009,2.648 -18.545,11.352 -17.339,11.03" style="fill:#a39f9f;fill-rule:nonzero;"/><path d="M93.766,19.55l-2.245,0.074l1.01,30.768l2.244,-0.074l-1.009,-30.768Z" style="fill:#7f7f7f;"/><path d="M78.791,24.82l-2.244,0.073l1.072,32.677l2.243,-0.074l-1.071,-32.676Z" style="fill:#7f7f7f;"/><path d="M59.033,69.93c4.97,-1.325 15.326,-7.116 26.201,-11.909c10.874,-4.793 18.82,-7.052 17.909,-9.12c-0.912,-2.068 -1.856,-3.726 -12.73,1.067c-10.875,4.793 -33.564,20.544 -31.38,19.962" style="fill:#a39f9f;fill-rule:nonzero;"/><path d="M58.419,36.298c4.97,-1.325 15.327,-7.116 26.201,-11.909c10.875,-4.793 18.82,-7.052 17.909,-9.12c-0.912,-2.068 -1.856,-3.726 -12.73,1.067c-10.875,4.793 -33.564,20.544 -31.38,19.962" style="fill:#7c7c7c;fill-rule:nonzero;"/><path d="M90.86,85.188c1.456,3.302 5.313,4.799 8.615,3.344c3.303,-1.456 4.8,-5.313 3.344,-8.615c-1.455,-3.303 -5.312,-4.8 -8.615,-3.344c-3.302,1.455 -4.8,5.312 -3.344,8.615" style="fill:#6c6c6c;fill-rule:nonzero;"/><path d="M93.095,84.203c0.912,2.068 3.327,3.005 5.395,2.094c2.068,-0.912 3.006,-3.327 2.095,-5.395c-0.912,-2.068 -3.328,-3.006 -5.396,-2.095c-2.068,0.912 -3.006,3.328 -2.094,5.396" style="fill:#7f7f7f;fill-rule:nonzero;"/><path d="M83.819,89.172c2.922,0.141 7.739,-4.006 13.338,-6.474c5.598,-2.467 10.209,-2.448 8.706,-5.859c-1.504,-3.412 -2.859,-6.237 -8.457,-3.769c-5.598,2.467 -14.87,16.04 -13.587,16.102" style="fill:#7c7c7c;fill-rule:nonzero;"/></g><g id="balaa"><path d="M118.119,118.385c0,0.033 0,0.067 0,0.1c0,9.101 -7.489,16.59 -16.59,16.59c-9.101,0 -16.59,-7.489 -16.59,-16.59c0,-0.033 0,-0.067 0,-0.1c0,-0.034 0,-0.068 0,-0.101c0,-9.101 7.489,-16.59 16.59,-16.59c9.101,0 16.59,7.489 16.59,16.59c0,0.033 0,0.067 0,0.101Z" style="fill:#a39f9f;"/><path d="M90.307,130.621c-0.406,-0.338 -0.698,-0.689 -1.041,-1.053c1.678,0.028 2.921,-0.394 4.435,-1.439c1.266,-0.798 2.912,-5.503 2.279,-9.768c-0.413,-3.659 -1.161,-2.963 -2.045,-8.477c-0.385,-2.119 0.009,-5.049 2.926,-7.415c0.797,-0.226 1.124,-0.311 2.429,-0.524c-4.856,3.301 -4.317,6.013 -4.003,8.131c0.165,2.999 1.776,4.531 2.189,8.334c0.632,4.409 -1.348,9.727 -2.614,10.525c-1.513,1.045 -2.876,1.713 -4.555,1.686l0,0Z" style="fill:#f7f7f7;"/><path d="M114.561,108.108c0.41,0.475 0.637,0.794 0.994,1.373c0.356,4.184 0.504,7.745 -0.491,11.201c-1.321,3.737 -4.148,8.149 -3.808,9.341c-0.032,0.575 -0.064,1.176 0.216,1.725c-0.312,0.144 -0.597,0.391 -0.909,0.535c-0.177,-0.649 -0.225,-1.349 -0.169,-1.972c0.323,-2.367 1.217,-4.164 2.371,-6.323c0.731,-1.461 1.15,-2.922 1.724,-4.383c0.699,-2.171 0.671,-5.692 0.072,-11.497l0,0Z" style="fill:#f7f7f7;"/></g><path d="M38.45,104.916c-0.161,-0.373 -0.014,-0.828 0.361,-1.057l6.892,-4.205c0.485,-0.877 1.257,-2.404 -4.138,-2.593c-2.574,-0.091 -1.214,-5.386 1.726,-7.181c2.941,-1.794 7.241,0.013 5.842,3.454c-1.574,3.871 -0.073,3.839 1.186,3.504l6.291,-3.838c0.409,-0.249 0.932,-0.137 1.168,0.251l4.326,7.09c-0.102,0.63 -0.728,1.052 -2.944,0.388c-2.679,-0.802 -4.42,2.486 -3.17,4.534c1.249,2.047 5.425,2.698 5.668,0.795c0.4,-3.12 1.208,-3.513 1.864,-3.393l4.462,7.312c0.236,0.388 0.097,0.904 -0.311,1.153l-17.799,10.861c-0.013,0.007 -0.026,0.014 -0.039,0.021l-0.161,0.1c-0.361,0.223 -0.842,0.102 -1.073,-0.272l-3.893,-6.31c-0.816,-0.436 -2.474,-2.47 -2.666,2.514c-0.091,2.376 -4.775,2.526 -6.436,-0.166c-1.661,-2.692 -0.18,-7.571 3.018,-6.322c3.598,1.404 3.471,0.393 3.163,-0.766l-3.241,-5.247c-0.122,-0.196 -0.15,-0.423 -0.096,-0.627Z" style="fill:#7c7c7c;"/></g></svg>
