<?xml version="1.0" encoding="UTF-8" standalone="no"?><!DOCTYPE svg PUBLIC "-//W3C//DTD SVG 1.1//EN" "http://www.w3.org/Graphics/SVG/1.1/DTD/svg11.dtd"><svg width="100%" height="100%" viewBox="0 0 136 101" version="1.1" xmlns="http://www.w3.org/2000/svg" xmlns:xlink="http://www.w3.org/1999/xlink" xml:space="preserve" xmlns:serif="http://www.serif.com/" style="fill-rule:evenodd;clip-rule:evenodd;stroke-linejoin:round;stroke-miterlimit:1.41421;"><g id="games"><g><path d="M34.069,30.911c-2.825,0 -5.575,-0.295 -8.196,-0.849c-0.012,1.043 -0.107,1.176 1.062,1.547c3.884,1.228 9.832,1.28 13.907,0.247c1.52,-0.384 1.441,-0.51 1.416,-1.791c-2.618,0.551 -5.364,0.846 -8.189,0.846Zm-6.51,-9.135c0.046,0.073 0.092,0.143 0.152,0.226c0.8,1.088 0.887,1.686 -0.314,2.778c-0.964,0.881 -1.545,1.475 -1.536,3.042l0.007,0.752c0.052,0.053 0.126,0.098 0.209,0.141c2.553,0.545 5.23,0.834 7.992,0.834c2.83,0 5.575,-0.306 8.186,-0.877l0,-0.456c0,-1.714 -0.51,-2.407 -1.577,-3.423c-1.1,-1.048 -1.16,-1.606 -0.204,-2.664c0.119,-0.132 0.204,-0.256 0.267,-0.374c-2.163,0.306 -4.39,0.472 -6.672,0.472c-2.223,0 -4.397,-0.158 -6.51,-0.451Zm10.053,-12.626c1.958,0 2.613,9.292 2.613,9.292c0,1.367 -0.655,2.477 -2.613,2.477l-7.091,0c-1.957,0 -2.613,-1.11 -2.613,-2.477c0,0 0.656,-9.292 2.613,-9.292l7.091,0Zm2.339,-7.203c-0.561,2.452 -0.643,4.178 -0.024,6.375c-3.851,-0.321 -7.767,-0.324 -11.744,-0.028c0.821,-2.283 0.756,-3.987 0.027,-6.347l1.871,0l0,1.719l1.418,0l0,-1.719l1.872,0l0,1.719l1.418,0l0,-1.719l1.872,0l0,1.719l1.418,0l0,-1.719l1.872,0Z" style="fill:#a39f9f;"/><path d="M7.514,25.777c0.051,0.081 0.102,0.158 0.168,0.25c0.883,1.202 0.98,1.862 -0.347,3.068c-1.064,0.972 -1.706,1.629 -1.696,3.359l0.008,0.83c0.058,0.06 0.139,0.108 0.231,0.156c2.819,0.603 5.775,0.921 8.826,0.921c3.125,0 6.156,-0.338 9.04,-0.969l0,-0.502c0,-1.894 -0.563,-2.659 -1.742,-3.781c-1.216,-1.157 -1.281,-1.774 -0.225,-2.942c0.131,-0.146 0.225,-0.282 0.294,-0.413c-2.388,0.338 -4.848,0.521 -7.367,0.521c-2.456,0 -4.856,-0.174 -7.19,-0.498m7.19,10.088c-3.12,0 -6.157,-0.325 -9.052,-0.938c-0.013,1.152 -0.118,1.299 1.174,1.709c4.288,1.356 10.857,1.414 15.357,0.273c1.678,-0.424 1.591,-0.563 1.563,-1.978c-2.89,0.609 -5.923,0.934 -9.042,0.934m8.722,-12.991c-0.04,0.543 -0.106,0.925 -0.344,1.209c-2.699,0.447 -5.497,0.691 -8.378,0.691c-2.749,0 -5.425,-0.22 -8.009,-0.628c-0.121,-0.203 -0.094,-0.435 0.009,-0.703c0.276,-0.706 1.095,-1.58 1.643,-2.252l4.271,-5.171c0.909,-1.099 2.011,-2.161 0.604,-2.674c-0.572,-0.204 -1.153,-0.364 -1.737,-0.541c-1.052,-0.322 -1.814,-0.573 -2.93,-0.573c-0.043,1.074 -0.097,1.161 -0.695,1.082c-0.884,-0.12 -1.321,-0.489 -1.664,-1.082c-0.483,-0.824 -0.528,-1.624 -0.544,-2.507c-0.026,-1.219 1.27,-1.283 2.172,-1.93c1.229,-0.887 2.325,-2.109 3.263,-3.385c0.474,-0.648 0.824,-1.484 1.528,-1.898c0.367,-0.218 0.507,-0.086 1.174,0.228l1.084,0.522l-0.075,-2.953c0.739,-0.246 0.919,-0.18 1.632,0.203c1.085,0.591 2.004,1.422 2.928,2.264l-0.224,0.749l0.859,-0.228l0.378,0.374c3.093,3.097 3.431,8.253 3.395,12.372c-0.02,2.267 -0.17,4.522 -0.34,6.831" style="fill:#a39f9f;fill-rule:nonzero;"/></g><g><path d="M70.219,38.752c-0.264,-0.25 -0.262,-0.683 0.005,-0.965c0.268,-0.282 0.699,-0.308 0.964,-0.057c0.223,0.211 0.254,0.551 0.099,0.821l3.051,2.891l-0.272,0.288l-3.061,-2.9c-0.256,0.144 -0.574,0.123 -0.786,-0.078" style="fill:#514040;fill-rule:nonzero;"/><path d="M56.9,43.131c-0.858,-2.532 -0.273,-5.37 1.478,-5.612c1.065,-0.147 2.516,0.133 3.374,2.665c0,0 2.134,5.69 0.505,6.242l-0.772,0.262c-1.674,0.567 -3.727,-1.025 -4.585,-3.557" style="fill:#a39f9f;fill-rule:nonzero;"/><path d="M95.972,54.766l-2.242,-0.125l-0.985,17.662l2.242,0.125l0.985,-17.662Z" style="fill:#7f7f7f;"/><path d="M7.755,43.683c5.274,-1.788 11.889,2.084 14.694,8.288l34.071,-11.776l0.606,1.788c0.44,1.297 1.801,2.024 3.125,1.715l10.716,-3.455c1.4,-0.474 2.155,-1.979 1.687,-3.36l-0.444,-1.764l29.673,-10.256l9.944,29.339c0,0 -21.668,5.785 -58.549,8.713c-45.623,3.623 -48.774,1.477 -52.247,-7.661c-1.727,-4.543 1.45,-9.784 6.724,-11.571" style="fill:#006969;fill-rule:nonzero;"/><path d="M118.788,32.245c-0.405,-1.197 1.617,-2.963 4.517,-3.946c0.455,-0.155 0.904,-0.277 1.341,-0.375c-1.214,-2.003 -13.004,-21.714 -8.007,-23.755c5.084,-2.077 7.83,21.421 8.088,23.737c2.307,-0.501 4.225,-0.217 4.563,0.78c0.338,0.997 -1.012,2.389 -3.148,3.394c1.202,1.994 13.31,22.321 8.011,23.763c-5.208,1.418 -7.833,-21.401 -8.087,-23.728c-0.406,0.188 -0.837,0.363 -1.292,0.518c-2.9,0.983 -5.58,0.809 -5.986,-0.388" style="fill:#939393;fill-rule:nonzero;"/><path d="M124.623,30.268c0.951,2.808 -0.553,5.856 -3.361,6.808l-3.751,1.271c-2.808,0.952 -5.856,-0.553 -6.808,-3.361c-0.952,-2.808 0.553,-5.856 3.361,-6.808l3.751,-1.271c2.808,-0.952 5.856,0.553 6.808,3.361" style="fill:#006969;fill-rule:nonzero;"/><path d="M101.911,24.947l5.21,-1.766c5.224,-1.771 5.784,-2.535 7.555,2.69l6.385,18.837c1.77,5.225 1.45,5.873 -3.775,7.644l-5.46,1.851l-9.915,-29.256Z" style="fill:#a39f9f;fill-rule:nonzero;"/><path d="M103.437,26.706c0.195,0.575 0.819,0.884 1.395,0.689c0.575,-0.195 0.883,-0.82 0.688,-1.395c-0.195,-0.576 -0.819,-0.884 -1.394,-0.689c-0.576,0.195 -0.884,0.82 -0.689,1.395" style="fill:#595959;fill-rule:nonzero;"/><path d="M104.369,29.457c0.195,0.575 0.819,0.884 1.395,0.688c0.575,-0.195 0.884,-0.819 0.689,-1.394c-0.196,-0.576 -0.82,-0.884 -1.395,-0.689c-0.576,0.195 -0.884,0.819 -0.689,1.395" style="fill:#595959;fill-rule:nonzero;"/><path d="M105.301,32.207c0.195,0.576 0.82,0.884 1.395,0.689c0.575,-0.195 0.884,-0.819 0.689,-1.395c-0.195,-0.575 -0.82,-0.884 -1.395,-0.688c-0.576,0.194 -0.884,0.819 -0.689,1.394" style="fill:#595959;fill-rule:nonzero;"/><path d="M106.233,34.958c0.195,0.575 0.82,0.884 1.395,0.689c0.576,-0.195 0.884,-0.82 0.689,-1.395c-0.195,-0.576 -0.82,-0.884 -1.395,-0.689c-0.575,0.195 -0.884,0.82 -0.689,1.395" style="fill:#595959;fill-rule:nonzero;"/><path d="M107.166,37.709c0.195,0.575 0.819,0.883 1.395,0.688c0.575,-0.195 0.883,-0.819 0.688,-1.394c-0.195,-0.576 -0.819,-0.885 -1.395,-0.69c-0.575,0.196 -0.883,0.82 -0.688,1.396" style="fill:#595959;fill-rule:nonzero;"/><path d="M108.183,40.709c0.195,0.575 0.819,0.884 1.395,0.689c0.575,-0.195 0.883,-0.82 0.688,-1.395c-0.195,-0.575 -0.819,-0.884 -1.395,-0.689c-0.575,0.195 -0.883,0.82 -0.688,1.395" style="fill:#595959;fill-rule:nonzero;"/><path d="M109.115,43.46c0.195,0.575 0.819,0.883 1.395,0.688c0.575,-0.195 0.883,-0.819 0.689,-1.394c-0.196,-0.576 -0.82,-0.884 -1.395,-0.689c-0.576,0.195 -0.884,0.819 -0.689,1.395" style="fill:#595959;fill-rule:nonzero;"/><path d="M40.339,47.813c0.195,0.575 0.819,0.883 1.395,0.688c0.575,-0.195 0.884,-0.819 0.689,-1.394c-0.195,-0.576 -0.82,-0.884 -1.395,-0.689c-0.576,0.195 -0.884,0.82 -0.689,1.395" style="fill:#c4c4c4;fill-rule:nonzero;"/><path d="M41.271,50.563c0.195,0.576 0.819,0.884 1.395,0.689c0.575,-0.195 0.884,-0.819 0.689,-1.395c-0.195,-0.575 -0.82,-0.884 -1.395,-0.689c-0.576,0.195 -0.884,0.82 -0.689,1.395" style="fill:#c4c4c4;fill-rule:nonzero;"/><path d="M42.203,53.314c0.195,0.575 0.82,0.884 1.395,0.689c0.576,-0.195 0.884,-0.82 0.689,-1.395c-0.195,-0.576 -0.82,-0.884 -1.395,-0.689c-0.575,0.195 -0.884,0.819 -0.689,1.395" style="fill:#c4c4c4;fill-rule:nonzero;"/><path d="M43.136,56.065c0.195,0.575 0.819,0.883 1.395,0.688c0.575,-0.195 0.883,-0.819 0.688,-1.394c-0.195,-0.576 -0.819,-0.885 -1.395,-0.69c-0.575,0.196 -0.884,0.82 -0.688,1.396" style="fill:#c4c4c4;fill-rule:nonzero;"/><path d="M44.068,58.815c0.195,0.575 0.819,0.884 1.395,0.689c0.575,-0.195 0.883,-0.82 0.688,-1.395c-0.195,-0.576 -0.819,-0.884 -1.394,-0.689c-0.576,0.195 -0.884,0.82 -0.689,1.395" style="fill:#c4c4c4;fill-rule:nonzero;"/><path d="M45.085,61.816c0.195,0.575 0.819,0.883 1.395,0.688c0.575,-0.195 0.883,-0.819 0.689,-1.394c-0.196,-0.576 -0.82,-0.884 -1.396,-0.69c-0.575,0.196 -0.883,0.82 -0.688,1.396" style="fill:#c4c4c4;fill-rule:nonzero;"/><path d="M110.047,46.21c0.195,0.576 0.82,0.884 1.395,0.689c0.575,-0.195 0.884,-0.819 0.689,-1.395c-0.195,-0.576 -0.82,-0.884 -1.395,-0.689c-0.576,0.195 -0.884,0.82 -0.689,1.395" style="fill:#595959;fill-rule:nonzero;"/><path d="M110.979,48.961c0.195,0.575 0.82,0.883 1.395,0.689c0.576,-0.195 0.884,-0.82 0.689,-1.395c-0.195,-0.576 -0.82,-0.884 -1.395,-0.689c-0.575,0.195 -0.884,0.819 -0.689,1.395" style="fill:#595959;fill-rule:nonzero;"/><path d="M111.912,51.712c0.195,0.575 0.819,0.883 1.395,0.688c0.575,-0.195 0.883,-0.819 0.688,-1.395c-0.195,-0.575 -0.819,-0.883 -1.395,-0.688c-0.575,0.195 -0.883,0.819 -0.688,1.395" style="fill:#595959;fill-rule:nonzero;"/><path d="M72.08,35.09c-0.951,-0.756 -4.158,-1.376 -2.996,-6.789c5.485,-3.043 12.025,-0.3 13.219,3.222c0.004,0.012 -1.342,0.805 -2.399,2.381c-2.132,3.177 -7.189,3.053 -7.183,3.073l-0.641,-1.887Z" style="fill:#b5b4b4;fill-rule:nonzero;"/><path d="M0.263,66.016c2.8,-0.487 8.783,-3.169 15.002,-5.277c6.219,-2.108 10.702,-2.963 10.301,-4.146c-0.401,-1.183 -0.84,-2.141 -7.058,-0.034c-6.219,2.108 -19.475,9.671 -18.245,9.457" style="fill:#a39f9f;fill-rule:nonzero;"/><path d="M97.577,10.303l-2.243,-0.125l-1.709,30.737l2.242,0.125l1.71,-30.737Z" style="fill:#7f7f7f;"/><path d="M82.196,14.23l-2.242,-0.125l-1.817,32.644l2.242,0.125l1.817,-32.644Z" style="fill:#7f7f7f;"/><path d="M58.533,57.42c5.068,-0.881 15.894,-5.735 27.15,-9.55c11.255,-3.815 19.369,-5.363 18.643,-7.503c-0.725,-2.141 -1.519,-3.876 -12.774,-0.061c-11.255,3.814 -35.246,17.502 -33.019,17.114" style="fill:#a39f9f;fill-rule:nonzero;"/><path d="M60.89,23.866c5.068,-0.882 15.895,-5.736 27.15,-9.551c11.255,-3.814 19.369,-5.363 18.644,-7.503c-0.726,-2.141 -1.52,-3.876 -12.775,-0.061c-11.255,3.814 -35.246,17.502 -33.019,17.115" style="fill:#26a69a;fill-rule:nonzero;"/><path d="M88.889,75.428c1.159,3.418 4.869,5.249 8.287,4.091c3.418,-1.158 5.25,-4.868 4.091,-8.286c-1.158,-3.418 -4.868,-5.25 -8.286,-4.092c-3.418,1.159 -5.25,4.869 -4.092,8.287" style="fill:#6c6c6c;fill-rule:nonzero;"/><path d="M91.202,74.644c0.726,2.14 3.049,3.287 5.19,2.562c2.14,-0.726 3.288,-3.049 2.562,-5.189c-0.726,-2.141 -3.049,-3.288 -5.189,-2.563c-2.141,0.726 -3.288,3.049 -2.563,5.19" style="fill:#7f7f7f;fill-rule:nonzero;"/><path d="M81.524,78.775c2.898,0.398 8.063,-3.307 13.857,-5.271c5.794,-1.964 10.386,-1.538 9.189,-5.069c-1.197,-3.531 -2.297,-6.464 -8.091,-4.5c-5.794,1.963 -16.228,14.665 -14.955,14.84" style="fill:#26a69a;fill-rule:nonzero;"/></g><g><path d="M71.594,84.805c0,0.031 0,0.063 0,0.094c0,8.408 -6.919,15.327 -15.328,15.327c-8.408,0 -15.327,-6.919 -15.327,-15.327c0,-0.031 0,-0.063 0,-0.094c0,-0.031 0,-0.062 0,-0.093c0,-8.408 6.919,-15.327 15.327,-15.327c8.409,0 15.328,6.919 15.328,15.327c0,0.031 0,0.062 0,0.093Z" style="fill:#006969;"/><path d="M45.898,96.111c-0.375,-0.313 -0.645,-0.637 -0.961,-0.973c1.55,0.025 2.699,-0.364 4.097,-1.33c1.17,-0.737 2.691,-5.084 2.106,-9.024c-0.381,-3.381 -1.073,-2.738 -1.89,-7.833c-0.355,-1.957 0.009,-4.664 2.704,-6.85c0.736,-0.208 1.038,-0.288 2.244,-0.484c-4.487,3.049 -3.988,5.555 -3.699,7.512c0.153,2.771 1.641,4.186 2.023,7.7c0.584,4.073 -1.246,8.987 -2.415,9.724c-1.398,0.966 -2.658,1.583 -4.208,1.558l-0.001,0Z" style="fill:#f7f7f7;"/><path d="M68.307,75.311c0.378,0.439 0.589,0.734 0.919,1.269c0.328,3.865 0.465,7.155 -0.454,10.349c-1.221,3.452 -3.833,7.528 -3.519,8.63c-0.029,0.531 -0.059,1.086 0.2,1.593c-0.288,0.133 -0.552,0.361 -0.839,0.494c-0.165,-0.599 -0.209,-1.246 -0.157,-1.822c0.298,-2.187 1.125,-3.846 2.191,-5.842c0.675,-1.349 1.062,-2.699 1.593,-4.049c0.646,-2.006 0.62,-5.259 0.066,-10.622l0,0Z" style="fill:#f7f7f7;"/></g></g></svg>
