<?xml version="1.0" encoding="UTF-8" standalone="no"?><!DOCTYPE svg PUBLIC "-//W3C//DTD SVG 1.1//EN" "http://www.w3.org/Graphics/SVG/1.1/DTD/svg11.dtd"><svg width="100%" height="100%" viewBox="0 0 100 100" version="1.1" xmlns="http://www.w3.org/2000/svg" xmlns:xlink="http://www.w3.org/1999/xlink" xml:space="preserve" style="fill-rule:evenodd;clip-rule:evenodd;stroke-linecap:round;stroke-linejoin:round;stroke-miterlimit:1;"><g id="paixnidia"><path id="puzzle" d="M40.692,42.008c-0.241,-0.557 -0.02,-1.236 0.54,-1.578l10.296,-6.282c0.724,-1.311 1.878,-3.592 -6.182,-3.875c-3.845,-0.135 -1.813,-8.047 2.579,-10.728c4.393,-2.68 10.817,0.019 8.727,5.16c-2.351,5.783 -0.109,5.735 1.773,5.235l9.398,-5.734c0.611,-0.372 1.392,-0.204 1.745,0.375l6.463,10.592c-0.152,0.942 -1.087,1.572 -4.399,0.58c-4.001,-1.198 -6.602,3.715 -4.735,6.774c1.866,3.059 8.104,4.031 8.468,1.188c0.597,-4.662 1.805,-5.249 2.785,-5.069l6.665,10.924c0.353,0.579 0.145,1.351 -0.464,1.723l-26.592,16.225c-0.019,0.011 -0.038,0.022 -0.057,0.032l-0.242,0.15c-0.539,0.333 -1.257,0.151 -1.602,-0.407l-5.817,-9.427c-1.218,-0.652 -3.696,-3.69 -3.982,3.755c-0.137,3.551 -7.134,3.775 -9.616,-0.247c-2.481,-4.022 -0.269,-11.311 4.509,-9.446c5.375,2.098 5.186,0.588 4.725,-1.143l-4.842,-7.839c-0.181,-0.294 -0.223,-0.633 -0.143,-0.938Z" style="fill:none;"/><clipPath id="_clip1"><path d="M40.692,42.008c-0.241,-0.557 -0.02,-1.236 0.54,-1.578l10.296,-6.282c0.724,-1.311 1.878,-3.592 -6.182,-3.875c-3.845,-0.135 -1.813,-8.047 2.579,-10.728c4.393,-2.68 10.817,0.019 8.727,5.16c-2.351,5.783 -0.109,5.735 1.773,5.235l9.398,-5.734c0.611,-0.372 1.392,-0.204 1.745,0.375l6.463,10.592c-0.152,0.942 -1.087,1.572 -4.399,0.58c-4.001,-1.198 -6.602,3.715 -4.735,6.774c1.866,3.059 8.104,4.031 8.468,1.188c0.597,-4.662 1.805,-5.249 2.785,-5.069l6.665,10.924c0.353,0.579 0.145,1.351 -0.464,1.723l-26.592,16.225c-0.019,0.011 -0.038,0.022 -0.057,0.032l-0.242,0.15c-0.539,0.333 -1.257,0.151 -1.602,-0.407l-5.817,-9.427c-1.218,-0.652 -3.696,-3.69 -3.982,3.755c-0.137,3.551 -7.134,3.775 -9.616,-0.247c-2.481,-4.022 -0.269,-11.311 4.509,-9.446c5.375,2.098 5.186,0.588 4.725,-1.143l-4.842,-7.839c-0.181,-0.294 -0.223,-0.633 -0.143,-0.938Z"/></clipPath><g clip-path="url(#_clip1)"><g id="chess"><path d="M86.795,53.082l5.744,-3.459l-3.282,-5.458l-5.744,3.459l3.282,5.458Z" style="fill:#4b4949;"/><path d="M73.637,31.199l5.744,-3.459l-3.282,-5.458l-5.744,3.458l3.282,5.459Z" style="fill:#4b4949;"/><path d="M80.217,42.147l5.744,-3.459l-3.283,-5.458l-5.744,3.458l3.283,5.459Z" style="fill:#4b4949;"/><path d="M67.058,20.264l5.744,-3.459l-3.282,-5.459l-5.744,3.459l3.282,5.459Z" style="fill:#4b4949;"/><path d="M77.769,51.082l5.744,-3.458l-3.282,-5.459l-5.744,3.459l3.282,5.458Z" style="fill:#4b4949;"/><path d="M64.611,29.199l5.744,-3.459l-3.282,-5.458l-5.744,3.459l3.282,5.458Z" style="fill:#4b4949;"/><path d="M71.191,40.147l5.743,-3.459l-3.282,-5.458l-5.744,3.459l3.283,5.458Z" style="fill:#4b4949;"/><path d="M58.032,18.264l5.744,-3.459l-3.282,-5.458l-5.744,3.458l3.282,5.459Z" style="fill:#4b4949;"/><path d="M66.281,58l5.744,-3.459l-3.282,-5.459l-5.744,3.459l3.282,5.459Z" style="fill:#4b4949;"/><path d="M53.123,36.116l5.744,-3.458l-3.282,-5.459l-5.744,3.459l3.282,5.458Z" style="fill:#4b4949;"/><path d="M59.703,47.064l5.744,-3.458l-3.282,-5.459l-5.744,3.459l3.282,5.458Z" style="fill:#4b4949;"/><path d="M46.545,25.181l5.743,-3.458l-3.282,-5.459l-5.744,3.459l3.283,5.458Z" style="fill:#4b4949;"/><path d="M54.794,64.917l5.744,-3.459l-3.283,-5.458l-5.744,3.459l3.283,5.458Z" style="fill:#4b4949;"/><path d="M41.635,43.034l5.744,-3.459l-3.282,-5.458l-5.744,3.458l3.282,5.459Z" style="fill:#4b4949;"/><path d="M48.215,53.982l5.744,-3.459l-3.282,-5.458l-5.744,3.458l3.282,5.459Z" style="fill:#4b4949;"/><path d="M35.057,32.099l5.744,-3.459l-3.283,-5.459l-5.743,3.459l3.282,5.459Z" style="fill:#4b4949;"/><path d="M43.306,71.835l5.744,-3.459l-3.282,-5.459l-5.744,3.459l3.282,5.459Z" style="fill:#4b4949;"/><path d="M30.148,49.951l5.744,-3.458l-3.283,-5.459l-5.744,3.459l3.283,5.458Z" style="fill:#4b4949;"/><path d="M36.727,60.899l5.744,-3.458l-3.282,-5.459l-5.744,3.459l3.282,5.458Z" style="fill:#4b4949;"/><path d="M23.569,39.016l5.744,-3.459l-3.282,-5.458l-5.744,3.459l3.282,5.458Z" style="fill:#4b4949;"/><path d="M75.308,59.999l5.743,-3.458l-3.282,-5.459l-5.744,3.459l3.283,5.458Z" style="fill:#4b4949;"/><path d="M62.149,38.116l5.744,-3.458l-3.282,-5.459l-5.744,3.459l3.282,5.458Z" style="fill:#4b4949;"/><path d="M68.729,49.064l5.744,-3.458l-3.282,-5.459l-5.744,3.459l3.282,5.458Z" style="fill:#4b4949;"/><path d="M55.571,27.181l5.744,-3.459l-3.283,-5.458l-5.744,3.459l3.283,5.458Z" style="fill:#4b4949;"/><path d="M63.82,66.917l5.744,-3.459l-3.283,-5.458l-5.743,3.458l3.282,5.459Z" style="fill:#4b4949;"/><path d="M50.662,45.034l5.743,-3.459l-3.282,-5.459l-5.744,3.459l3.283,5.459Z" style="fill:#4b4949;"/><path d="M57.241,55.982l5.744,-3.459l-3.282,-5.459l-5.744,3.459l3.282,5.459Z" style="fill:#4b4949;"/><path d="M44.083,34.098l5.744,-3.458l-3.282,-5.459l-5.744,3.459l3.282,5.458Z" style="fill:#4b4949;"/><path d="M52.332,73.834l5.744,-3.458l-3.282,-5.459l-5.744,3.459l3.282,5.458Z" style="fill:#4b4949;"/><path d="M39.174,51.951l5.744,-3.459l-3.283,-5.458l-5.743,3.459l3.282,5.458Z" style="fill:#4b4949;"/><path d="M45.753,62.899l5.744,-3.459l-3.282,-5.458l-5.744,3.459l3.282,5.458Z" style="fill:#4b4949;"/><path d="M32.595,41.016l5.744,-3.459l-3.282,-5.458l-5.744,3.458l3.282,5.459Z" style="fill:#4b4949;"/><path d="M81.051,56.541l5.744,-3.459l-3.282,-5.458l-5.744,3.458l3.282,5.459Z" style="fill:none;"/><path d="M67.893,34.658l5.744,-3.459l-3.282,-5.459l-5.744,3.459l3.282,5.459Z" style="fill:none;"/><path d="M74.473,45.606l5.744,-3.459l-3.283,-5.459l-5.743,3.459l3.282,5.459Z" style="fill:none;"/><path d="M61.315,23.722l5.743,-3.458l-3.282,-5.459l-5.744,3.459l3.283,5.458Z" style="fill:none;"/><path d="M83.513,47.624l5.744,-3.459l-3.282,-5.459l-5.744,3.459l3.282,5.459Z" style="fill:none;"/><path d="M70.355,25.74l5.744,-3.458l-3.282,-5.459l-5.744,3.459l3.282,5.458Z" style="fill:none;"/><path d="M76.934,36.688l5.744,-3.458l-3.282,-5.459l-5.744,3.459l3.282,5.458Z" style="fill:none;"/><path d="M63.776,14.805l5.744,-3.459l-3.282,-5.458l-5.744,3.459l3.282,5.458Z" style="fill:none;"/><path d="M72.025,54.541l5.744,-3.459l-3.282,-5.458l-5.744,3.458l3.282,5.459Z" style="fill:none;"/><path d="M58.867,32.658l5.744,-3.459l-3.282,-5.458l-5.744,3.458l3.282,5.459Z" style="fill:none;"/><path d="M65.447,43.606l5.744,-3.459l-3.283,-5.458l-5.743,3.458l3.282,5.459Z" style="fill:none;"/><path d="M52.288,21.723l5.744,-3.459l-3.282,-5.459l-5.744,3.459l3.282,5.459Z" style="fill:none;"/><path d="M60.538,61.458l5.743,-3.458l-3.282,-5.459l-5.744,3.459l3.283,5.458Z" style="fill:none;"/><path d="M47.379,39.575l5.744,-3.459l-3.282,-5.458l-5.744,3.459l3.282,5.458Z" style="fill:none;"/><path d="M53.959,50.523l5.744,-3.459l-3.282,-5.458l-5.744,3.459l3.282,5.458Z" style="fill:none;"/><path d="M40.801,28.64l5.744,-3.459l-3.283,-5.458l-5.744,3.458l3.283,5.459Z" style="fill:none;"/><path d="M49.05,68.376l5.744,-3.459l-3.283,-5.458l-5.743,3.458l3.282,5.459Z" style="fill:none;"/><path d="M35.892,46.493l5.743,-3.459l-3.282,-5.459l-5.744,3.459l3.283,5.459Z" style="fill:none;"/><path d="M42.471,57.441l5.744,-3.459l-3.282,-5.459l-5.744,3.459l3.282,5.459Z" style="fill:none;"/><path d="M29.313,35.557l5.744,-3.458l-3.282,-5.459l-5.744,3.459l3.282,5.458Z" style="fill:none;"/><path d="M69.564,63.458l5.744,-3.459l-3.283,-5.458l-5.744,3.459l3.283,5.458Z" style="fill:none;"/><path d="M56.405,41.575l5.744,-3.459l-3.282,-5.458l-5.744,3.458l3.282,5.459Z" style="fill:none;"/><path d="M62.985,52.523l5.744,-3.459l-3.282,-5.458l-5.744,3.458l3.282,5.459Z" style="fill:none;"/><path d="M49.827,30.64l5.744,-3.459l-3.283,-5.458l-5.743,3.458l3.282,5.459Z" style="fill:none;"/><path d="M58.076,70.376l5.744,-3.459l-3.282,-5.459l-5.744,3.459l3.282,5.459Z" style="fill:none;"/><path d="M44.918,48.492l5.744,-3.458l-3.283,-5.459l-5.744,3.459l3.283,5.458Z" style="fill:none;"/><path d="M51.497,59.44l5.744,-3.458l-3.282,-5.459l-5.744,3.459l3.282,5.458Z" style="fill:none;"/><path d="M38.339,37.557l5.744,-3.459l-3.282,-5.458l-5.744,3.459l3.282,5.458Z" style="fill:none;"/><path d="M46.588,77.293l5.744,-3.459l-3.282,-5.458l-5.744,3.459l3.282,5.458Z" style="fill:none;"/><path d="M33.43,55.41l5.744,-3.459l-3.282,-5.458l-5.744,3.458l3.282,5.459Z" style="fill:none;"/><path d="M40.009,66.358l5.744,-3.459l-3.282,-5.458l-5.744,3.458l3.282,5.459Z" style="fill:none;"/><path d="M26.851,44.475l5.744,-3.459l-3.282,-5.459l-5.744,3.459l3.282,5.459Z" style="fill:none;"/></g></g><path d="M40.692,42.008c-0.241,-0.557 -0.02,-1.236 0.54,-1.578l10.296,-6.282c0.724,-1.311 1.878,-3.592 -6.182,-3.875c-3.845,-0.135 -1.813,-8.047 2.579,-10.728c4.393,-2.68 10.817,0.019 8.727,5.16c-2.351,5.783 -0.109,5.735 1.773,5.235l9.398,-5.734c0.611,-0.372 1.392,-0.204 1.745,0.375l6.463,10.592c-0.152,0.942 -1.087,1.572 -4.399,0.58c-4.001,-1.198 -6.602,3.715 -4.735,6.774c1.866,3.059 8.104,4.031 8.468,1.188c0.597,-4.662 1.805,-5.249 2.785,-5.069l6.665,10.924c0.353,0.579 0.145,1.351 -0.464,1.723l-26.592,16.225c-0.019,0.011 -0.038,0.022 -0.057,0.032l-0.242,0.15c-0.539,0.333 -1.257,0.151 -1.602,-0.407l-5.817,-9.427c-1.218,-0.652 -3.696,-3.69 -3.982,3.755c-0.137,3.551 -7.134,3.775 -9.616,-0.247c-2.481,-4.022 -0.269,-11.311 4.509,-9.446c5.375,2.098 5.186,0.588 4.725,-1.143l-4.842,-7.839c-0.181,-0.294 -0.223,-0.633 -0.143,-0.938Z" style="fill:none;stroke:#4c4343;stroke-width:0.28px;"/><g id="car"><g id="rodes"><ellipse cx="49.608" cy="82.389" rx="2.229" ry="2.129" style="fill:none;stroke:#4c4343;stroke-width:1.65px;"/><ellipse cx="33.602" cy="82.389" rx="2.229" ry="2.129" style="fill:none;stroke:#4c4343;stroke-width:1.65px;"/><circle cx="33.602" cy="82.389" r="0.333" style="fill:#4c4343;"/><circle cx="49.608" cy="82.389" r="0.333" style="fill:#4c4343;"/></g><path d="M40.792,70.093c0.421,-0.056 0.533,1.233 0.57,1.516l1.27,2.482c-1.062,0.141 -1.575,0.372 -2.549,0.419l-0.138,-2.17l0.131,-0.613c-0.037,-0.283 -0.566,-1.134 -0.146,-1.19l0.862,-0.444Z" style="fill:#4c4343;"/><path d="M30.193,71.674c1.783,2.995 7.237,3.975 13.094,2.132c3.493,-1.1 3.77,-0.732 5.631,-2.848c4.789,1.47 11.615,2.141 11.271,6.302c-0.196,2.368 -0.655,3.713 -2.389,4.748l-4.492,0.766c0,-2.416 -1.67,-4.377 -3.728,-4.377c-2.057,0 -3.728,1.961 -3.728,4.377l-8.521,0c0,-2.416 -1.671,-4.377 -3.729,-4.377c-2.057,0 -3.728,1.961 -3.728,4.377l-2.182,-0.766c-1.735,-1.638 -1.392,-2.834 -1.392,-4.941c0,-1.974 -0.466,-3.82 1.073,-5.393l2.82,0Z" style="fill:none;stroke:#4c4343;stroke-width:0.32px;"/><path d="M45.528,71l-0.492,0.539c-0.07,0.078 -0.189,0.083 -0.266,0.013l-0.28,-0.255c-0.077,-0.07 -0.082,-0.19 -0.012,-0.267l1.233,-1.352c0.071,-0.077 0.19,-0.083 0.267,-0.012l0.279,0.254c0.077,0.07 0.083,0.19 0.013,0.267l-0.342,0.375l1.423,1.3l-0.4,0.438l-1.423,-1.3Z" style="fill:#4c4343;"/><ellipse cx="58.82" cy="77.254" rx="0.735" ry="1.234" style="fill:#4c4343;"/></g></g></svg>
