<?xml version="1.0" encoding="UTF-8" standalone="no"?>
<!DOCTYPE svg PUBLIC "-//W3C//DTD SVG 1.1//EN" "http://www.w3.org/Graphics/SVG/1.1/DTD/svg11.dtd">
<svg width="100%" height="100%" viewBox="0 0 100 100" version="1.1" xmlns="http://www.w3.org/2000/svg" xmlns:xlink="http://www.w3.org/1999/xlink" xml:space="preserve" style="fill-rule:evenodd;clip-rule:evenodd;stroke-linejoin:round;stroke-miterlimit:1.41421;">
    <g id="ggf">
        <path d="M58.724,10.79C60.556,11.402 62.297,12.327 63.849,13.591C64.625,14.227 65.334,14.948 65.962,15.737C67.38,17.306 68.459,19.198 69.073,21.246C69.899,23.976 69.864,27.002 68.884,29.713C68.404,31.058 67.718,32.362 66.791,33.503C66.563,33.787 66.319,34.058 66.047,34.339C65.817,34.573 65.544,34.832 65.268,35.071C64.714,35.548 64.116,35.973 63.49,36.342C62.256,37.073 60.865,37.612 59.454,37.908C58.024,38.188 56.698,38.253 55.28,38.105L54.959,40.652L53.717,51.193L53.848,49.46L53.694,50.685C53.518,52.853 53.363,55.045 53.241,57.355C53.401,57.62 53.561,57.886 53.719,58.151C61.489,70.346 66.835,82.388 64.384,89.046C60.722,98.993 51.019,88.477 51.683,72.937C51.897,67.955 52.38,62.392 52.922,56.912C47.655,48.807 41.399,40.713 35.729,34.164C35.697,34.44 35.665,34.714 35.633,34.985C35.363,39.499 35.633,43.835 36.426,51.942C37.755,65.541 41.57,67.694 43.992,64.473C46.312,59.307 46.615,48.562 40.916,41.255C40.844,41.164 40.772,41.072 40.698,40.981C40.772,41.072 40.844,41.163 40.916,41.255C47.724,49.944 46.78,60.766 43.992,64.473C41.994,68.922 38.501,69.234 36.059,59.647C34.259,52.58 34.355,46.021 35.633,34.985C35.65,34.698 35.67,34.41 35.691,34.12C29.914,27.451 24.751,22.392 21.871,20.569L21.842,20.55C25.852,23.061 30.738,27.66 35.752,33.371C36.039,30.037 36.609,26.368 37.47,20.87C36.817,25.649 36.258,29.786 35.816,33.444C41.761,40.226 47.881,48.567 52.929,56.841L52.922,56.912C53.028,57.075 53.133,57.238 53.238,57.401C52.939,63.081 52.841,69.483 53.139,78.032C53.627,92.07 64.684,95.887 64.442,85.302C64.291,78.621 59.899,68.506 53.719,58.151C53.56,57.901 53.4,57.651 53.238,57.401L53.241,57.355C53.137,57.183 53.033,57.012 52.929,56.841C53.386,52.22 53.884,47.66 54.297,43.558L54.716,38.039L54.405,37.989C54.163,37.942 53.92,37.9 53.68,37.841C53.199,37.732 52.724,37.594 52.257,37.432C52.027,37.354 51.788,37.262 51.546,37.162C51.279,37.051 51.183,37.008 50.854,36.854C50.599,36.728 50.461,36.65 50.218,36.513C49.994,36.393 49.779,36.255 49.567,36.117C48.709,35.55 47.965,34.883 47.285,34.056C46.675,33.312 46.113,32.391 45.748,31.443C45.269,30.217 45.055,28.883 45.124,27.566C45.112,26.619 45.245,25.672 45.525,24.771C45.675,24.284 45.848,23.842 46.084,23.36C46.287,22.946 46.567,22.474 46.871,22.077C47.482,21.26 48.258,20.579 49.12,20.061C50.845,19.026 52.913,18.65 54.856,18.985C55.29,19.06 55.72,19.169 56.139,19.311L56.661,12.434C56.625,12.424 56.588,12.414 56.552,12.404C54.123,11.735 51.545,11.528 49.024,11.849C46.772,12.127 44.542,12.825 42.602,14.036C42.313,14.231 42.029,14.437 41.754,14.653C39.753,16.216 38.194,18.401 37.468,20.912C37.522,20.634 37.585,20.357 37.658,20.082C37.589,20.275 37.526,20.47 37.468,20.668C37.717,19.377 38.176,18.109 38.863,16.957C39.551,15.809 40.452,14.78 41.486,13.91C41.923,13.546 42.382,13.21 42.859,12.903C44.515,11.756 46.403,10.934 48.364,10.433C51.103,9.76 54.029,9.68 56.825,10.275L56.996,8.032L58.645,7.333L59.194,7.068L58.724,10.79ZM54.169,45.242C54.052,46.529 53.937,47.797 53.829,49.064L54.147,45.524L54.169,45.242ZM55.282,38.092L55.281,38.096C55.312,38.096 55.343,38.096 55.374,38.094L55.282,38.092ZM58.444,13.016L57.569,19.954C57.585,19.963 57.602,19.972 57.618,19.982C58.405,20.443 59.093,21.073 59.619,21.816C59.834,22.05 60.033,22.301 60.212,22.565C61.39,24.281 61.632,26.606 60.699,28.5C60.293,29.386 59.559,30.238 58.671,30.764C58.548,30.84 58.45,30.89 58.353,30.942C58.224,31.009 58.11,31.066 58.011,31.109C57.733,31.228 57.527,31.29 57.272,31.356C56.893,31.454 56.502,31.51 56.11,31.526L55.677,34.956C57.858,35.088 60.011,34.587 61.881,33.459C62.379,33.16 62.847,32.818 63.278,32.434L63.439,32.288L63.505,32.228L63.593,32.143C63.709,32.029 63.833,31.91 63.915,31.818C64.097,31.629 64.298,31.396 64.473,31.173C65.188,30.274 65.733,29.215 66.126,28.093C66.921,25.865 67.015,23.391 66.372,21.088C66.023,19.819 65.46,18.609 64.723,17.508C64.24,16.892 63.701,16.316 63.115,15.791C61.78,14.583 60.172,13.674 58.444,13.016ZM54.954,34.905L54.928,34.91C54.936,34.908 54.945,34.907 54.954,34.906L54.954,34.905ZM55.961,21.646C55.587,21.535 55.202,21.456 54.813,21.407C53.241,21.207 51.616,21.581 50.309,22.403C48.433,23.52 47.419,25.692 47.404,27.864C47.471,28.55 47.634,29.226 47.887,29.867C48.179,30.583 48.55,31.223 49.066,31.848C49.526,32.413 50.117,32.946 50.75,33.362C51.063,33.571 51.4,33.762 51.78,33.954L51.865,33.995L52.017,34.063C52.113,34.104 52.23,34.161 52.309,34.189C52.481,34.258 52.654,34.327 52.846,34.392C53.221,34.523 53.604,34.634 53.992,34.72C54.185,34.768 54.381,34.801 54.576,34.839L54.872,34.883L54.955,34.896L55.212,31.509C54.588,31.442 53.973,31.268 53.417,30.996C53.085,30.837 52.774,30.643 52.488,30.409C52.345,30.294 52.214,30.169 52.075,30.022C51.964,29.901 51.844,29.754 51.737,29.605C51.298,29.014 51.078,28.258 51.02,27.588C51.003,27.444 50.987,27.296 50.977,27.145C50.936,26.811 50.943,26.472 51.003,26.14C51.057,25.84 51.142,25.554 51.266,25.263C51.378,25.02 51.546,24.722 51.737,24.5C52.129,24.033 52.655,23.696 53.225,23.519C53.795,23.344 54.408,23.325 54.981,23.469C55.053,23.483 55.124,23.507 55.195,23.531C55.2,23.533 55.205,23.535 55.21,23.537C55.312,23.554 55.412,23.575 55.512,23.599C55.469,23.593 55.426,23.589 55.382,23.585C55.391,23.59 55.399,23.596 55.406,23.603C55.467,23.639 55.527,23.677 55.586,23.72C55.607,23.75 55.66,23.738 55.659,23.82L55.754,23.871C55.767,23.876 55.779,23.883 55.791,23.889L55.961,21.646ZM55.785,23.97C55.763,23.958 55.741,23.948 55.718,23.94C55.422,23.926 55.164,23.815 54.914,23.764C54.476,23.675 54.022,23.691 53.594,23.803C53.454,23.856 53.317,23.918 53.185,23.99C52.499,24.36 51.966,24.976 51.752,25.686L51.751,25.69L51.737,25.72C51.504,26.228 51.572,26.861 51.698,27.477C51.716,27.579 51.737,27.678 51.761,27.775C51.955,28.228 52.255,28.634 52.631,28.951C53.014,29.28 53.49,29.519 53.978,29.671C54.224,29.749 54.477,29.8 54.733,29.831C54.86,29.849 54.988,29.856 55.117,29.861L55.194,29.862L54.865,29.877L55.235,29.863L55.194,29.862L55.338,29.855L55.785,23.97ZM55.337,29.865L55.337,29.859L55.235,29.863L55.312,29.864C55.321,29.864 55.329,29.865 55.337,29.865ZM57.285,22.204L56.336,29.734C56.456,29.706 56.575,29.673 56.692,29.634C57.086,29.515 57.397,29.342 57.755,29.101C58.402,28.646 58.884,28.026 59.186,27.257C59.532,26.423 59.592,25.484 59.402,24.601C59.253,24.225 59.054,23.87 58.809,23.551C58.41,22.995 57.885,22.547 57.285,22.204Z" style="fill:rgb(235,94,51);"/>
    </g>
</svg>
