<?xml version="1.0" encoding="UTF-8" standalone="no"?><!DOCTYPE svg PUBLIC "-//W3C//DTD SVG 1.1//EN" "http://www.w3.org/Graphics/SVG/1.1/DTD/svg11.dtd"><svg width="100%" height="100%" viewBox="0 0 271 100" version="1.1" xmlns="http://www.w3.org/2000/svg" xmlns:xlink="http://www.w3.org/1999/xlink" xml:space="preserve" style="fill-rule:evenodd;clip-rule:evenodd;stroke-linejoin:round;stroke-miterlimit:1.41421;"><path d="M119.367,32.53c2.463,-6.181 3.79,-9.378 3.98,-9.587c0.418,-0.266 0.776,-0.403 1.07,-0.414c0.96,0.19 1.441,0.69 1.441,1.498c0,0.238 -1.655,4.418 -4.966,12.54l-0.084,0.343l0,5.649c0,0.809 -0.5,1.289 -1.499,1.441c-0.961,-0.181 -1.44,-0.661 -1.44,-1.441l0,-5.864c0,-0.152 -1.645,-4.213 -4.937,-12.183l-0.07,-0.499c0.199,-0.989 0.698,-1.484 1.498,-1.484c0.826,0 1.458,0.771 1.896,2.311l3.111,7.69Z" style="fill:#060808;fill-rule:nonzero;"/><path d="M133.867,29.948l-1.784,1.141l0,5.279c0,0.77 -0.476,1.236 -1.426,1.398l-0.085,0c-0.733,0 -1.219,-0.446 -1.457,-1.342l0,-13.324c0.152,-0.828 0.595,-1.326 1.328,-1.497l0.399,-0.016c0.781,0.191 1.193,0.714 1.241,1.57l0,4.422c4.652,-3.081 7.437,-4.884 8.359,-5.406l0.386,0c0.818,0 1.304,0.508 1.457,1.526c0,0.627 -0.647,1.285 -1.942,1.969c-2.121,1.437 -3.434,2.335 -3.937,2.696l5.791,7.333l0.088,0.471l0,0.128c-0.173,0.942 -0.657,1.412 -1.457,1.412l-0.099,0c-0.571,0 -1.319,-0.665 -2.24,-1.996l-4.622,-5.764Z" style="fill:#060808;fill-rule:nonzero;"/><path d="M148.238,22.529c0.914,0.238 1.37,0.68 1.37,1.327l0,12.54c0,0.751 -0.461,1.208 -1.384,1.369l-0.099,0c-0.77,0 -1.247,-0.479 -1.427,-1.44l0,-12.183c0.114,-1.075 0.627,-1.613 1.54,-1.613" style="fill:#060808;fill-rule:nonzero;"/><path d="M156.947,30.019l0,0.257c0,1.75 0.847,3.11 2.539,4.079c0.599,0.305 1.246,0.457 1.941,0.457l0.313,0c1.808,0 3.191,-0.941 4.151,-2.824c0.219,-0.58 0.329,-1.15 0.329,-1.712l0,-0.257c0,-1.445 -0.666,-2.672 -1.997,-3.681c-0.79,-0.532 -1.689,-0.799 -2.697,-0.799c-1.977,0 -3.429,1.043 -4.352,3.125c-0.152,0.494 -0.227,0.946 -0.227,1.355m4.636,-7.433c1.96,0 3.733,0.743 5.322,2.226c1.512,1.578 2.269,3.367 2.269,5.364c0,2.844 -1.343,5.074 -4.024,6.691c-1.179,0.599 -2.316,0.898 -3.41,0.898l-0.414,0c-2.055,0 -3.96,-0.96 -5.72,-2.881c-1.075,-1.513 -1.613,-3.081 -1.613,-4.708c0,-2.463 1.089,-4.527 3.268,-6.191c1.398,-0.933 2.839,-1.399 4.322,-1.399" style="fill:#060808;fill-rule:nonzero;"/><path d="M174.743,22.586c0.913,0.238 1.37,0.676 1.37,1.313l0,5.592c0,2.235 0.617,3.719 1.853,4.452c0.789,0.618 1.665,0.927 2.627,0.927c1.853,0 3.256,-0.956 4.207,-2.869c0.19,-0.618 0.286,-1.245 0.286,-1.883l0,-6.105c0.18,-0.951 0.685,-1.427 1.512,-1.427c0.923,0.21 1.383,0.685 1.383,1.427l0,6.634c0,2.216 -1.051,4.143 -3.151,5.778c-1.343,0.894 -2.702,1.34 -4.082,1.34l-0.355,0c-2.303,0 -4.305,-1.126 -6.008,-3.381c-0.779,-1.217 -1.169,-2.705 -1.169,-4.465l0,-5.721c0.105,-1.074 0.613,-1.612 1.527,-1.612" style="fill:#060808;fill-rule:nonzero;"/><path d="M194.736,29.791l0,0.271c0,1.807 0.874,3.21 2.624,4.209c0.629,0.324 1.298,0.485 2.012,0.485l0.328,0c1.874,0 3.305,-0.976 4.294,-2.924c0.23,-0.61 0.342,-1.2 0.342,-1.77l0,-0.271c0,-1.494 -0.693,-2.763 -2.081,-3.809c-0.81,-0.551 -1.732,-0.828 -2.768,-0.828c-2.055,0 -3.558,1.08 -4.509,3.239c-0.162,0.513 -0.242,0.979 -0.242,1.398m-1.441,-13.397l0.97,0.087l10.114,0c0.971,0.19 1.455,0.675 1.455,1.455l0,0.156c-0.17,0.904 -0.494,1.356 -0.968,1.356l0,0.1l-0.829,-0.1l-5.678,0l6.291,4.622c1.799,1.722 2.698,3.681 2.698,5.877c0,2.931 -1.385,5.232 -4.153,6.906c-1.208,0.608 -2.373,0.912 -3.495,0.912l-0.427,0c-2.113,0 -4.071,-0.984 -5.879,-2.953c-1.113,-1.568 -1.669,-3.19 -1.669,-4.865c0,-2.804 1.327,-5.064 3.981,-6.776c1.007,-0.484 1.512,-0.775 1.512,-0.87c0,-0.029 -0.033,-0.042 -0.1,-0.042l-4.422,-3.325c-0.247,-0.361 -0.372,-0.703 -0.372,-1.027c0.162,-0.951 0.486,-1.426 0.971,-1.426l0,-0.087Z" style="fill:#060808;fill-rule:nonzero;"/><path d="M219.95,16.652c0.95,0.219 1.426,0.694 1.426,1.426l0,0.099c0,0.41 -0.413,1.07 -1.241,1.984c-0.648,0.99 -1.298,1.483 -1.953,1.483l-0.058,0c-0.676,0 -1.113,-0.46 -1.314,-1.383l0,-0.143c0,-0.419 0.572,-1.275 1.714,-2.568c0.436,-0.599 0.912,-0.898 1.426,-0.898m-6.249,13.438c0,1.912 0.95,3.373 2.854,4.38c0.675,0.248 1.34,0.371 1.996,0.371c1.817,0 3.239,-0.952 4.266,-2.853l0.671,-1.911c-0.553,-1.913 -1.308,-3.177 -2.268,-3.796c-0.838,-0.59 -1.708,-0.885 -2.612,-0.885l-0.271,0c-1.701,0 -3.057,0.824 -4.066,2.469c-0.379,0.79 -0.57,1.531 -0.57,2.225m11.312,3.995c-0.455,0.818 -1.168,1.559 -2.139,2.225c-1.265,0.97 -2.758,1.455 -4.48,1.455l-0.212,0c-2.075,0 -4.001,-0.969 -5.78,-2.91c-1.084,-1.531 -1.626,-3.119 -1.626,-4.765c0,-2.757 1.323,-4.993 3.967,-6.705c1.312,-0.637 2.562,-0.955 3.751,-0.955c2.587,0 4.737,1.212 6.449,3.637l0.086,0.172c0.067,-0.276 0.423,-1.294 1.07,-3.053c0.37,-0.505 0.813,-0.756 1.326,-0.756c0.961,0.18 1.441,0.69 1.441,1.525c-0.047,0.267 -0.795,2.311 -2.24,6.135c1.493,3.89 2.24,5.968 2.24,6.235c-0.22,0.961 -0.713,1.44 -1.483,1.44c-0.867,0 -1.519,-0.856 -1.955,-2.568l-0.415,-1.112Z" style="fill:#060808;fill-rule:nonzero;"/><path d="M237.303,29.948l-1.783,1.141l0,5.279c0,0.77 -0.477,1.236 -1.427,1.398l-0.086,0c-0.732,0 -1.216,-0.446 -1.455,-1.342l0,-13.324c0.152,-0.828 0.594,-1.326 1.327,-1.497l0.4,-0.016c0.779,0.191 1.194,0.714 1.241,1.57l0,4.422c4.65,-3.081 7.437,-4.884 8.36,-5.406l0.385,0c0.818,0 1.303,0.508 1.455,1.526c0,0.627 -0.647,1.285 -1.941,1.969c-2.119,1.437 -3.432,2.335 -3.937,2.696l5.793,7.333l0.085,0.471l0,0.128c-0.171,0.942 -0.657,1.412 -1.455,1.412l-0.101,0c-0.569,0 -1.316,-0.665 -2.239,-1.996l-4.622,-5.764Z" style="fill:#060808;fill-rule:nonzero;"/><path d="M250.832,22.644c0.914,0.237 1.371,0.675 1.371,1.312l0,0.2c1.132,-1.009 2.648,-1.512 4.55,-1.512c2.083,0 3.938,0.865 5.564,2.595c1.18,1.466 1.769,3.011 1.769,4.638l0,12.569c0,0.731 -0.518,1.174 -1.555,1.326c-0.894,-0.256 -1.341,-0.737 -1.341,-1.441l0,-11.769c0,-2.426 -1.037,-4.019 -3.109,-4.78c-0.496,-0.123 -0.938,-0.185 -1.328,-0.185l-0.157,0c-1.731,0 -3.071,0.894 -4.023,2.681c-0.247,0.543 -0.37,1.441 -0.37,2.697l0,5.493c0,0.751 -0.462,1.207 -1.385,1.369l-0.085,0c-0.771,0 -1.246,-0.476 -1.426,-1.427l0,-12.155c0.104,-1.075 0.612,-1.611 1.525,-1.611" style="fill:#060808;fill-rule:nonzero;"/><path d="M133.118,29.549l-1.784,1.142l0,5.278c0,0.77 -0.475,1.236 -1.426,1.398l-0.085,0c-0.733,0 -1.218,-0.446 -1.456,-1.342l0,-13.324c0.152,-0.827 0.594,-1.326 1.327,-1.497l0.399,-0.016c0.781,0.192 1.194,0.714 1.241,1.57l0,4.423c4.651,-3.081 7.438,-4.884 8.36,-5.407l0.386,0c0.818,0 1.303,0.508 1.456,1.526c0,0.627 -0.647,1.285 -1.941,1.969c-2.12,1.437 -3.434,2.335 -3.937,2.696l5.791,7.333l0.087,0.472l0,0.127c-0.172,0.943 -0.656,1.412 -1.456,1.412l-0.099,0c-0.572,0 -1.318,-0.664 -2.24,-1.996l-4.623,-5.764Z" style="fill:#006a6a;fill-rule:nonzero;"/><path d="M147.49,22.13c0.913,0.238 1.37,0.681 1.37,1.328l0,12.54c0,0.751 -0.461,1.207 -1.384,1.369l-0.1,0c-0.769,0 -1.246,-0.48 -1.426,-1.441l0,-12.183c0.114,-1.075 0.627,-1.613 1.54,-1.613" style="fill:#006a6a;fill-rule:nonzero;"/><path d="M156.199,29.62l0,0.257c0,1.751 0.846,3.11 2.539,4.08c0.599,0.304 1.246,0.456 1.941,0.456l0.313,0c1.807,0 3.191,-0.941 4.151,-2.824c0.219,-0.579 0.329,-1.15 0.329,-1.712l0,-0.257c0,-1.445 -0.666,-2.672 -1.997,-3.681c-0.79,-0.532 -1.689,-0.799 -2.697,-0.799c-1.978,0 -3.429,1.043 -4.352,3.126c-0.152,0.493 -0.227,0.945 -0.227,1.354m4.636,-7.433c1.96,0 3.733,0.743 5.322,2.227c1.512,1.578 2.269,3.366 2.269,5.363c0,2.844 -1.343,5.074 -4.024,6.691c-1.179,0.599 -2.316,0.898 -3.41,0.898l-0.414,0c-2.055,0 -3.961,-0.96 -5.721,-2.881c-1.074,-1.512 -1.612,-3.081 -1.612,-4.708c0,-2.463 1.089,-4.527 3.268,-6.191c1.398,-0.932 2.838,-1.399 4.322,-1.399" style="fill:#006a6a;fill-rule:nonzero;"/><path d="M173.994,22.188c0.914,0.238 1.37,0.675 1.37,1.312l0,5.592c0,2.236 0.617,3.719 1.854,4.452c0.789,0.618 1.665,0.927 2.626,0.927c1.853,0 3.257,-0.955 4.207,-2.868c0.19,-0.618 0.286,-1.246 0.286,-1.883l0,-6.106c0.181,-0.95 0.685,-1.426 1.513,-1.426c0.922,0.209 1.383,0.685 1.383,1.426l0,6.634c0,2.217 -1.051,4.143 -3.152,5.778c-1.342,0.895 -2.702,1.341 -4.081,1.341l-0.355,0c-2.303,0 -4.306,-1.127 -6.008,-3.381c-0.78,-1.218 -1.169,-2.706 -1.169,-4.466l0,-5.721c0.105,-1.073 0.613,-1.611 1.526,-1.611" style="fill:#006a6a;fill-rule:nonzero;"/><path d="M193.987,29.392l0,0.271c0,1.807 0.874,3.211 2.625,4.209c0.628,0.324 1.298,0.485 2.012,0.485l0.327,0c1.875,0 3.306,-0.975 4.295,-2.924c0.229,-0.61 0.342,-1.199 0.342,-1.77l0,-0.271c0,-1.493 -0.694,-2.763 -2.082,-3.809c-0.809,-0.551 -1.731,-0.827 -2.767,-0.827c-2.056,0 -3.558,1.079 -4.509,3.238c-0.163,0.513 -0.243,0.98 -0.243,1.398m-1.44,-13.396l0.969,0.086l10.115,0c0.971,0.19 1.455,0.675 1.455,1.455l0,0.156c-0.17,0.904 -0.494,1.356 -0.969,1.356l0,0.101l-0.828,-0.101l-5.678,0l6.291,4.622c1.798,1.722 2.697,3.681 2.697,5.878c0,2.93 -1.384,5.231 -4.152,6.905c-1.209,0.609 -2.373,0.912 -3.496,0.912l-0.426,0c-2.113,0 -4.071,-0.984 -5.879,-2.953c-1.113,-1.568 -1.669,-3.189 -1.669,-4.864c0,-2.805 1.327,-5.065 3.981,-6.777c1.007,-0.484 1.511,-0.775 1.511,-0.87c0,-0.029 -0.032,-0.042 -0.099,-0.042l-4.422,-3.325c-0.248,-0.361 -0.372,-0.703 -0.372,-1.027c0.161,-0.95 0.485,-1.426 0.971,-1.426l0,-0.086Z" style="fill:#006a6a;fill-rule:nonzero;"/><path d="M219.201,16.253c0.951,0.219 1.427,0.695 1.427,1.426l0,0.1c0,0.41 -0.414,1.07 -1.241,1.983c-0.648,0.99 -1.299,1.484 -1.954,1.484l-0.057,0c-0.677,0 -1.113,-0.461 -1.314,-1.384l0,-0.143c0,-0.418 0.571,-1.274 1.713,-2.568c0.437,-0.599 0.912,-0.898 1.426,-0.898m-6.249,13.438c0,1.912 0.951,3.373 2.854,4.381c0.676,0.247 1.34,0.37 1.997,0.37c1.817,0 3.238,-0.951 4.265,-2.852l0.671,-1.912c-0.552,-1.913 -1.308,-3.177 -2.268,-3.796c-0.838,-0.589 -1.707,-0.885 -2.611,-0.885l-0.271,0c-1.702,0 -3.057,0.824 -4.066,2.469c-0.379,0.79 -0.571,1.532 -0.571,2.225m11.313,3.996c-0.456,0.817 -1.168,1.559 -2.139,2.225c-1.265,0.969 -2.758,1.455 -4.48,1.455l-0.213,0c-2.074,0 -4,-0.97 -5.779,-2.91c-1.084,-1.532 -1.626,-3.12 -1.626,-4.766c0,-2.757 1.322,-4.993 3.967,-6.705c1.311,-0.637 2.562,-0.955 3.75,-0.955c2.587,0 4.737,1.213 6.449,3.637l0.086,0.172c0.067,-0.276 0.423,-1.293 1.07,-3.053c0.371,-0.505 0.813,-0.756 1.326,-0.756c0.961,0.181 1.442,0.69 1.442,1.526c-0.048,0.266 -0.795,2.311 -2.24,6.134c1.493,3.891 2.24,5.968 2.24,6.235c-0.22,0.961 -0.714,1.441 -1.484,1.441c-0.866,0 -1.518,-0.856 -1.954,-2.568l-0.415,-1.112Z" style="fill:#006a6a;fill-rule:nonzero;"/><path d="M236.555,29.549l-1.783,1.142l0,5.278c0,0.77 -0.477,1.236 -1.427,1.398l-0.086,0c-0.732,0 -1.216,-0.446 -1.455,-1.342l0,-13.324c0.151,-0.827 0.594,-1.326 1.327,-1.497l0.4,-0.016c0.778,0.192 1.193,0.714 1.241,1.57l0,4.423c4.65,-3.081 7.437,-4.884 8.359,-5.407l0.385,0c0.818,0 1.304,0.508 1.455,1.526c0,0.627 -0.646,1.285 -1.94,1.969c-2.12,1.437 -3.432,2.335 -3.937,2.696l5.793,7.333l0.084,0.472l0,0.127c-0.171,0.943 -0.656,1.412 -1.455,1.412l-0.1,0c-0.569,0 -1.316,-0.664 -2.239,-1.996l-4.622,-5.764Z" style="fill:#006a6a;fill-rule:nonzero;"/><path d="M250.084,22.245c0.914,0.238 1.37,0.675 1.37,1.313l0,0.199c1.132,-1.009 2.648,-1.512 4.551,-1.512c2.082,0 3.938,0.865 5.564,2.595c1.18,1.466 1.769,3.011 1.769,4.638l0,12.569c0,0.732 -0.519,1.174 -1.555,1.326c-0.895,-0.256 -1.342,-0.737 -1.342,-1.441l0,-11.769c0,-2.426 -1.036,-4.018 -3.108,-4.78c-0.496,-0.123 -0.939,-0.185 -1.328,-0.185l-0.157,0c-1.731,0 -3.071,0.894 -4.023,2.682c-0.248,0.542 -0.371,1.44 -0.371,2.697l0,5.492c0,0.751 -0.461,1.208 -1.384,1.369l-0.085,0c-0.771,0 -1.246,-0.476 -1.426,-1.426l0,-12.156c0.104,-1.074 0.612,-1.611 1.525,-1.611" style="fill:#006a6a;fill-rule:nonzero;"/><rect id="Artboard1" x="0" y="0" width="270.745" height="100" style="fill:none;"/><g id="ggf"><path d="M21.842,20.55c14.992,9.388 42.219,47.944 42.6,64.752c0.242,10.585 -10.815,6.768 -11.303,-7.27c-0.626,-17.989 0.498,-26.473 1.566,-38.729c-0.852,9.493 -2.562,22.909 -3.022,33.634c-0.664,15.54 9.039,26.056 12.701,16.109c5.832,-15.842 -32.483,-62.171 -42.542,-68.496c2.671,1.672 0,0 0,0" style="fill:#eb5e33;fill-rule:nonzero;"/><path d="M40.698,40.981c13.104,16.244 -1.397,40.373 -4.272,10.961c-1.459,-14.925 -1.147,-17.072 1.044,-31.072c-2.792,20.432 -3.868,29.131 -1.411,38.777c5.313,20.858 15.602,-5.138 4.639,-18.666" style="fill:#eb5e33;fill-rule:nonzero;"/><path d="M53.657,50.981l3.877,-43.111l1.66,-0.802l-5.537,43.913Z" style="fill:#2e2b2c;fill-rule:nonzero;"/><path d="M55.512,23.599c-0.808,-0.099 -1.637,0.015 -2.327,0.391c-0.686,0.37 -1.219,0.986 -1.433,1.696l-0.001,0.004l-0.014,0.03c-0.233,0.508 -0.165,1.141 -0.039,1.757c0.112,0.635 0.331,1.165 0.705,1.621c0.094,0.112 0.189,0.214 0.308,0.329c0.096,0.086 0.209,0.183 0.329,0.265c0.235,0.168 0.499,0.308 0.768,0.415c0.557,0.225 1.143,0.33 1.733,0.321l0.098,-0.001l-0.059,0.004c0.032,-0.002 0.061,-0.007 0.089,-0.013l0.028,-0.005l0.072,-0.005c0.398,-0.022 0.792,-0.092 1.169,-0.219c0.178,-0.056 0.398,-0.146 0.529,-0.211c0.106,-0.052 0.189,-0.103 0.258,-0.144c0.098,-0.059 0.198,-0.118 0.262,-0.165c0.633,-0.439 1.112,-1.024 1.42,-1.791c0.595,-1.397 0.329,-3.12 -0.598,-4.327c-0.894,-1.245 -2.418,-1.946 -3.996,-2.144c-1.572,-0.2 -3.197,0.174 -4.504,0.996c-2.678,1.594 -3.6,5.338 -2.365,8.163c0.304,0.725 0.68,1.365 1.218,2.009c0.468,0.558 1.076,1.111 1.727,1.526c0.165,0.105 0.331,0.21 0.504,0.3c0.15,0.085 0.406,0.224 0.557,0.293c0.078,0.035 0.393,0.177 0.544,0.234c0.175,0.069 0.356,0.139 0.553,0.203c0.385,0.13 0.776,0.242 1.173,0.328c0.198,0.048 0.399,0.08 0.599,0.118l0.302,0.045l0.118,0.018c0.012,0.001 0.094,0.011 0.046,0.005c-0.032,-0.004 -0.066,-0.002 -0.097,0.004l0.071,-0.014l0.163,0.018c2.374,0.248 4.779,-0.231 6.832,-1.42c0.507,-0.294 0.988,-0.632 1.434,-1.009c0.222,-0.19 0.43,-0.38 0.661,-0.614c0.186,-0.191 0.386,-0.406 0.571,-0.634c0.74,-0.895 1.308,-1.944 1.72,-3.07c0.823,-2.236 0.945,-4.725 0.297,-7.045c-0.631,-2.326 -2.003,-4.439 -3.822,-6.07c-1.812,-1.64 -4.128,-2.727 -6.563,-3.387c-2.429,-0.669 -5.007,-0.876 -7.528,-0.555c-2.517,0.31 -5.006,1.146 -7.094,2.635c-2.093,1.468 -3.718,3.65 -4.462,6.184c0.249,-1.291 0.708,-2.559 1.395,-3.711c0.688,-1.148 1.589,-2.177 2.623,-3.047c2.084,-1.738 4.674,-2.815 7.341,-3.318c2.677,-0.489 5.453,-0.423 8.131,0.162c1.335,0.301 2.649,0.738 3.906,1.303c1.27,0.573 2.472,1.316 3.557,2.213c2.181,1.782 3.832,4.239 4.652,6.976c0.826,2.73 0.791,5.756 -0.189,8.467c-0.48,1.345 -1.166,2.649 -2.093,3.79c-0.228,0.284 -0.472,0.555 -0.744,0.836c-0.23,0.234 -0.503,0.493 -0.779,0.732c-0.554,0.477 -1.152,0.902 -1.778,1.271c-1.234,0.731 -2.625,1.27 -4.036,1.566c-1.477,0.289 -2.844,0.349 -4.314,0.181l0.234,0.005c-0.088,0.004 -0.178,0.003 -0.266,-0.003l-0.122,-0.012l-0.215,-0.032l-0.366,-0.058c-0.242,-0.047 -0.485,-0.089 -0.725,-0.148c-0.481,-0.109 -0.956,-0.247 -1.423,-0.409c-0.23,-0.078 -0.469,-0.17 -0.711,-0.27c-0.267,-0.111 -0.363,-0.154 -0.692,-0.308c-0.255,-0.126 -0.393,-0.204 -0.636,-0.341c-0.224,-0.12 -0.439,-0.258 -0.651,-0.396c-0.858,-0.567 -1.602,-1.234 -2.282,-2.061c-0.61,-0.744 -1.172,-1.665 -1.537,-2.613c-0.747,-1.911 -0.849,-4.086 -0.239,-6.048c0.153,-0.497 0.331,-0.952 0.573,-1.438c0.212,-0.427 0.5,-0.906 0.813,-1.311c0.635,-0.829 1.43,-1.524 2.314,-2.048c1.77,-1.055 3.886,-1.415 5.877,-1.093c0.989,0.16 1.973,0.494 2.852,0.983c0.9,0.504 1.692,1.217 2.274,2.077c1.178,1.716 1.42,4.041 0.487,5.935c-0.406,0.886 -1.14,1.738 -2.028,2.264c-0.123,0.076 -0.221,0.126 -0.318,0.178c-0.129,0.067 -0.243,0.124 -0.342,0.167c-0.278,0.119 -0.484,0.181 -0.739,0.247c-0.486,0.126 -0.991,0.182 -1.493,0.175l0.098,-0.01c-0.134,0.02 -0.268,0.023 -0.4,0.01l0.039,0.002c-0.727,-0.038 -1.453,-0.221 -2.099,-0.537c-0.332,-0.159 -0.643,-0.353 -0.929,-0.587c-0.143,-0.115 -0.274,-0.24 -0.413,-0.387c-0.111,-0.121 -0.231,-0.268 -0.338,-0.417c-0.439,-0.591 -0.659,-1.347 -0.717,-2.017c-0.078,-0.665 -0.133,-1.428 0.244,-2.117l-0.015,0.034c0.339,-0.828 1.027,-1.464 1.817,-1.771c0.79,-0.318 1.658,-0.325 2.446,-0.135" style="fill:#2e2b2c;fill-rule:nonzero;"/><path d="M53.717,51.193l3.279,-43.161l1.902,-0.806l-5.181,43.967Z" style="fill:#006a6a;fill-rule:nonzero;"/><path d="M56.382,24.439c-0.276,-0.105 -0.404,-0.407 -0.664,-0.499c-0.296,-0.014 -0.554,-0.125 -0.804,-0.176c-0.524,-0.107 -1.072,-0.062 -1.569,0.116c-0.496,0.18 -0.936,0.497 -1.251,0.906c-0.161,0.217 -0.265,0.415 -0.377,0.686c-0.083,0.232 -0.15,0.489 -0.182,0.745c-0.135,1.037 0.317,2.077 1.096,2.734c0.383,0.329 0.859,0.568 1.347,0.72c0.246,0.078 0.499,0.129 0.755,0.16c0.127,0.018 0.255,0.025 0.384,0.03l0.195,0.003c0.09,0.004 0.111,-0.009 0.122,-0.009l-0.569,0.022l0.643,-0.03c0.402,-0.018 0.802,-0.086 1.184,-0.213c0.394,-0.119 0.705,-0.292 1.063,-0.533c0.647,-0.455 1.129,-1.075 1.431,-1.844c0.598,-1.441 0.341,-3.192 -0.581,-4.432c-0.898,-1.272 -2.425,-1.977 -3.994,-2.162c-1.562,-0.186 -3.177,0.197 -4.451,1.052c-0.637,0.425 -1.184,0.966 -1.616,1.58c-0.22,0.318 -0.386,0.615 -0.561,1.003c-0.141,0.319 -0.282,0.708 -0.377,1.072c-0.401,1.485 -0.279,3.079 0.281,4.497c0.292,0.716 0.663,1.356 1.179,1.981c0.46,0.565 1.051,1.098 1.684,1.514c0.313,0.209 0.65,0.4 1.03,0.592l0.085,0.041l0.152,0.068c0.096,0.041 0.213,0.098 0.292,0.126c0.172,0.069 0.345,0.138 0.537,0.203c0.375,0.131 0.758,0.242 1.146,0.328c0.193,0.048 0.389,0.081 0.584,0.119l0.296,0.044l0.112,0.018c0.011,0.001 0.091,0.011 0.046,0.006c-0.034,-0.005 -0.069,-0.003 -0.102,0.003l0.073,-0.013l0.165,0.017c2.354,0.248 4.699,-0.239 6.715,-1.455c0.498,-0.299 0.966,-0.641 1.397,-1.025l0.161,-0.146l0.066,-0.06l0.088,-0.085c0.116,-0.114 0.24,-0.233 0.322,-0.325c0.182,-0.189 0.383,-0.422 0.558,-0.645c0.715,-0.899 1.26,-1.958 1.653,-3.08c0.795,-2.228 0.889,-4.702 0.246,-7.005c-0.633,-2.305 -1.975,-4.415 -3.777,-6.033c-0.9,-0.808 -1.935,-1.496 -3.016,-2.031c-1.124,-0.554 -2.287,-0.956 -3.499,-1.253c-2.417,-0.583 -4.983,-0.642 -7.454,-0.161c-2.474,0.458 -4.87,1.472 -6.872,3.043c-2.001,1.563 -3.56,3.748 -4.286,6.259c0.246,-1.279 0.696,-2.533 1.352,-3.683c0.659,-1.148 1.512,-2.188 2.493,-3.093c1.973,-1.807 4.448,-3.038 7.051,-3.703c5.211,-1.28 11.1,-0.413 15.485,3.158c2.155,1.765 3.793,4.189 4.604,6.893c0.824,2.697 0.808,5.673 -0.102,8.372c-0.452,1.337 -1.1,2.635 -1.993,3.787c-0.225,0.291 -0.446,0.555 -0.713,0.838c-0.136,0.15 -0.246,0.257 -0.362,0.372l-0.198,0.191l-0.199,0.186c-0.537,0.486 -1.12,0.922 -1.735,1.301c-1.233,0.756 -2.568,1.306 -3.982,1.617c-1.465,0.314 -2.832,0.38 -4.288,0.215l0.238,0.005c-0.089,0.003 -0.179,0.002 -0.268,-0.003l-0.119,-0.013l-0.217,-0.031l-0.36,-0.057c-0.24,-0.047 -0.479,-0.089 -0.717,-0.149c-0.475,-0.108 -0.944,-0.246 -1.404,-0.411c-0.227,-0.077 -0.465,-0.172 -0.703,-0.271c-0.128,-0.049 -0.209,-0.092 -0.316,-0.139l-0.151,-0.067l-0.214,-0.105c-0.409,-0.21 -0.844,-0.456 -1.265,-0.74c-0.833,-0.577 -1.564,-1.254 -2.204,-2.076c-0.596,-0.754 -1.116,-1.669 -1.465,-2.603c-0.715,-1.886 -0.788,-4.014 -0.191,-5.932c0.15,-0.487 0.323,-0.929 0.559,-1.411c0.203,-0.414 0.483,-0.886 0.787,-1.283c0.611,-0.817 1.387,-1.498 2.249,-2.016c1.725,-1.035 3.793,-1.411 5.736,-1.076c0.967,0.167 1.911,0.503 2.762,0.997c0.864,0.506 1.609,1.216 2.15,2.055c1.093,1.674 1.298,3.885 0.426,5.693c-0.387,0.86 -1.076,1.671 -1.911,2.188c-0.114,0.072 -0.213,0.128 -0.308,0.178c-0.114,0.061 -0.227,0.122 -0.323,0.165c-0.255,0.115 -0.46,0.18 -0.701,0.247c-0.465,0.13 -0.95,0.191 -1.433,0.189l0.073,-0.007c-0.128,0.018 -0.247,0.02 -0.297,0.014l-0.225,-0.014c-0.152,-0.014 -0.304,-0.029 -0.455,-0.057c-0.3,-0.05 -0.596,-0.125 -0.882,-0.23c-0.573,-0.209 -1.109,-0.511 -1.563,-0.935c-0.904,-0.83 -1.383,-2.126 -1.166,-3.328c0.054,-0.3 0.139,-0.586 0.263,-0.877c0.112,-0.243 0.28,-0.541 0.471,-0.763c0.392,-0.467 0.918,-0.804 1.488,-0.981c0.57,-0.175 1.183,-0.194 1.756,-0.05c0.072,0.014 0.143,0.038 0.214,0.062c0.068,0.028 0.157,0.02 0.211,0.072c0.061,0.036 0.121,0.074 0.18,0.117c0.021,0.03 0.074,0.018 0.073,0.1l0.095,0.051c0.128,0.059 0.247,0.169 0.329,0.276c0.088,0.109 0.213,0.172 0.299,0.292" style="fill:#006a6a;fill-rule:nonzero;"/></g><path d="M75.315,29.862l0,0.271c0,1.76 0.856,3.129 2.568,4.109c0.609,0.314 1.265,0.47 1.968,0.47l0.314,0c1.836,0 3.239,-0.95 4.209,-2.852c0.219,-0.59 0.329,-1.166 0.329,-1.727l0,-0.271c0,-1.465 -0.676,-2.706 -2.027,-3.723c-0.799,-0.543 -1.707,-0.813 -2.725,-0.813c-1.996,0 -3.462,1.054 -4.393,3.166c-0.163,0.504 -0.243,0.961 -0.243,1.37m4.679,-7.503c1.989,0 3.781,0.746 5.379,2.239c1.531,1.607 2.296,3.414 2.296,5.421c0,2.872 -1.355,5.126 -4.065,6.763c-1.19,0.599 -2.335,0.899 -3.439,0.899l-0.428,0c-1.787,0 -3.28,-0.543 -4.479,-1.627l0,6.319c0,0.676 -0.481,1.118 -1.441,1.328c-0.762,0 -1.251,-0.481 -1.469,-1.441l0,-11.77c0,-3.853 1.822,-6.448 5.463,-7.79c0.467,-0.151 1.193,-0.266 2.183,-0.341" style="fill:#060808;fill-rule:nonzero;"/><path d="M93.91,30.09c0,1.912 0.95,3.372 2.854,4.381c0.674,0.247 1.34,0.37 1.996,0.37c1.818,0 3.239,-0.951 4.266,-2.854l0.671,-1.911c-0.551,-1.912 -1.308,-3.176 -2.268,-3.795c-0.838,-0.589 -1.707,-0.885 -2.611,-0.885l-0.272,0c-1.702,0 -3.058,0.824 -4.065,2.469c-0.381,0.789 -0.571,1.531 -0.571,2.225m11.313,3.994c-0.456,0.818 -1.17,1.561 -2.14,2.227c-1.264,0.969 -2.758,1.455 -4.479,1.455l-0.214,0c-2.073,0 -3.999,-0.971 -5.778,-2.91c-1.085,-1.532 -1.626,-3.121 -1.626,-4.766c0,-2.758 1.322,-4.993 3.965,-6.705c1.313,-0.637 2.564,-0.956 3.752,-0.956c2.587,0 4.737,1.212 6.449,3.638l0.086,0.171c0.066,-0.275 0.423,-1.292 1.07,-3.052c0.37,-0.505 0.813,-0.757 1.326,-0.757c0.961,0.182 1.442,0.69 1.442,1.527c-0.048,0.266 -0.795,2.311 -2.241,6.134c1.493,3.89 2.241,5.968 2.241,6.235c-0.22,0.961 -0.714,1.441 -1.485,1.441c-0.865,0 -1.516,-0.856 -1.954,-2.568l-0.414,-1.114Z" style="fill:#060808;fill-rule:nonzero;"/><path d="M74.567,29.463l0,0.272c0,1.759 0.856,3.128 2.568,4.109c0.608,0.313 1.265,0.47 1.968,0.47l0.314,0c1.835,0 3.239,-0.951 4.208,-2.853c0.219,-0.589 0.329,-1.166 0.329,-1.726l0,-0.272c0,-1.464 -0.675,-2.705 -2.026,-3.723c-0.799,-0.543 -1.708,-0.813 -2.725,-0.813c-1.997,0 -3.462,1.055 -4.394,3.166c-0.162,0.505 -0.242,0.961 -0.242,1.37m4.679,-7.503c1.988,0 3.78,0.746 5.379,2.239c1.53,1.607 2.295,3.415 2.295,5.421c0,2.873 -1.354,5.126 -4.064,6.763c-1.19,0.599 -2.335,0.899 -3.439,0.899l-0.428,0c-1.787,0 -3.281,-0.543 -4.48,-1.627l0,6.32c0,0.675 -0.48,1.118 -1.44,1.327c-0.762,0 -1.251,-0.481 -1.47,-1.441l0,-11.77c0,-3.852 1.822,-6.448 5.464,-7.789c0.466,-0.152 1.193,-0.267 2.183,-0.342" style="fill:#006a6a;fill-rule:nonzero;"/><path d="M93.161,29.692c0,1.911 0.951,3.371 2.854,4.38c0.675,0.248 1.341,0.371 1.997,0.371c1.817,0 3.239,-0.952 4.266,-2.854l0.67,-1.912c-0.551,-1.912 -1.308,-3.175 -2.268,-3.795c-0.838,-0.589 -1.707,-0.884 -2.611,-0.884l-0.271,0c-1.703,0 -3.058,0.823 -4.065,2.469c-0.381,0.789 -0.572,1.53 -0.572,2.225m11.314,3.994c-0.457,0.818 -1.17,1.56 -2.14,2.226c-1.265,0.97 -2.758,1.455 -4.48,1.455l-0.214,0c-2.073,0 -3.999,-0.971 -5.778,-2.91c-1.084,-1.531 -1.626,-3.12 -1.626,-4.765c0,-2.759 1.322,-4.993 3.966,-6.705c1.313,-0.637 2.563,-0.957 3.751,-0.957c2.588,0 4.737,1.213 6.449,3.638l0.086,0.171c0.066,-0.275 0.424,-1.292 1.07,-3.052c0.371,-0.504 0.813,-0.757 1.326,-0.757c0.962,0.182 1.442,0.69 1.442,1.527c-0.048,0.267 -0.795,2.311 -2.24,6.135c1.493,3.89 2.24,5.968 2.24,6.234c-0.22,0.962 -0.714,1.441 -1.485,1.441c-0.864,0 -1.516,-0.856 -1.953,-2.568l-0.414,-1.113Z" style="fill:#006a6a;fill-rule:nonzero;"/><path d="M118.618,32.131c2.463,-6.181 3.79,-9.378 3.98,-9.587c0.419,-0.266 0.776,-0.403 1.07,-0.414c0.961,0.19 1.441,0.69 1.441,1.498c0,0.238 -1.655,4.418 -4.965,12.54l-0.085,0.344l0,5.649c0,0.808 -0.5,1.288 -1.498,1.44c-0.961,-0.18 -1.441,-0.661 -1.441,-1.44l0,-5.865c0,-0.151 -1.645,-4.213 -4.936,-12.182l-0.071,-0.5c0.2,-0.989 0.699,-1.484 1.498,-1.484c0.827,0 1.459,0.771 1.897,2.311l3.11,7.69Z" style="fill:#006a6a;fill-rule:nonzero;"/></svg>
