<?xml version="1.0" encoding="UTF-8" standalone="no"?><!DOCTYPE svg PUBLIC "-//W3C//DTD SVG 1.1//EN" "http://www.w3.org/Graphics/SVG/1.1/DTD/svg11.dtd"><svg width="100%" height="100%" viewBox="0 0 147 143" version="1.1" xmlns="http://www.w3.org/2000/svg" xmlns:xlink="http://www.w3.org/1999/xlink" xml:space="preserve" xmlns:serif="http://www.serif.com/" style="fill-rule:evenodd;clip-rule:evenodd;stroke-linejoin:round;stroke-miterlimit:1.41421;"><g id="gifts"><g><path d="M102.057,2.714l0.273,0.004l0.275,0.008l0.276,0.013l0.277,0.016l0.279,0.021l0.279,0.024l0.281,0.03l0.282,0.033l0.283,0.039l0.284,0.043l0.285,0.047l0.285,0.053l0.287,0.057l0.286,0.063l0.287,0.067l0.288,0.073l0.288,0.078l0.287,0.083l0.288,0.088l0.288,0.094l0.287,0.099l0.287,0.105l0.286,0.11l0.286,0.116l0.284,0.121l0.284,0.127l0.282,0.132l0.281,0.137l0.28,0.144l0.278,0.148l0.276,0.155l0.274,0.159l0.272,0.165l0.27,0.17l0.268,0.176l0.265,0.181l0.262,0.186l0.26,0.19l0.257,0.196l0.139,0.111l0.115,0.09l0.251,0.205l0.249,0.209l0.245,0.214l0.241,0.219l0.239,0.223l0.234,0.228l0.231,0.232l0.228,0.235l0.224,0.24l0.22,0.244l0.216,0.248l0.213,0.251l0.209,0.255l0.205,0.259l0.201,0.262l0.197,0.266l0.194,0.268l0.189,0.272l0.186,0.275l0.182,0.278l0.178,0.282l0.174,0.284l0.171,0.287l0.167,0.29l0.163,0.292l0.16,0.295l0.153,0.286l0.072,0.18l0.067,0.169l0.066,0.169l0.064,0.17l0.017,0.047l0.046,0.124l0.061,0.172l0.06,0.172l0.058,0.173l0.056,0.174l0.054,0.174l0.053,0.175l0.051,0.176l0.049,0.176l0.048,0.177l0.045,0.178l0.044,0.178l0.042,0.178l0.04,0.18l0.038,0.179l0.036,0.181l0.035,0.18l0.032,0.181l0.03,0.182l0.029,0.181l0.026,0.182l0.025,0.183l0.022,0.182l0.02,0.183l0.018,0.183l0.017,0.183l0.014,0.183l0.012,0.183l0.01,0.184l0.008,0.183l0.006,0.183l0.004,0.183l0.001,0.183l0,0.182l-0.003,0.183l-0.004,0.182l-0.007,0.182l-0.008,0.182l-0.011,0.181l-0.013,0.18l-0.014,0.181l-0.017,0.179l-0.019,0.179l-0.021,0.179l-0.022,0.178l-0.025,0.177l-0.027,0.177l-0.028,0.176l-0.031,0.175l-0.032,0.174l-0.034,0.173l-0.036,0.173l-0.038,0.172l-0.039,0.171l-0.041,0.169l-0.043,0.169l-0.045,0.168l-0.046,0.167l-0.048,0.166l-0.05,0.164l-0.051,0.164l-0.053,0.163l-0.054,0.161l-0.056,0.16l-0.057,0.159l-0.059,0.158l-0.06,0.157l-0.069,0.177l-0.118,0.286l-0.132,0.302l-0.137,0.298l-0.141,0.293l-0.146,0.287l-0.15,0.283l-0.154,0.278l-0.158,0.272l-0.161,0.268l-0.165,0.263l-0.168,0.258l-0.171,0.253l-0.174,0.249l-0.176,0.244l-0.179,0.239l-0.182,0.235l-0.184,0.231l-0.186,0.226l-0.188,0.222l-0.19,0.218l-0.192,0.214l-0.194,0.211l-0.195,0.206l-0.197,0.202l-0.123,0.123l-0.075,0.077l-0.199,0.196l-0.2,0.193l-0.202,0.19l-0.203,0.186l-0.204,0.184l-0.206,0.18l-0.206,0.177l-0.208,0.175l-0.209,0.171l-0.209,0.169l-0.211,0.166l-0.212,0.164l-0.212,0.161l-0.214,0.158l-0.214,0.157l-0.216,0.153l-0.216,0.152l-0.217,0.149l-0.218,0.147l-0.218,0.145l-0.22,0.143l-0.22,0.141l-0.22,0.139l-0.222,0.137l-0.222,0.135l-0.223,0.133l-0.223,0.132l-0.225,0.13l-0.224,0.128l-0.226,0.126l-0.226,0.125l-0.226,0.123l-0.227,0.121l-0.228,0.12l-0.228,0.118l-0.229,0.117l-0.229,0.116l-0.23,0.114l-0.23,0.112l-0.23,0.111l-0.231,0.11l-0.232,0.109l-0.232,0.107l-0.232,0.106l-0.233,0.104l-0.233,0.103l-0.233,0.102l-0.234,0.101l-0.234,0.1l-0.234,0.098l-0.235,0.097l-0.235,0.096l-0.235,0.095l-0.235,0.094l-0.235,0.093l-0.236,0.091l-0.236,0.09l-0.236,0.09l-0.236,0.088l-0.142,0.052l-0.094,0.037l-0.235,0.089l-0.235,0.088l-0.235,0.087l-0.235,0.087l-0.236,0.085l-0.235,0.084l-0.235,0.084l-0.236,0.082l-0.235,0.081l-0.235,0.081l-0.241,0.081l-0.464,0.154l-0.469,0.152l-0.469,0.149l-0.467,0.145l-0.467,0.141l-0.465,0.138l-0.464,0.135l-0.462,0.131l-0.461,0.127l-0.458,0.124l-0.456,0.121l-0.454,0.117l-0.452,0.114l-0.449,0.11l-0.446,0.108l-0.443,0.104l-0.439,0.101l-0.437,0.097l-0.433,0.095l-0.429,0.091l-0.425,0.088l-0.421,0.085l-0.417,0.082l-0.412,0.079l-0.408,0.076l-0.402,0.079l-0.398,0.076l-0.392,0.073l-0.387,0.07l-0.382,0.066l-0.377,0.064l-0.372,0.06l-0.367,0.057l-0.36,0.055l-0.356,0.051l-0.35,0.048l-0.345,0.045l-0.339,0.042l-0.334,0.038l-0.329,0.036l-0.324,0.032l-0.319,0.029l-0.316,0.026l-0.311,0.023l-0.309,0.019l-0.307,0.016l-0.098,0.004l-0.207,0.01l-0.291,0.011l-0.168,0.004l-0.155,0.003l-0.156,0.001l-0.158,0l-0.16,-0.001l-0.162,-0.004l-0.166,-0.005l-0.169,-0.008l-0.174,-0.01l0,0l-0.18,-0.012l-0.186,-0.017l-0.194,-0.02l-0.203,-0.025l-0.214,-0.03l-0.227,-0.038l-0.243,-0.046l-0.261,-0.058l-0.282,-0.071l-0.307,-0.09l-0.337,-0.112l-0.371,-0.143l-0.408,-0.183l-0.452,-0.234l-0.495,-0.304l-0.537,-0.391l-0.492,-0.434l-0.355,-0.366l-0.289,-0.335l-0.283,-0.371l-0.232,-0.348l-0.159,-0.265l-0.114,-0.203l-0.106,-0.201l-0.098,-0.198l-0.091,-0.195l-0.084,-0.192l-0.077,-0.188l-0.071,-0.186l-0.066,-0.182l-0.06,-0.18l-0.055,-0.176l-0.051,-0.173l-0.047,-0.17l-0.042,-0.167l-0.039,-0.164l-0.042,-0.19l-0.055,-0.286l-0.05,-0.306l-0.04,-0.298l-0.031,-0.289l-0.023,-0.282l-0.016,-0.276l-0.01,-0.271l-0.004,-0.265l0.001,-0.261l0.006,-0.258l0.011,-0.254l0.014,-0.251l0.019,-0.249l0.022,-0.246l0.026,-0.245l0.03,-0.244l0.032,-0.242l0.036,-0.242l0.039,-0.241l0.041,-0.24l0.045,-0.24l0.047,-0.24l0.051,-0.24l0.053,-0.24l0.056,-0.241l0.01,-0.042l0.045,-0.199l0.056,-0.242l0.06,-0.243l0.061,-0.244l0.065,-0.244l0.067,-0.245l0.07,-0.246l0.072,-0.247l0.075,-0.247l0.077,-0.249l0.08,-0.249l0.083,-0.25l0.085,-0.252l0.088,-0.252l0.09,-0.253l0.093,-0.255l0.096,-0.255l0.098,-0.256l0.101,-0.257l0.104,-0.258l0.106,-0.259l0.109,-0.26l0.112,-0.26l0.114,-0.262l0.117,-0.262l0.12,-0.264l0.122,-0.264l0.125,-0.265l0.128,-0.265l0.131,-0.266l0.053,-0.107l0.077,-0.162l0.132,-0.27l0.135,-0.27l0.137,-0.272l0.14,-0.272l0.143,-0.272l0.146,-0.273l0.149,-0.274l0.151,-0.274l0.155,-0.275l0.157,-0.274l0.161,-0.276l0.163,-0.275l0.167,-0.276l0.169,-0.276l0.172,-0.277l0.176,-0.276l0.178,-0.277l0.182,-0.277l0.185,-0.276l0.187,-0.277l0.191,-0.276l0.194,-0.277l0.197,-0.276l0.201,-0.276l0.203,-0.276l0.207,-0.275l0.134,-0.176l0.074,-0.1l0.21,-0.278l0.213,-0.277l0.216,-0.277l0.219,-0.277l0.223,-0.275l0.227,-0.276l0.229,-0.274l0.233,-0.274l0.237,-0.273l0.24,-0.272l0.244,-0.271l0.247,-0.27l0.25,-0.27l0.254,-0.268l0.258,-0.267l0.262,-0.266l0.265,-0.264l0.268,-0.263l0.273,-0.262l0.276,-0.26l0.28,-0.259l0.283,-0.257l0.28,-0.25l0.152,-0.133l0.146,-0.127l0.147,-0.126l0.148,-0.126l0.149,-0.125l0.149,-0.125l0.151,-0.124l0.152,-0.124l0.152,-0.123l0.154,-0.123l0.155,-0.122l0.155,-0.122l0.157,-0.121l0.157,-0.121l0.158,-0.12l0.16,-0.119l0.16,-0.119l0.161,-0.119l0.163,-0.117l0.163,-0.118l0.164,-0.116l0.165,-0.116l0.167,-0.115l0.167,-0.115l0.168,-0.114l0.169,-0.113l0.17,-0.113l0.174,-0.113l0.183,-0.118l0.186,-0.118l0.188,-0.117l0.188,-0.116l0.191,-0.114l0.191,-0.114l0.192,-0.113l0.194,-0.111l0.195,-0.11l0.197,-0.11l0.198,-0.107l0.198,-0.107l0.201,-0.106l0.201,-0.104l0.203,-0.103l0.204,-0.101l0.206,-0.1l0.206,-0.099l0.208,-0.098l0.21,-0.095l0.211,-0.095l0.212,-0.093l0.052,-0.023l0.161,-0.07l0.214,-0.092l0.215,-0.09l0.217,-0.089l0.218,-0.087l0.22,-0.085l0.222,-0.084l0.222,-0.082l0.225,-0.08l0.225,-0.078l0.228,-0.077l0.228,-0.074l0.231,-0.073l0.231,-0.07l0.234,-0.068l0.235,-0.067l0.236,-0.064l0.238,-0.062l0.24,-0.059l0.241,-0.057l0.243,-0.055l0.245,-0.053l0.246,-0.05l0.248,-0.047l0.249,-0.044l0.251,-0.042l0.253,-0.039l0.254,-0.037l0.256,-0.033l0.258,-0.03l0.259,-0.028l0.261,-0.024l0.262,-0.021l0.264,-0.017l0.266,-0.014l0.267,-0.011l0.269,-0.007l0.27,-0.003l0.272,0Zm-1.001,8.799l-0.152,0.002l-0.152,0.005l-0.152,0.006l-0.153,0.008l-0.153,0.01l-0.153,0.012l-0.153,0.014l-0.154,0.016l-0.153,0.017l-0.154,0.02l-0.154,0.021l-0.154,0.023l-0.154,0.024l-0.154,0.027l-0.154,0.028l-0.154,0.03l-0.155,0.031l-0.154,0.033l-0.154,0.035l-0.155,0.037l-0.154,0.038l-0.154,0.039l-0.154,0.041l-0.154,0.043l-0.154,0.044l-0.154,0.046l-0.153,0.047l-0.154,0.049l-0.153,0.05l-0.153,0.052l-0.153,0.053l-0.152,0.054l-0.152,0.056l-0.152,0.057l-0.152,0.058l-0.152,0.06l-0.151,0.061l-0.15,0.063l-0.151,0.063l-0.15,0.065l-0.15,0.066l-0.149,0.067l-0.149,0.069l-0.148,0.069l-0.148,0.071l-0.147,0.072l-0.147,0.073l-0.147,0.074l-0.145,0.075l-0.146,0.076l-0.144,0.077l-0.145,0.078l-0.143,0.079l-0.143,0.08l-0.142,0.081l-0.142,0.082l-0.141,0.083l-0.137,0.082l-0.137,0.083l-0.135,0.083l-0.136,0.083l-0.134,0.084l-0.134,0.085l-0.133,0.085l-0.133,0.086l-0.132,0.087l-0.131,0.087l-0.131,0.088l-0.13,0.088l-0.129,0.089l-0.129,0.089l-0.128,0.09l-0.127,0.09l-0.127,0.091l-0.126,0.091l-0.125,0.092l-0.125,0.093l-0.124,0.093l-0.124,0.093l-0.123,0.094l-0.122,0.094l-0.122,0.095l-0.12,0.095l-0.121,0.096l-0.119,0.096l-0.238,0.194l-0.235,0.196l-0.232,0.197l-0.229,0.198l-0.228,0.201l-0.224,0.202l-0.222,0.203l-0.22,0.205l-0.216,0.206l-0.215,0.207l-0.212,0.209l-0.209,0.21l-0.207,0.211l-0.204,0.212l-0.201,0.213l-0.199,0.214l-0.197,0.216l-0.194,0.216l-0.191,0.217l-0.189,0.217l-0.187,0.219l-0.184,0.219l-0.181,0.22l-0.179,0.22l-0.177,0.221l-0.174,0.222l-0.171,0.222l-0.169,0.222l-0.166,0.222l-0.164,0.223l-0.161,0.224l-0.159,0.223l-0.157,0.223l-0.154,0.224l-0.151,0.223l-0.149,0.224l-0.146,0.224l-0.144,0.223l-0.142,0.223l-0.139,0.223l-0.137,0.223l-0.134,0.222l-0.131,0.222l-0.129,0.222l-0.127,0.221l-0.124,0.22l-0.122,0.22l-0.12,0.219l-0.116,0.219l-0.115,0.218l-0.112,0.217l-0.109,0.216l-0.108,0.215l-0.104,0.215l-0.102,0.213l-0.1,0.213l-0.098,0.211l-0.095,0.21l-0.092,0.209l-0.09,0.207l-0.088,0.207l-0.085,0.205l-0.083,0.203l-0.08,0.202l-0.078,0.201l-0.076,0.199l-0.073,0.197l-0.071,0.196l-0.069,0.194l-0.066,0.192l-0.063,0.191l-0.061,0.188l-0.059,0.187l-0.057,0.184l-0.054,0.183l-0.051,0.181l-0.05,0.178l-0.047,0.176l-0.044,0.174l-0.042,0.172l-0.04,0.169l-0.038,0.167l-0.035,0.165l-0.032,0.162l-0.031,0.16l-0.028,0.156l-0.025,0.155l-0.024,0.151l-0.021,0.149l-0.018,0.146l-0.016,0.143l-0.014,0.141l-0.012,0.137l-0.009,0.134l-0.007,0.132l-0.005,0.128l-0.002,0.125l0,0.122l0.003,0.118l0.004,0.116l0.007,0.112l0.01,0.108l0.011,0.105l0.014,0.102l0.017,0.097l0.018,0.095l0.011,0.046l0.01,0.044l0.012,0.044l0.012,0.043l0.012,0.042l0.013,0.041l0.014,0.041l0.014,0.039l0.015,0.038l0.015,0.037l0.016,0.036l0.016,0.036l0.017,0.034l0.018,0.033l0.018,0.032l0.019,0.032l0.007,0.01l0.008,0.01l0.008,0.01l0.01,0.01l0.021,0.018l0.024,0.018l0.028,0.017l0.031,0.016l0.034,0.015l0.037,0.015l0.04,0.013l0.044,0.013l0.046,0.011l0.05,0.011l0.052,0.01l0.055,0.009l0.059,0.008l0.061,0.007l0.064,0.007l0.067,0.005l0.07,0.005l0.072,0.004l0.076,0.003l0.078,0.002l0.08,0.001l0.084,0.001l0.086,-0.001l0.088,-0.001l0.092,-0.002l0.094,-0.004l0.195,-0.008l0.205,-0.012l0.215,-0.016l0.224,-0.018l0.233,-0.022l0.243,-0.026l0.251,-0.029l0.26,-0.032l0.268,-0.035l0.276,-0.039l0.283,-0.042l0.292,-0.046l0.299,-0.048l0.305,-0.052l0.313,-0.055l0.32,-0.059l0.326,-0.062l0.332,-0.064l0.338,-0.068l0.344,-0.072l0.349,-0.074l0.355,-0.078l0.36,-0.081l0.365,-0.084l0.369,-0.087l0.374,-0.09l0.377,-0.093l0.382,-0.097l0.385,-0.099l0.389,-0.103l0.392,-0.106l0.395,-0.109l0.398,-0.112l0.401,-0.114l0.402,-0.118l0.405,-0.121l0.407,-0.124l0.408,-0.127l0.41,-0.13l0.41,-0.133l0.412,-0.136l0.413,-0.139l0.413,-0.142l0.413,-0.145l0.413,-0.148l0.413,-0.15l0.412,-0.154l0.412,-0.156l0.206,-0.08l0.205,-0.08l0.205,-0.08l0.205,-0.082l0.204,-0.082l0.204,-0.083l0.204,-0.083l0.203,-0.085l0.203,-0.085l0.202,-0.085l0.202,-0.087l0.201,-0.087l0.201,-0.088l0.2,-0.088l0.199,-0.09l0.199,-0.09l0.198,-0.09l0.197,-0.092l0.197,-0.092l0.195,-0.092l0.195,-0.094l0.195,-0.094l0.193,-0.095l0.192,-0.095l0.192,-0.096l0.19,-0.097l0.19,-0.098l0.189,-0.098l0.187,-0.099l0.187,-0.1l0.185,-0.1l0.184,-0.101l0.184,-0.102l0.182,-0.102l0.18,-0.103l0.18,-0.104l0.178,-0.104l0.177,-0.105l0.176,-0.106l0.174,-0.106l0.173,-0.107l0.172,-0.108l0.17,-0.108l0.168,-0.109l0.168,-0.11l0.165,-0.11l0.164,-0.111l0.163,-0.112l0.161,-0.112l0.159,-0.113l0.158,-0.114l0.155,-0.114l0.155,-0.115l0.152,-0.115l0.151,-0.117l0.149,-0.116l0.147,-0.118l0.145,-0.118l0.143,-0.119l0.141,-0.119l0.14,-0.12l0.137,-0.121l0.136,-0.121l0.133,-0.122l0.131,-0.123l0.13,-0.123l0.127,-0.124l0.125,-0.125l0.122,-0.125l0.121,-0.125l0.118,-0.127l0.116,-0.127l0.114,-0.127l0.111,-0.129l0.109,-0.129l0.107,-0.129l0.104,-0.13l0.102,-0.131l0.1,-0.131l0.097,-0.132l0.094,-0.133l0.092,-0.133l0.089,-0.134l0.086,-0.134l0.084,-0.135l0.082,-0.136l0.078,-0.136l0.076,-0.137l0.073,-0.137l0.071,-0.138l0.067,-0.139l0.065,-0.139l0.062,-0.14l0.059,-0.14l0.056,-0.141l0.053,-0.142l0.025,-0.071l0.025,-0.071l0.023,-0.071l0.024,-0.072l0.022,-0.071l0.022,-0.072l0.02,-0.072l0.02,-0.072l0.02,-0.072l0.018,-0.072l0.018,-0.073l0.017,-0.072l0.016,-0.073l0.016,-0.073l0.014,-0.073l0.014,-0.073l0.013,-0.074l0.012,-0.073l0.011,-0.074l0.011,-0.074l0.01,-0.074l0.008,-0.074l0.009,-0.074l0.007,-0.074l0.006,-0.075l0.006,-0.074l0.005,-0.075l0.003,-0.075l0.003,-0.075l0.003,-0.075l0.001,-0.076l0,-0.075l0,-0.076l-0.001,-0.076l-0.002,-0.076l-0.003,-0.076l-0.004,-0.076l-0.005,-0.076l-0.005,-0.077l-0.007,-0.076l-0.007,-0.077l-0.009,-0.077l-0.009,-0.077l-0.01,-0.077l-0.011,-0.078l-0.012,-0.077l-0.013,-0.078l-0.013,-0.077l-0.015,-0.078l-0.016,-0.078l-0.016,-0.078l-0.018,-0.079l-0.018,-0.078l-0.019,-0.079l-0.02,-0.079l-0.022,-0.078l-0.022,-0.079l-0.023,-0.08l-0.024,-0.079l-0.025,-0.079l-0.026,-0.08l-0.027,-0.079l-0.028,-0.08l-0.028,-0.08l-0.03,-0.08l-0.031,-0.081l-0.032,-0.08l-0.033,-0.081l-0.033,-0.08l-0.035,-0.081l-0.036,-0.081l-0.037,-0.081l-0.087,-0.186l-0.089,-0.184l-0.09,-0.18l-0.092,-0.176l-0.093,-0.174l-0.095,-0.17l-0.096,-0.167l-0.097,-0.163l-0.099,-0.161l-0.1,-0.157l-0.102,-0.154l-0.103,-0.151l-0.104,-0.148l-0.106,-0.145l-0.107,-0.141l-0.108,-0.139l-0.11,-0.136l-0.11,-0.132l-0.112,-0.13l-0.113,-0.126l-0.115,-0.124l-0.115,-0.12l-0.117,-0.118l-0.117,-0.115l-0.119,-0.112l-0.12,-0.109l-0.121,-0.106l-0.123,-0.103l-0.123,-0.101l-0.124,-0.097l-0.125,-0.095l-0.126,-0.092l-0.128,-0.09l-0.128,-0.087l-0.129,-0.084l-0.13,-0.081l-0.131,-0.079l-0.132,-0.076l-0.132,-0.073l-0.134,-0.071l-0.134,-0.068l-0.136,-0.066l-0.136,-0.063l-0.136,-0.06l-0.138,-0.059l-0.138,-0.055l-0.139,-0.053l-0.14,-0.051l-0.141,-0.048l-0.141,-0.046l-0.142,-0.044l-0.142,-0.041l-0.143,-0.038l-0.144,-0.037l-0.144,-0.034l-0.145,-0.032l-0.146,-0.029l-0.146,-0.027l-0.146,-0.025l-0.148,-0.023l-0.147,-0.021l-0.148,-0.018l-0.149,-0.016l-0.149,-0.014l-0.149,-0.012l-0.15,-0.01l-0.15,-0.008l-0.15,-0.006l-0.151,-0.004l-0.151,-0.001l-0.152,0Z" style="fill:#7c7c7c;"/><path d="M46.194,2.769l0.262,0.006l0.26,0.009l0.258,0.014l0.257,0.017l0.254,0.02l0.253,0.025l0.251,0.027l0.25,0.031l0.247,0.034l0.246,0.037l0.243,0.04l0.242,0.043l0.24,0.046l0.238,0.049l0.236,0.051l0.234,0.054l0.232,0.057l0.231,0.06l0.228,0.062l0.227,0.064l0.224,0.067l0.223,0.068l0.221,0.072l0.219,0.073l0.016,0.006l0.202,0.066l0.216,0.074l0.214,0.076l0.213,0.078l0.211,0.08l0.209,0.082l0.208,0.084l0.206,0.085l0.204,0.087l0.202,0.089l0.201,0.091l0.199,0.092l0.198,0.094l0.196,0.095l0.194,0.097l0.193,0.098l0.191,0.1l0.189,0.101l0.188,0.103l0.187,0.103l0.185,0.106l0.183,0.106l0.182,0.108l0.18,0.109l0.179,0.11l0.177,0.111l0.176,0.112l0.175,0.114l0.172,0.115l0.172,0.115l0.17,0.117l0.168,0.118l0.168,0.118l0.165,0.12l0.165,0.121l0.162,0.121l0.16,0.122l0.15,0.117l0.148,0.116l0.146,0.117l0.145,0.117l0.144,0.118l0.043,0.036l0.102,0.08l0.144,0.116l0.142,0.117l0.142,0.117l0.141,0.118l0.14,0.118l0.138,0.119l0.138,0.119l0.137,0.119l0.135,0.121l0.135,0.12l0.133,0.121l0.133,0.122l0.131,0.122l0.131,0.122l0.129,0.123l0.128,0.124l0.128,0.123l0.126,0.125l0.126,0.124l0.124,0.125l0.124,0.125l0.129,0.131l0.235,0.247l0.238,0.254l0.234,0.255l0.23,0.256l0.227,0.258l0.222,0.258l0.219,0.26l0.216,0.26l0.211,0.262l0.208,0.262l0.204,0.263l0.192,0.252l0.009,0.012l0.204,0.257l0.201,0.259l0.197,0.26l0.194,0.26l0.19,0.26l0.187,0.262l0.184,0.261l0.181,0.263l0.177,0.262l0.174,0.263l0.171,0.263l0.168,0.263l0.164,0.264l0.162,0.263l0.158,0.264l0.156,0.264l0.152,0.263l0.149,0.264l0.147,0.264l0.143,0.263l0.141,0.263l0.137,0.263l0.135,0.262l0.132,0.263l0.058,0.117l0.075,0.142l0.134,0.257l0.132,0.256l0.128,0.256l0.126,0.256l0.123,0.255l0.121,0.255l0.118,0.254l0.115,0.254l0.113,0.253l0.11,0.252l0.107,0.252l0.104,0.248l0.001,0.003l0.109,0.247l0.107,0.246l0.105,0.246l0.101,0.244l0.1,0.245l0.097,0.243l0.094,0.242l0.092,0.242l0.089,0.24l0.087,0.24l0.085,0.239l0.082,0.238l0.061,0.183l0.02,0.053l0.087,0.232l0.084,0.232l0.082,0.23l0.079,0.23l0.077,0.229l0.075,0.228l0.072,0.227l0.069,0.226l0.067,0.225l0.065,0.224l0.063,0.223l0.06,0.222l0.057,0.221l0.056,0.221l0.052,0.219l0.051,0.218l0.047,0.217l0.046,0.217l0.043,0.215l0.04,0.215l0.038,0.214l0.036,0.214l0.033,0.213l0.03,0.212l0.028,0.212l0.025,0.211l0.022,0.211l0.019,0.211l0.016,0.212l0.014,0.211l0.01,0.212l0.007,0.212l0.004,0.213l0,0.107l0.003,0.107l0.001,0.216l-0.003,0.217l-0.007,0.22l-0.012,0.222l-0.017,0.225l-0.023,0.228l-0.029,0.233l-0.036,0.236l-0.044,0.241l-0.052,0.247l-0.061,0.252l-0.066,0.236l-0.047,0.153l-0.044,0.134l-0.048,0.135l-0.05,0.137l-0.055,0.139l-0.059,0.141l-0.064,0.143l-0.068,0.145l-0.073,0.146l-0.079,0.148l-0.084,0.149l-0.157,0.261l-0.308,0.43l-0.402,0.447l-0.395,0.363l-0.377,0.289l-0.353,0.231l-0.325,0.185l-0.299,0.148l-0.275,0.119l-0.253,0.098l-0.234,0.08l-0.218,0.067l-0.204,0.056l-0.192,0.047l-0.181,0.04l-0.173,0.035l-0.166,0.03l-0.159,0.026l-0.155,0.022l-0.15,0.02l-0.146,0.018l-0.144,0.016l-0.141,0.013l-0.14,0.012l-0.138,0.011l-0.137,0.009l-0.136,0.008l-0.136,0.007l-0.147,0.006l-0.259,0.009l-0.272,0.006l-0.275,0.002l-0.277,0l-0.282,-0.004l-0.285,-0.006l-0.29,-0.009l-0.295,-0.012l-0.3,-0.014l-0.306,-0.017l-0.31,-0.02l-0.317,-0.022l-0.115,-0.009l-0.207,-0.011l-0.328,-0.019l-0.333,-0.022l-0.339,-0.024l-0.344,-0.027l-0.35,-0.029l-0.354,-0.032l-0.36,-0.034l-0.364,-0.037l-0.37,-0.04l-0.374,-0.042l-0.378,-0.045l-0.383,-0.047l-0.387,-0.051l-0.391,-0.053l-0.395,-0.056l-0.399,-0.058l-0.402,-0.062l-0.406,-0.064l-0.289,-0.048l-0.121,-0.018l-0.414,-0.062l-0.417,-0.066l-0.421,-0.069l-0.423,-0.071l-0.425,-0.075l-0.428,-0.078l-0.43,-0.081l-0.433,-0.085l-0.434,-0.088l-0.436,-0.091l-0.437,-0.095l-0.44,-0.098l-0.44,-0.102l-0.441,-0.105l-0.443,-0.109l-0.437,-0.111l-0.113,-0.029l-0.116,-0.029l-0.224,-0.055l-0.224,-0.056l-0.224,-0.057l-0.224,-0.057l-0.224,-0.059l-0.225,-0.06l-0.224,-0.061l-0.225,-0.063l-0.224,-0.063l-0.225,-0.064l-0.225,-0.066l-0.224,-0.066l-0.225,-0.068l-0.225,-0.069l-0.224,-0.07l-0.225,-0.072l-0.224,-0.072l-0.225,-0.074l-0.224,-0.075l-0.224,-0.077l-0.224,-0.077l-0.224,-0.079l-0.224,-0.081l-0.224,-0.081l-0.223,-0.084l-0.223,-0.084l-0.223,-0.086l-0.223,-0.088l-0.223,-0.089l-0.222,-0.09l-0.222,-0.092l-0.222,-0.094l-0.222,-0.095l-0.221,-0.097l-0.221,-0.099l-0.22,-0.1l-0.221,-0.102l-0.22,-0.104l-0.219,-0.106l-0.22,-0.107l-0.218,-0.11l-0.219,-0.111l-0.218,-0.114l-0.218,-0.115l-0.217,-0.118l-0.217,-0.12l-0.216,-0.122l-0.216,-0.124l-0.215,-0.127l-0.215,-0.129l-0.214,-0.131l-0.214,-0.134l-0.213,-0.136l-0.213,-0.139l-0.211,-0.142l-0.212,-0.145l-0.21,-0.147l-0.21,-0.151l-0.209,-0.153l-0.209,-0.156l-0.207,-0.16l-0.207,-0.163l-0.206,-0.166l-0.205,-0.169l-0.203,-0.173l-0.072,-0.063l-0.132,-0.113l-0.204,-0.178l-0.202,-0.182l-0.202,-0.187l-0.2,-0.19l-0.198,-0.194l-0.197,-0.199l-0.196,-0.203l-0.194,-0.207l-0.192,-0.212l-0.19,-0.217l-0.188,-0.221l-0.186,-0.226l-0.184,-0.231l-0.181,-0.236l-0.179,-0.241l-0.176,-0.246l-0.173,-0.251l-0.17,-0.256l-0.167,-0.262l-0.163,-0.267l-0.159,-0.272l-0.156,-0.277l-0.151,-0.283l-0.147,-0.288l-0.143,-0.293l-0.138,-0.299l-0.132,-0.303l-0.128,-0.309l-0.122,-0.313l-0.116,-0.318l-0.11,-0.323l-0.104,-0.328l-0.092,-0.307l-0.052,-0.192l-0.045,-0.168l-0.043,-0.17l-0.041,-0.17l-0.04,-0.171l-0.038,-0.172l-0.036,-0.173l-0.034,-0.174l-0.032,-0.175l-0.031,-0.175l-0.028,-0.176l-0.027,-0.177l-0.025,-0.178l-0.023,-0.178l-0.021,-0.178l-0.02,-0.18l-0.017,-0.179l-0.015,-0.181l-0.014,-0.18l-0.011,-0.181l-0.009,-0.182l-0.008,-0.181l-0.005,-0.182l-0.004,-0.183l-0.002,-0.182l0.001,-0.183l0.002,-0.182l0.004,-0.183l0.007,-0.183l0.008,-0.183l0.01,-0.183l0.012,-0.183l0.014,-0.183l0.016,-0.182l0.018,-0.183l0.02,-0.182l0.021,-0.182l0.024,-0.182l0.025,-0.182l0.027,-0.181l0.029,-0.181l0.031,-0.181l0.033,-0.18l0.034,-0.18l0.036,-0.18l0.038,-0.179l0.039,-0.178l0.042,-0.179l0.042,-0.177l0.045,-0.177l0.046,-0.177l0.048,-0.176l0.049,-0.176l0.051,-0.175l0.053,-0.174l0.054,-0.174l0.055,-0.173l0.057,-0.172l0.059,-0.172l0.06,-0.172l0.061,-0.17l0.002,-0.006l0.061,-0.165l0.063,-0.169l0.068,-0.191l0.184,-0.259l0.009,-0.013l0.178,-0.267l0.189,-0.276l0.193,-0.273l0.195,-0.27l0.197,-0.267l0.201,-0.264l0.203,-0.26l0.206,-0.257l0.209,-0.254l0.212,-0.251l0.214,-0.247l0.218,-0.244l0.22,-0.24l0.223,-0.236l0.226,-0.233l0.228,-0.229l0.231,-0.225l0.234,-0.221l0.237,-0.218l0.24,-0.213l0.242,-0.209l0.052,-0.044l0.191,-0.163l0.244,-0.203l0.248,-0.199l0.25,-0.195l0.252,-0.19l0.255,-0.185l0.257,-0.181l0.259,-0.177l0.261,-0.171l0.264,-0.167l0.265,-0.162l0.267,-0.157l0.269,-0.152l0.27,-0.147l0.272,-0.142l0.274,-0.137l0.274,-0.132l0.276,-0.127l0.276,-0.122l0.278,-0.116l0.278,-0.111l0.279,-0.106l0.279,-0.101l0.28,-0.096l0.28,-0.091l0.28,-0.085l0.281,-0.08l0.28,-0.076l0.279,-0.07l0.28,-0.065l0.279,-0.06l0.278,-0.056l0.278,-0.05l0.277,-0.046l0.276,-0.041l0.275,-0.036l0.275,-0.032l0.273,-0.027l0.271,-0.023l0.271,-0.019l0.269,-0.014l0.268,-0.01l0.266,-0.006l0.265,-0.002l0.263,0.003Zm1.386,8.376l-0.142,0.003l-0.142,0.004l-0.141,0.007l-0.142,0.008l-0.141,0.011l-0.141,0.012l-0.14,0.014l-0.141,0.017l-0.14,0.018l-0.139,0.021l-0.14,0.022l-0.139,0.025l-0.138,0.027l-0.139,0.029l-0.138,0.031l-0.137,0.033l-0.137,0.036l-0.137,0.038l-0.136,0.04l-0.136,0.042l-0.135,0.044l-0.135,0.047l-0.134,0.049l-0.134,0.051l-0.133,0.054l-0.133,0.056l-0.132,0.059l-0.132,0.061l-0.131,0.063l-0.13,0.066l-0.13,0.068l-0.129,0.07l-0.128,0.073l-0.128,0.076l-0.127,0.078l-0.126,0.081l-0.126,0.083l-0.124,0.086l-0.124,0.088l-0.124,0.091l-0.122,0.094l-0.122,0.096l-0.121,0.099l-0.12,0.102l-0.119,0.104l-0.118,0.107l-0.118,0.11l-0.117,0.112l-0.115,0.116l-0.115,0.118l-0.114,0.121l-0.113,0.124l-0.112,0.126l-0.11,0.13l-0.11,0.132l-0.109,0.135l-0.108,0.139l-0.107,0.141l-0.106,0.144l-0.104,0.147l-0.104,0.15l-0.102,0.153l-0.102,0.156l-0.1,0.159l-0.099,0.163l-0.098,0.165l-0.097,0.168l-0.095,0.172l-0.094,0.174l-0.094,0.178l-0.091,0.181l-0.091,0.184l-0.038,0.08l-0.037,0.08l-0.037,0.08l-0.035,0.079l-0.035,0.08l-0.033,0.079l-0.033,0.079l-0.032,0.079l-0.031,0.078l-0.03,0.079l-0.029,0.078l-0.028,0.078l-0.027,0.078l-0.026,0.078l-0.025,0.078l-0.025,0.077l-0.024,0.078l-0.022,0.077l-0.022,0.077l-0.021,0.077l-0.02,0.077l-0.019,0.076l-0.018,0.076l-0.018,0.077l-0.016,0.076l-0.016,0.076l-0.015,0.075l-0.014,0.076l-0.013,0.075l-0.012,0.075l-0.012,0.075l-0.01,0.075l-0.01,0.075l-0.009,0.075l-0.008,0.074l-0.007,0.074l-0.007,0.074l-0.005,0.074l-0.005,0.074l-0.004,0.073l-0.003,0.074l-0.003,0.073l-0.001,0.073l-0.001,0.073l0,0.073l0.001,0.072l0.002,0.073l0.002,0.072l0.003,0.072l0.004,0.072l0.005,0.072l0.006,0.071l0.006,0.071l0.007,0.072l0.008,0.071l0.008,0.071l0.01,0.07l0.01,0.071l0.011,0.07l0.012,0.071l0.012,0.07l0.013,0.07l0.014,0.069l0.015,0.07l0.031,0.139l0.034,0.138l0.037,0.137l0.04,0.136l0.043,0.136l0.046,0.136l0.048,0.134l0.052,0.134l0.053,0.134l0.057,0.132l0.059,0.132l0.062,0.131l0.064,0.131l0.067,0.13l0.07,0.129l0.072,0.129l0.075,0.128l0.077,0.127l0.079,0.126l0.082,0.126l0.085,0.126l0.086,0.124l0.089,0.124l0.092,0.123l0.093,0.123l0.096,0.121l0.098,0.122l0.101,0.12l0.102,0.12l0.105,0.119l0.107,0.118l0.109,0.118l0.111,0.117l0.113,0.117l0.115,0.115l0.117,0.115l0.119,0.115l0.121,0.113l0.122,0.113l0.125,0.113l0.127,0.111l0.128,0.111l0.13,0.11l0.132,0.11l0.134,0.109l0.135,0.108l0.137,0.108l0.139,0.106l0.141,0.107l0.142,0.105l0.143,0.105l0.145,0.104l0.147,0.103l0.148,0.103l0.15,0.102l0.151,0.101l0.153,0.101l0.154,0.1l0.155,0.099l0.157,0.099l0.158,0.097l0.159,0.098l0.161,0.096l0.162,0.096l0.163,0.095l0.164,0.094l0.165,0.094l0.167,0.093l0.168,0.092l0.168,0.092l0.17,0.091l0.171,0.09l0.172,0.09l0.172,0.088l0.174,0.089l0.175,0.087l0.175,0.087l0.176,0.086l0.178,0.085l0.178,0.085l0.178,0.084l0.18,0.083l0.18,0.082l0.181,0.082l0.182,0.081l0.182,0.081l0.183,0.08l0.184,0.079l0.184,0.078l0.184,0.077l0.185,0.077l0.186,0.077l0.186,0.075l0.187,0.075l0.187,0.074l0.187,0.073l0.188,0.073l0.188,0.072l0.188,0.071l0.189,0.071l0.377,0.139l0.379,0.136l0.379,0.133l0.38,0.131l0.379,0.127l0.38,0.125l0.379,0.122l0.379,0.119l0.378,0.116l0.377,0.114l0.376,0.11l0.375,0.108l0.373,0.105l0.371,0.102l0.369,0.099l0.367,0.096l0.364,0.093l0.362,0.09l0.359,0.088l0.356,0.084l0.353,0.082l0.349,0.079l0.345,0.076l0.341,0.072l0.337,0.071l0.333,0.067l0.328,0.064l0.324,0.061l0.318,0.058l0.313,0.056l0.308,0.052l0.302,0.05l0.296,0.047l0.29,0.043l0.284,0.041l0.277,0.038l0.271,0.035l0.264,0.032l0.256,0.028l0.249,0.026l0.241,0.023l0.234,0.021l0.226,0.017l0.217,0.014l0.209,0.011l0.2,0.008l0.191,0.005l0.183,0.002l0.087,0l0.086,-0.001l0.083,-0.001l0.08,-0.002l0.078,-0.003l0.076,-0.004l0.073,-0.005l0.071,-0.005l0.068,-0.006l0.065,-0.007l0.063,-0.007l0.06,-0.009l0.058,-0.009l0.055,-0.009l0.052,-0.011l0.05,-0.011l0.046,-0.012l0.044,-0.013l0.042,-0.014l0.038,-0.014l0.035,-0.015l0.033,-0.016l0.03,-0.016l0.026,-0.018l0.024,-0.018l0.021,-0.019l0.018,-0.019l0.014,-0.021l0.019,-0.031l0.019,-0.032l0.018,-0.032l0.018,-0.034l0.017,-0.035l0.016,-0.036l0.016,-0.037l0.016,-0.037l0.015,-0.039l0.015,-0.039l0.014,-0.041l0.014,-0.041l0.026,-0.085l0.023,-0.089l0.022,-0.092l0.02,-0.096l0.018,-0.099l0.016,-0.102l0.014,-0.106l0.012,-0.109l0.01,-0.112l0.008,-0.116l0.006,-0.118l0.004,-0.122l0.002,-0.124l-0.001,-0.128l-0.002,-0.13l-0.004,-0.133l-0.006,-0.136l-0.009,-0.139l-0.01,-0.141l-0.013,-0.144l-0.014,-0.147l-0.017,-0.149l-0.018,-0.152l-0.021,-0.154l-0.023,-0.157l-0.025,-0.158l-0.027,-0.162l-0.029,-0.163l-0.032,-0.166l-0.033,-0.167l-0.035,-0.17l-0.038,-0.172l-0.04,-0.174l-0.042,-0.176l-0.044,-0.178l-0.046,-0.179l-0.048,-0.182l-0.05,-0.183l-0.053,-0.184l-0.055,-0.187l-0.057,-0.188l-0.059,-0.19l-0.061,-0.191l-0.063,-0.192l-0.066,-0.194l-0.068,-0.195l-0.07,-0.197l-0.072,-0.198l-0.074,-0.199l-0.077,-0.2l-0.079,-0.201l-0.081,-0.202l-0.083,-0.204l-0.085,-0.204l-0.088,-0.205l-0.09,-0.206l-0.092,-0.207l-0.095,-0.207l-0.096,-0.208l-0.099,-0.209l-0.101,-0.21l-0.104,-0.21l-0.106,-0.21l-0.108,-0.211l-0.11,-0.211l-0.113,-0.212l-0.114,-0.212l-0.117,-0.212l-0.12,-0.212l-0.122,-0.213l-0.124,-0.212l-0.126,-0.213l-0.129,-0.213l-0.131,-0.212l-0.133,-0.213l-0.136,-0.212l-0.138,-0.212l-0.14,-0.212l-0.143,-0.211l-0.145,-0.211l-0.147,-0.211l-0.15,-0.211l-0.152,-0.209l-0.155,-0.21l-0.157,-0.208l-0.159,-0.208l-0.161,-0.207l-0.164,-0.207l-0.167,-0.206l-0.169,-0.204l-0.171,-0.204l-0.174,-0.203l-0.176,-0.202l-0.178,-0.201l-0.181,-0.2l-0.183,-0.198l-0.186,-0.198l-0.188,-0.196l-0.191,-0.195l-0.193,-0.193l-0.196,-0.192l-0.198,-0.191l-0.2,-0.189l-0.203,-0.188l-0.205,-0.186l-0.208,-0.184l-0.211,-0.182l-0.212,-0.181l-0.108,-0.09l-0.108,-0.089l-0.108,-0.089l-0.11,-0.088l-0.11,-0.088l-0.11,-0.088l-0.111,-0.086l-0.112,-0.087l-0.112,-0.086l-0.113,-0.085l-0.114,-0.085l-0.114,-0.084l-0.115,-0.084l-0.115,-0.083l-0.117,-0.083l-0.116,-0.082l-0.118,-0.082l-0.118,-0.081l-0.119,-0.08l-0.119,-0.08l-0.12,-0.08l-0.12,-0.079l-0.122,-0.078l-0.121,-0.077l-0.123,-0.077l-0.123,-0.077l-0.124,-0.075l-0.124,-0.076l-0.128,-0.076l-0.129,-0.075l-0.129,-0.074l-0.13,-0.073l-0.131,-0.073l-0.131,-0.071l-0.131,-0.071l-0.133,-0.069l-0.133,-0.068l-0.133,-0.068l-0.134,-0.066l-0.135,-0.065l-0.135,-0.064l-0.135,-0.063l-0.136,-0.062l-0.136,-0.06l-0.137,-0.06l-0.138,-0.058l-0.137,-0.057l-0.138,-0.056l-0.139,-0.054l-0.139,-0.054l-0.139,-0.052l-0.139,-0.05l-0.14,-0.05l-0.14,-0.048l-0.141,-0.046l-0.141,-0.046l-0.141,-0.044l-0.141,-0.042l-0.141,-0.041l-0.142,-0.04l-0.142,-0.038l-0.142,-0.037l-0.142,-0.035l-0.142,-0.033l-0.143,-0.032l-0.142,-0.031l-0.143,-0.029l-0.143,-0.027l-0.143,-0.026l-0.143,-0.024l-0.143,-0.022l-0.143,-0.021l-0.143,-0.019l-0.143,-0.018l-0.142,-0.015l-0.143,-0.014l-0.143,-0.012l-0.143,-0.011l-0.143,-0.008l-0.143,-0.007l-0.142,-0.005l-0.143,-0.003l-0.142,-0.001l-0.142,0Z" style="fill:#7c7c7c;"/></g><path d="M9.395,65.489l128.7,0l0,70.052c0,4.117 -2.893,7.459 -6.455,7.459l-115.79,0c-3.563,0 -6.455,-3.342 -6.455,-7.459l0,-78.318c0,0 0,8.266 0,8.266Zm122.245,-15.725c1.348,0 2.601,0.479 3.637,1.297l-123.064,0c1.036,-0.818 2.288,-1.297 3.637,-1.297l115.79,0Z" style="fill:#ececec;"/><path d="M146.564,43.79c0,-3.297 -2.676,-5.973 -5.973,-5.973l-133.692,0c-3.297,0 -5.974,2.676 -5.974,5.973l0,16.01c0,1.055 0.857,1.912 1.912,1.912l141.816,0c1.055,0 1.911,-0.857 1.911,-1.912l0,-16.01Z" style="fill:#d6d6d6;"/><rect x="66.745" y="37.347" width="14" height="104.859" style="fill:#7c7c7c;"/></g></svg>
