<?xml version="1.0" encoding="UTF-8" standalone="no"?><!DOCTYPE svg PUBLIC "-//W3C//DTD SVG 1.1//EN" "http://www.w3.org/Graphics/SVG/1.1/DTD/svg11.dtd"><svg width="100%" height="100%" viewBox="0 0 155 149" version="1.1" xmlns="http://www.w3.org/2000/svg" xmlns:xlink="http://www.w3.org/1999/xlink" xml:space="preserve" xmlns:serif="http://www.serif.com/" style="fill-rule:evenodd;clip-rule:evenodd;stroke-linejoin:round;stroke-miterlimit:1.41421;"><g id="gifts"><g><path d="M109.513,1.511l0.341,0.007l0.343,0.013l0.344,0.017l0.347,0.023l0.347,0.029l0.349,0.034l0.351,0.04l0.351,0.045l0.353,0.052l0.354,0.057l0.333,0.059l0.199,0.039l0.178,0.036l0.177,0.037l0.179,0.039l0.178,0.04l0.178,0.042l0.178,0.044l0.179,0.045l0.178,0.047l0.179,0.049l0.178,0.05l0.179,0.052l0.178,0.053l0.179,0.055l0.178,0.057l0.178,0.058l0.178,0.06l0.178,0.062l0.178,0.064l0.177,0.065l0.178,0.066l0.177,0.069l0.177,0.07l0.177,0.072l0.176,0.073l0.176,0.076l0.176,0.076l0.175,0.079l0.175,0.08l0.175,0.082l0.174,0.084l0.173,0.085l0.174,0.087l0.172,0.088l0.172,0.091l0.172,0.091l0.171,0.094l0.171,0.095l0.17,0.097l0.026,0.015l0.143,0.083l0.17,0.099l0.168,0.101l0.168,0.102l0.167,0.104l0.167,0.106l0.166,0.107l0.165,0.109l0.164,0.11l0.164,0.112l0.163,0.113l0.162,0.115l0.161,0.116l0.16,0.118l0.16,0.119l0.158,0.121l0.158,0.122l0.157,0.124l0.156,0.125l0.155,0.127l0.154,0.128l0.154,0.129l0.152,0.131l0.151,0.132l0.151,0.133l0.149,0.135l0.149,0.136l0.147,0.137l0.147,0.139l0.145,0.139l0.145,0.141l0.143,0.143l0.142,0.143l0.142,0.145l0.14,0.146l0.14,0.148l0.138,0.148l0.137,0.149l0.136,0.151l0.136,0.152l0.134,0.153l0.133,0.154l0.132,0.155l0.131,0.157l0.13,0.157l0.129,0.158l0.127,0.16l0.127,0.161l0.126,0.161l0.125,0.163l0.123,0.163l0.123,0.165l0.122,0.166l0.12,0.166l0.12,0.168l0.118,0.169l0.124,0.173l0.099,0.195l0.103,0.199l0.101,0.201l0.079,0.159l0.021,0.043l0.098,0.203l0.096,0.205l0.094,0.205l0.092,0.207l0.09,0.208l0.088,0.209l0.085,0.21l0.084,0.212l0.082,0.212l0.079,0.214l0.077,0.215l0.075,0.215l0.072,0.217l0.07,0.217l0.068,0.219l0.065,0.219l0.063,0.221l0.06,0.221l0.058,0.222l0.055,0.222l0.053,0.223l0.05,0.224l0.048,0.225l0.045,0.225l0.042,0.225l0.04,0.226l0.037,0.227l0.034,0.226l0.032,0.227l0.028,0.227l0.027,0.227l0.023,0.228l0.02,0.227l0.018,0.228l0.015,0.227l0.013,0.227l0.009,0.227l0.007,0.226l0.004,0.227l0.001,0.226l-0.001,0.225l-0.004,0.225l-0.007,0.225l-0.009,0.224l-0.012,0.223l-0.015,0.222l-0.017,0.222l-0.02,0.221l-0.023,0.22l-0.025,0.219l-0.027,0.218l-0.03,0.217l-0.033,0.216l-0.035,0.215l-0.037,0.213l-0.039,0.213l-0.042,0.211l-0.044,0.21l-0.046,0.209l-0.049,0.207l-0.05,0.206l-0.053,0.205l-0.055,0.203l-0.056,0.202l-0.059,0.201l-0.061,0.198l-0.062,0.198l-0.065,0.196l-0.066,0.194l-0.068,0.193l-0.069,0.191l-0.072,0.19l-0.073,0.188l-0.074,0.186l-0.076,0.185l-0.078,0.183l-0.079,0.182l-0.08,0.18l-0.082,0.179l-0.084,0.177l-0.084,0.175l-0.086,0.174l-0.088,0.172l-0.088,0.17l-0.09,0.169l-0.09,0.168l-0.092,0.166l-0.093,0.164l-0.094,0.163l-0.096,0.161l-0.096,0.16l-0.097,0.158l-0.098,0.157l-0.099,0.156l-0.1,0.153l-0.1,0.153l-0.102,0.151l-0.113,0.167l-0.196,0.277l-0.211,0.29l-0.213,0.284l-0.216,0.279l-0.218,0.273l-0.221,0.269l-0.223,0.264l-0.226,0.259l-0.228,0.255l-0.229,0.25l-0.009,0.009l-0.221,0.238l-0.232,0.244l-0.233,0.239l-0.235,0.235l-0.237,0.232l-0.238,0.228l-0.24,0.224l-0.242,0.221l-0.243,0.217l-0.244,0.215l-0.246,0.21l-0.247,0.208l-0.248,0.205l-0.25,0.202l-0.251,0.199l-0.252,0.196l-0.253,0.194l-0.255,0.191l-0.255,0.188l-0.257,0.186l-0.258,0.183l-0.258,0.182l-0.26,0.178l-0.261,0.177l-0.262,0.174l-0.262,0.172l-0.264,0.171l-0.265,0.168l-0.265,0.166l-0.266,0.164l-0.268,0.162l-0.268,0.16l-0.269,0.159l-0.269,0.156l-0.271,0.155l-0.271,0.154l-0.272,0.151l-0.273,0.15l-0.273,0.148l-0.274,0.147l-0.275,0.145l-0.275,0.143l-0.276,0.142l-0.277,0.141l-0.277,0.138l-0.278,0.138l-0.278,0.136l-0.279,0.135l-0.28,0.133l-0.279,0.132l-0.281,0.13l-0.28,0.129l-0.281,0.128l-0.282,0.127l-0.282,0.125l-0.282,0.124l-0.282,0.122l-0.283,0.122l-0.21,0.089l-0.073,0.032l-0.281,0.122l-0.282,0.122l-0.281,0.12l-0.282,0.119l-0.283,0.118l-0.282,0.117l-0.282,0.115l-0.283,0.115l-0.283,0.113l-0.282,0.112l-0.283,0.111l-0.282,0.11l-0.283,0.109l-0.283,0.107l-0.282,0.107l-0.282,0.105l-0.282,0.105l-0.282,0.103l-0.282,0.102l-0.282,0.101l-0.281,0.1l-0.281,0.099l-0.28,0.098l-0.281,0.097l-0.28,0.096l-0.279,0.095l-0.279,0.093l-0.284,0.095l-0.082,0.027l-0.466,0.16l-0.551,0.185l-0.548,0.181l-0.546,0.177l-0.543,0.173l-0.54,0.169l-0.537,0.165l-0.534,0.161l-0.529,0.157l-0.526,0.153l-0.522,0.148l-0.517,0.145l-0.513,0.14l-0.508,0.137l-0.502,0.133l-0.257,0.066l-0.24,0.066l-0.489,0.133l-0.484,0.129l-0.479,0.125l-0.472,0.12l-0.467,0.117l-0.46,0.112l-0.453,0.108l-0.448,0.104l-0.44,0.1l-0.434,0.096l-0.427,0.091l-0.42,0.088l-0.413,0.083l-0.406,0.079l-0.399,0.075l-0.392,0.071l-0.386,0.066l-0.38,0.063l-0.373,0.058l-0.013,0.002l-0.344,0.057l-0.191,0.031l-0.181,0.028l-0.179,0.027l-0.179,0.025l-0.178,0.025l-0.178,0.023l-0.177,0.022l-0.178,0.021l-0.177,0.019l-0.178,0.018l-0.179,0.017l-0.18,0.015l-0.182,0.014l-0.184,0.012l-0.187,0.011l-0.191,0.008l-0.194,0.006l-0.2,0.004l-0.207,0.001l-0.214,-0.002l-0.224,-0.007l-0.235,-0.011l-0.249,-0.017l-0.264,-0.024l-0.285,-0.034l-0.307,-0.045l-0.335,-0.061l-0.368,-0.081l-0.407,-0.109l-0.452,-0.145l-0.505,-0.195l-0.487,-0.226l-0.367,-0.198l-0.317,-0.188l-0.331,-0.217l-0.342,-0.25l-0.353,-0.288l-0.358,-0.327l-0.358,-0.371l-0.301,-0.354l-0.211,-0.275l-0.154,-0.214l-0.144,-0.212l-0.136,-0.211l-0.127,-0.209l-0.119,-0.207l-0.111,-0.204l-0.103,-0.203l-0.097,-0.199l-0.091,-0.197l-0.084,-0.195l-0.079,-0.191l-0.073,-0.189l-0.068,-0.187l-0.064,-0.184l-0.059,-0.181l-0.055,-0.179l-0.051,-0.177l-0.048,-0.174l-0.044,-0.172l-0.041,-0.17l-0.038,-0.168l-0.035,-0.166l-0.032,-0.164l-0.03,-0.163l-0.027,-0.161l-0.025,-0.159l-0.022,-0.158l-0.021,-0.156l-0.021,-0.176l-0.03,-0.285l-0.025,-0.302l-0.018,-0.298l-0.013,-0.296l-0.008,-0.292l-0.002,-0.29l0.003,-0.288l0.007,-0.287l0.011,-0.285l0.016,-0.285l0.019,-0.284l0.024,-0.283l0.027,-0.283l0.03,-0.281l0,-0.002l0.027,-0.284l0.031,-0.285l0.033,-0.285l0.037,-0.286l0.041,-0.287l0.043,-0.287l0.046,-0.289l0.05,-0.29l0.053,-0.291l0.056,-0.292l0.059,-0.294l0.062,-0.294l0.065,-0.297l0.068,-0.297l0.071,-0.299l0.074,-0.3l0.078,-0.302l0.08,-0.303l0.084,-0.305l0.086,-0.306l0.09,-0.307l0.093,-0.309l0.096,-0.31l0.099,-0.312l0.102,-0.313l0.106,-0.315l0.109,-0.315l0.111,-0.317l0.116,-0.318l0.118,-0.32l0.121,-0.321l0.125,-0.322l0.045,-0.113l0.078,-0.212l0.124,-0.328l0.127,-0.328l0.131,-0.33l0.134,-0.331l0.137,-0.333l0.14,-0.333l0.144,-0.334l0.148,-0.336l0.151,-0.336l0.154,-0.337l0.158,-0.338l0.161,-0.339l0.165,-0.34l0.169,-0.34l0.172,-0.342l0.176,-0.341l0.179,-0.343l0.183,-0.342l0.187,-0.344l0.191,-0.343l0.194,-0.344l0.198,-0.345l0.202,-0.344l0.206,-0.345l0.21,-0.345l0.213,-0.345l0.218,-0.345l0.123,-0.192l0.096,-0.155l0.22,-0.349l0.225,-0.348l0.228,-0.349l0.233,-0.348l0.237,-0.348l0.241,-0.348l0.239,-0.34l0.13,-0.18l0.125,-0.174l0.127,-0.173l0.127,-0.173l0.128,-0.173l0.13,-0.173l0.13,-0.173l0.132,-0.173l0.133,-0.172l0.134,-0.172l0.135,-0.173l0.136,-0.171l0.137,-0.172l0.138,-0.172l0.139,-0.171l0.141,-0.171l0.141,-0.171l0.143,-0.17l0.144,-0.171l0.144,-0.17l0.146,-0.169l0.148,-0.17l0.148,-0.169l0.149,-0.169l0.151,-0.168l0.152,-0.169l0.152,-0.168l0.154,-0.167l0.156,-0.168l0.156,-0.166l0.157,-0.167l0.159,-0.166l0.16,-0.166l0.161,-0.165l0.162,-0.165l0.164,-0.165l0.164,-0.164l0.015,-0.015l0.149,-0.15l0.166,-0.165l0.167,-0.165l0.167,-0.164l0.17,-0.164l0.17,-0.163l0.171,-0.163l0.173,-0.162l0.174,-0.162l0.175,-0.161l0.177,-0.161l0.177,-0.16l0.179,-0.159l0.18,-0.16l0.182,-0.158l0.182,-0.158l0.184,-0.158l0.185,-0.156l0.187,-0.157l0.187,-0.155l0.189,-0.155l0.191,-0.155l0.191,-0.153l0.193,-0.153l0.196,-0.155l0.207,-0.159l0.211,-0.161l0.213,-0.16l0.214,-0.158l0.216,-0.158l0.218,-0.156l0.219,-0.155l0.221,-0.154l0.222,-0.153l0.224,-0.151l0.226,-0.15l0.227,-0.149l0.229,-0.148l0.231,-0.146l0.232,-0.145l0.234,-0.144l0.235,-0.142l0.238,-0.141l0.239,-0.139l0.24,-0.138l0.243,-0.136l0.098,-0.055l0.146,-0.081l0.244,-0.135l0.247,-0.134l0.249,-0.132l0.25,-0.13l0.252,-0.128l0.255,-0.127l0.256,-0.125l0.257,-0.122l0.26,-0.121l0.262,-0.119l0.263,-0.117l0.266,-0.115l0.267,-0.113l0.27,-0.111l0.271,-0.108l0.274,-0.106l0.275,-0.104l0.278,-0.102l0.279,-0.099l0.282,-0.096l0.284,-0.094l0.286,-0.091l0.288,-0.089l0.29,-0.086l0.292,-0.083l0.295,-0.08l0.297,-0.077l0.299,-0.074l0.301,-0.071l0.303,-0.067l0.305,-0.065l0.308,-0.061l0.31,-0.057l0.312,-0.054l0.314,-0.05l0.317,-0.046l0.319,-0.043l0.321,-0.038l0.323,-0.035l0.325,-0.03l0.327,-0.026l0.33,-0.022l0.331,-0.017l0.334,-0.012l0.335,-0.008l0.338,-0.003l0.339,0.002Zm-1.793,10.663l-0.187,0.005l-0.187,0.008l-0.187,0.01l-0.187,0.012l-0.188,0.015l-0.188,0.017l-0.188,0.02l-0.188,0.021l-0.189,0.025l-0.188,0.026l-0.189,0.029l-0.188,0.031l-0.189,0.033l-0.188,0.036l-0.189,0.037l-0.189,0.04l-0.188,0.042l-0.189,0.044l-0.188,0.045l-0.189,0.049l-0.188,0.05l-0.188,0.052l-0.188,0.054l-0.188,0.056l-0.188,0.057l-0.188,0.06l-0.187,0.062l-0.187,0.063l-0.187,0.066l-0.186,0.067l-0.186,0.069l-0.186,0.07l-0.186,0.073l-0.185,0.074l-0.185,0.075l-0.184,0.078l-0.184,0.079l-0.183,0.08l-0.183,0.083l-0.183,0.083l-0.182,0.086l-0.182,0.086l-0.181,0.089l-0.18,0.089l-0.18,0.091l-0.179,0.093l-0.179,0.094l-0.178,0.095l-0.177,0.097l-0.177,0.098l-0.176,0.099l-0.175,0.101l-0.175,0.101l-0.174,0.103l-0.173,0.104l-0.172,0.106l-0.171,0.106l-0.171,0.107l-0.17,0.109l-0.169,0.11l-0.168,0.111l-0.167,0.111l-0.166,0.113l-0.161,0.111l-0.161,0.112l-0.16,0.112l-0.159,0.113l-0.158,0.113l-0.157,0.114l-0.156,0.115l-0.155,0.116l-0.155,0.116l-0.154,0.116l-0.153,0.117l-0.152,0.118l-0.151,0.118l-0.15,0.119l-0.149,0.12l-0.149,0.12l-0.147,0.12l-0.147,0.121l-0.146,0.122l-0.145,0.122l-0.145,0.122l-0.143,0.124l-0.143,0.123l-0.141,0.124l-0.141,0.125l-0.14,0.125l-0.139,0.125l-0.139,0.126l-0.137,0.127l-0.137,0.126l-0.135,0.128l-0.135,0.127l-0.135,0.129l-0.133,0.128l-0.132,0.129l-0.132,0.129l-0.131,0.13l-0.13,0.13l-0.129,0.131l-0.128,0.13l-0.127,0.132l-0.127,0.131l-0.126,0.132l-0.125,0.132l-0.124,0.133l-0.123,0.133l-0.122,0.133l-0.122,0.134l-0.121,0.133l-0.12,0.134l-0.119,0.135l-0.118,0.134l-0.118,0.135l-0.117,0.136l-0.116,0.135l-0.115,0.136l-0.114,0.136l-0.113,0.136l-0.113,0.136l-0.112,0.137l-0.111,0.137l-0.11,0.137l-0.218,0.274l-0.215,0.276l-0.212,0.276l-0.208,0.276l-0.205,0.277l-0.202,0.278l-0.199,0.278l-0.196,0.278l-0.192,0.279l-0.189,0.279l-0.186,0.279l-0.184,0.279l-0.179,0.28l-0.177,0.279l-0.174,0.279l-0.17,0.279l-0.168,0.279l-0.164,0.279l-0.162,0.278l-0.158,0.278l-0.155,0.278l-0.152,0.277l-0.149,0.277l-0.146,0.276l-0.143,0.275l-0.14,0.274l-0.137,0.274l-0.134,0.273l-0.131,0.272l-0.128,0.271l-0.125,0.271l-0.123,0.269l-0.119,0.267l-0.116,0.267l-0.113,0.266l-0.11,0.264l-0.108,0.262l-0.104,0.262l-0.102,0.259l-0.098,0.259l-0.096,0.256l-0.093,0.255l-0.09,0.253l-0.087,0.252l-0.084,0.249l-0.082,0.248l-0.078,0.246l-0.076,0.243l-0.073,0.242l-0.07,0.239l-0.068,0.237l-0.064,0.235l-0.062,0.232l-0.059,0.231l-0.056,0.227l-0.053,0.225l-0.051,0.223l-0.048,0.22l-0.045,0.217l-0.043,0.214l-0.039,0.212l-0.038,0.209l-0.034,0.206l-0.031,0.203l-0.029,0.199l-0.027,0.197l-0.023,0.193l-0.021,0.191l-0.019,0.187l-0.015,0.183l-0.013,0.18l-0.011,0.177l-0.007,0.173l-0.006,0.17l-0.002,0.166l0,0.162l0.003,0.158l0.005,0.155l0.008,0.15l0.01,0.147l0.013,0.143l0.015,0.138l0.009,0.068l0.009,0.067l0.01,0.066l0.011,0.064l0.011,0.064l0.011,0.062l0.013,0.062l0.013,0.06l0.014,0.059l0.014,0.058l0.015,0.057l0.015,0.056l0.017,0.055l0.016,0.053l0.018,0.053l0.018,0.051l0.018,0.051l0.02,0.049l0.02,0.047l0.02,0.047l0.021,0.046l0.022,0.044l0.022,0.043l0.023,0.042l0.024,0.041l0.024,0.039l0.024,0.038l0.026,0.037l0.026,0.036l0.026,0.035l0.01,0.011l0.011,0.011l0.011,0.011l0.013,0.01l0.014,0.01l0.014,0.009l0.016,0.01l0.016,0.009l0.037,0.016l0.039,0.016l0.044,0.014l0.048,0.012l0.051,0.012l0.055,0.009l0.059,0.009l0.063,0.007l0.066,0.006l0.069,0.004l0.073,0.003l0.077,0.002l0.08,0.001l0.084,-0.001l0.087,-0.003l0.09,-0.003l0.094,-0.005l0.097,-0.006l0.1,-0.008l0.104,-0.009l0.106,-0.01l0.11,-0.011l0.113,-0.013l0.116,-0.014l0.119,-0.015l0.122,-0.016l0.126,-0.018l0.128,-0.019l0.131,-0.02l0.133,-0.022l0.137,-0.023l0.139,-0.024l0.288,-0.052l0.298,-0.056l0.308,-0.062l0.319,-0.067l0.328,-0.071l0.339,-0.076l0.347,-0.081l0.357,-0.085l0.365,-0.09l0.374,-0.095l0.382,-0.099l0.391,-0.104l0.397,-0.108l0.406,-0.113l0.412,-0.117l0.419,-0.122l0.425,-0.126l0.432,-0.13l0.438,-0.135l0.443,-0.139l0.449,-0.143l0.454,-0.147l0.459,-0.151l0.463,-0.155l0.468,-0.16l0.471,-0.163l0.475,-0.167l0.479,-0.172l0.482,-0.175l0.484,-0.179l0.487,-0.183l0.49,-0.186l0.491,-0.19l0.493,-0.194l0.494,-0.198l0.496,-0.201l0.248,-0.102l0.248,-0.103l0.249,-0.104l0.248,-0.105l0.249,-0.105l0.249,-0.107l0.248,-0.107l0.249,-0.108l0.248,-0.109l0.249,-0.11l0.248,-0.111l0.248,-0.111l0.248,-0.113l0.248,-0.113l0.247,-0.114l0.247,-0.115l0.247,-0.115l0.246,-0.117l0.246,-0.117l0.245,-0.118l0.245,-0.119l0.244,-0.12l0.244,-0.12l0.243,-0.122l0.243,-0.122l0.242,-0.122l0.241,-0.124l0.24,-0.124l0.24,-0.126l0.239,-0.125l0.237,-0.127l0.238,-0.128l0.236,-0.128l0.235,-0.129l0.234,-0.129l0.233,-0.13l0.232,-0.132l0.231,-0.131l0.23,-0.133l0.229,-0.133l0.227,-0.134l0.226,-0.135l0.225,-0.135l0.224,-0.136l0.222,-0.137l0.221,-0.137l0.219,-0.138l0.218,-0.139l0.217,-0.139l0.215,-0.14l0.213,-0.141l0.212,-0.141l0.21,-0.142l0.209,-0.143l0.207,-0.143l0.205,-0.144l0.203,-0.144l0.201,-0.146l0.2,-0.145l0.198,-0.147l0.196,-0.147l0.193,-0.147l0.192,-0.148l0.19,-0.149l0.188,-0.15l0.186,-0.15l0.183,-0.15l0.182,-0.151l0.179,-0.152l0.177,-0.152l0.174,-0.153l0.173,-0.153l0.17,-0.154l0.168,-0.155l0.165,-0.155l0.163,-0.155l0.16,-0.157l0.158,-0.156l0.155,-0.157l0.153,-0.158l0.15,-0.158l0.147,-0.159l0.145,-0.159l0.141,-0.16l0.14,-0.16l0.136,-0.161l0.133,-0.161l0.131,-0.161l0.128,-0.162l0.125,-0.163l0.121,-0.163l0.119,-0.164l0.116,-0.163l0.112,-0.165l0.11,-0.165l0.106,-0.165l0.103,-0.166l0.051,-0.083l0.049,-0.083l0.049,-0.083l0.048,-0.084l0.047,-0.083l0.046,-0.084l0.046,-0.083l0.044,-0.084l0.044,-0.084l0.043,-0.084l0.042,-0.084l0.041,-0.084l0.04,-0.084l0.04,-0.085l0.038,-0.084l0.038,-0.085l0.037,-0.085l0.036,-0.084l0.035,-0.085l0.034,-0.085l0.033,-0.085l0.033,-0.085l0.031,-0.086l0.031,-0.085l0.029,-0.085l0.029,-0.086l0.028,-0.086l0.027,-0.085l0.026,-0.086l0.025,-0.086l0.024,-0.086l0.023,-0.086l0.022,-0.086l0.021,-0.087l0.02,-0.086l0.02,-0.086l0.018,-0.087l0.017,-0.086l0.017,-0.087l0.015,-0.087l0.015,-0.087l0.013,-0.087l0.012,-0.087l0.012,-0.087l0.01,-0.087l0.01,-0.087l0.008,-0.088l0.008,-0.087l0.006,-0.088l0.005,-0.087l0.005,-0.088l0.003,-0.088l0.002,-0.087l0.001,-0.088l0,-0.088l-0.001,-0.088l-0.001,-0.089l-0.003,-0.088l-0.005,-0.088l-0.005,-0.088l-0.006,-0.089l-0.007,-0.088l-0.009,-0.089l-0.009,-0.088l-0.011,-0.089l-0.011,-0.089l-0.013,-0.089l-0.014,-0.089l-0.015,-0.089l-0.016,-0.089l-0.017,-0.089l-0.019,-0.089l-0.019,-0.089l-0.021,-0.09l-0.021,-0.089l-0.023,-0.089l-0.024,-0.09l-0.025,-0.089l-0.027,-0.09l-0.027,-0.09l-0.029,-0.089l-0.03,-0.09l-0.031,-0.09l-0.032,-0.09l-0.033,-0.09l-0.035,-0.09l-0.035,-0.09l-0.037,-0.09l-0.038,-0.09l-0.04,-0.091l-0.04,-0.09l-0.042,-0.09l-0.043,-0.091l-0.044,-0.09l-0.045,-0.091l-0.047,-0.09l-0.048,-0.091l-0.049,-0.091l-0.05,-0.09l-0.052,-0.091l-0.053,-0.091l-0.054,-0.091l-0.063,-0.105l-0.065,-0.104l-0.064,-0.103l-0.065,-0.101l-0.065,-0.101l-0.066,-0.1l-0.066,-0.099l-0.066,-0.098l-0.067,-0.097l-0.067,-0.096l-0.067,-0.095l-0.068,-0.094l-0.068,-0.092l-0.069,-0.092l-0.068,-0.091l-0.07,-0.09l-0.069,-0.089l-0.07,-0.088l-0.07,-0.087l-0.071,-0.086l-0.071,-0.085l-0.071,-0.085l-0.072,-0.083l-0.072,-0.082l-0.072,-0.081l-0.073,-0.081l-0.072,-0.079l-0.074,-0.078l-0.073,-0.078l-0.074,-0.077l-0.074,-0.075l-0.075,-0.075l-0.075,-0.074l-0.075,-0.073l-0.075,-0.072l-0.076,-0.071l-0.076,-0.07l-0.076,-0.069l-0.077,-0.068l-0.077,-0.068l-0.077,-0.066l-0.077,-0.066l-0.078,-0.064l-0.078,-0.064l-0.079,-0.063l-0.078,-0.062l-0.079,-0.061l-0.079,-0.06l-0.08,-0.06l-0.079,-0.058l-0.08,-0.058l-0.081,-0.057l-0.08,-0.056l-0.081,-0.055l-0.081,-0.054l-0.081,-0.053l-0.082,-0.052l-0.082,-0.052l-0.082,-0.051l-0.082,-0.05l-0.082,-0.049l-0.083,-0.048l-0.083,-0.048l-0.083,-0.046l-0.084,-0.046l-0.083,-0.045l-0.084,-0.044l-0.084,-0.043l-0.085,-0.043l-0.084,-0.041l-0.085,-0.041l-0.085,-0.04l-0.085,-0.039l-0.086,-0.039l-0.085,-0.037l-0.086,-0.037l-0.086,-0.036l-0.086,-0.035l-0.087,-0.035l-0.086,-0.034l-0.087,-0.033l-0.087,-0.032l-0.087,-0.031l-0.088,-0.031l-0.087,-0.029l-0.088,-0.029l-0.088,-0.029l-0.088,-0.027l-0.088,-0.027l-0.089,-0.026l-0.089,-0.025l-0.088,-0.025l-0.089,-0.024l-0.089,-0.023l-0.09,-0.022l-0.089,-0.021l-0.179,-0.041l-0.18,-0.038l-0.181,-0.036l-0.181,-0.032l-0.181,-0.029l-0.182,-0.027l-0.183,-0.024l-0.183,-0.021l-0.184,-0.019l-0.184,-0.015l-0.184,-0.013l-0.185,-0.011l-0.185,-0.008l-0.185,-0.005l-0.186,-0.002l-0.186,0l-0.187,0.002Z" style="fill:#7c7c7c;"/><path d="M42.249,7.398l0.283,0.005l0.282,0.009l0.28,0.013l0.278,0.016l0.276,0.02l0.275,0.023l0.273,0.027l0.271,0.03l0.269,0.034l0.267,0.037l0.265,0.04l0.264,0.043l0.261,0.046l0.26,0.048l0.258,0.052l0.256,0.055l0.254,0.057l0.252,0.06l0.25,0.062l0.248,0.065l0.246,0.068l0.245,0.069l0.243,0.073l0.24,0.074l0.239,0.077l0.237,0.078l0.236,0.081l0.233,0.083l0.232,0.085l0.229,0.087l0.229,0.089l0.226,0.091l0.224,0.092l0.223,0.095l0.186,0.081l0.035,0.014l0.221,0.095l0.218,0.097l0.217,0.098l0.216,0.099l0.213,0.102l0.213,0.103l0.21,0.104l0.209,0.106l0.207,0.107l0.206,0.108l0.204,0.11l0.203,0.112l0.201,0.112l0.2,0.114l0.198,0.116l0.196,0.116l0.195,0.118l0.194,0.119l0.191,0.12l0.191,0.121l0.189,0.122l0.187,0.124l0.186,0.124l0.185,0.125l0.183,0.127l0.179,0.126l0.17,0.122l0.166,0.121l0.164,0.121l0.164,0.123l0.162,0.122l0.162,0.124l0.16,0.124l0.159,0.125l0.158,0.125l0.156,0.126l0.156,0.126l0.155,0.127l0.153,0.127l0.152,0.128l0.151,0.129l0.15,0.129l0.149,0.129l0.148,0.13l0.146,0.131l0.146,0.131l0.043,0.039l0.103,0.09l0.145,0.129l0.144,0.13l0.143,0.131l0.142,0.13l0.141,0.131l0.14,0.132l0.138,0.132l0.138,0.132l0.137,0.133l0.135,0.133l0.135,0.134l0.133,0.134l0.133,0.134l0.131,0.135l0.131,0.135l0.129,0.135l0.128,0.135l0.128,0.136l0.133,0.143l0.243,0.267l0.245,0.275l0.241,0.275l0.238,0.277l0.233,0.277l0.23,0.279l0.226,0.279l0.222,0.28l0.218,0.281l0.214,0.281l0.21,0.282l0.207,0.282l0.203,0.283l0.199,0.283l0.196,0.284l0.192,0.284l0.031,0.046l0.163,0.234l0.191,0.279l0.188,0.279l0.185,0.279l0.181,0.28l0.178,0.28l0.174,0.28l0.171,0.279l0.168,0.28l0.165,0.28l0.161,0.279l0.158,0.28l0.155,0.279l0.151,0.278l0.149,0.279l0.145,0.278l0.143,0.277l0.139,0.277l0.136,0.277l0.133,0.276l0.13,0.275l0.127,0.275l0.124,0.274l0.121,0.273l0.118,0.273l0.115,0.272l0.113,0.271l0.108,0.266l0.001,0.004l0.114,0.265l0.112,0.265l0.108,0.264l0.105,0.263l0.103,0.262l0.1,0.261l0.098,0.261l0.094,0.259l0.092,0.258l0.089,0.257l0.087,0.256l0.083,0.255l0.082,0.254l0.078,0.252l0.056,0.187l0.022,0.064l0.079,0.248l0.077,0.247l0.075,0.246l0.072,0.245l0.069,0.244l0.066,0.243l0.064,0.241l0.062,0.241l0.058,0.239l0.056,0.238l0.054,0.238l0.051,0.236l0.048,0.235l0.046,0.234l0.042,0.233l0.026,0.146l0.018,0.086l0.045,0.23l0.043,0.23l0.04,0.229l0.037,0.228l0.034,0.229l0.031,0.228l0.028,0.228l0.025,0.228l0.022,0.228l0.019,0.228l0.015,0.229l0.011,0.23l0.008,0.231l0.004,0.232l0,0.233l-0.005,0.235l-0.009,0.238l-0.014,0.24l-0.02,0.243l-0.025,0.246l-0.032,0.25l-0.039,0.254l-0.047,0.259l-0.051,0.243l-0.036,0.155l-0.034,0.135l-0.036,0.138l-0.04,0.138l-0.042,0.141l-0.046,0.142l-0.049,0.144l-0.053,0.146l-0.057,0.147l-0.061,0.15l-0.065,0.151l-0.07,0.153l-0.075,0.154l-0.08,0.157l-0.086,0.157l-0.091,0.159l-0.098,0.161l-0.132,0.205l-0.185,0.259l-0.272,0.336l-0.388,0.406l-0.433,0.374l-0.408,0.294l-0.377,0.232l-0.345,0.183l-0.315,0.146l-0.288,0.117l-0.265,0.095l-0.245,0.077l-0.227,0.064l-0.213,0.053l-0.2,0.045l-0.19,0.038l-0.181,0.032l-0.173,0.027l-0.168,0.024l-0.162,0.02l-0.159,0.017l-0.154,0.015l-0.152,0.013l-0.15,0.011l-0.148,0.009l-0.147,0.008l-0.146,0.006l-0.146,0.005l-0.145,0.004l-0.145,0.003l-0.145,0.001l-0.156,0.001l-0.008,0l-0.274,0.007l-0.296,0.004l-0.3,0.001l-0.305,-0.002l-0.31,-0.005l-0.316,-0.007l-0.321,-0.01l-0.327,-0.013l-0.334,-0.016l-0.339,-0.018l-0.345,-0.021l-0.352,-0.024l-0.358,-0.026l-0.364,-0.029l-0.369,-0.032l-0.376,-0.034l-0.381,-0.037l-0.387,-0.04l-0.393,-0.043l-0.397,-0.046l-0.403,-0.048l-0.169,-0.021l-0.241,-0.023l-0.415,-0.043l-0.42,-0.045l-0.425,-0.048l-0.429,-0.051l-0.434,-0.053l-0.438,-0.057l-0.442,-0.059l-0.445,-0.063l-0.45,-0.065l-0.453,-0.069l-0.456,-0.071l-0.459,-0.075l-0.462,-0.078l-0.465,-0.081l-0.467,-0.085l-0.201,-0.037l-0.27,-0.045l-0.475,-0.081l-0.477,-0.085l-0.478,-0.088l-0.481,-0.091l-0.482,-0.096l-0.484,-0.099l-0.478,-0.101l-0.249,-0.054l-0.243,-0.054l-0.244,-0.055l-0.243,-0.056l-0.244,-0.057l-0.244,-0.057l-0.244,-0.059l-0.244,-0.06l-0.244,-0.061l-0.244,-0.062l-0.245,-0.063l-0.244,-0.064l-0.245,-0.066l-0.244,-0.066l-0.094,-0.026l-0.152,-0.038l-0.246,-0.064l-0.247,-0.065l-0.247,-0.066l-0.246,-0.067l-0.247,-0.068l-0.246,-0.07l-0.246,-0.071l-0.247,-0.072l-0.246,-0.074l-0.246,-0.075l-0.246,-0.076l-0.245,-0.078l-0.246,-0.079l-0.245,-0.08l-0.245,-0.082l-0.245,-0.084l-0.245,-0.085l-0.244,-0.086l-0.245,-0.089l-0.244,-0.089l-0.243,-0.092l-0.244,-0.093l-0.243,-0.094l-0.243,-0.097l-0.242,-0.098l-0.242,-0.1l-0.242,-0.102l-0.242,-0.104l-0.241,-0.106l-0.24,-0.108l-0.241,-0.109l-0.24,-0.112l-0.239,-0.114l-0.239,-0.116l-0.239,-0.119l-0.238,-0.12l-0.238,-0.124l-0.237,-0.125l-0.237,-0.128l-0.236,-0.13l-0.236,-0.133l-0.235,-0.136l-0.235,-0.139l-0.234,-0.141l-0.234,-0.144l-0.233,-0.148l-0.232,-0.15l-0.231,-0.153l-0.231,-0.157l-0.231,-0.16l-0.229,-0.164l-0.229,-0.167l-0.227,-0.171l-0.227,-0.174l-0.226,-0.178l-0.225,-0.183l-0.224,-0.186l-0.223,-0.191l-0.222,-0.195l-0.22,-0.199l-0.059,-0.055l-0.162,-0.148l-0.22,-0.206l-0.219,-0.211l-0.217,-0.217l-0.215,-0.221l-0.214,-0.227l-0.211,-0.232l-0.209,-0.238l-0.208,-0.243l-0.204,-0.249l-0.202,-0.255l-0.199,-0.261l-0.197,-0.267l-0.193,-0.273l-0.189,-0.279l-0.186,-0.285l-0.182,-0.292l-0.178,-0.298l-0.173,-0.304l-0.159,-0.288l-0.092,-0.181l-0.081,-0.159l-0.08,-0.161l-0.079,-0.162l-0.077,-0.164l-0.075,-0.165l-0.075,-0.167l-0.072,-0.169l-0.072,-0.17l-0.069,-0.172l-0.068,-0.172l-0.067,-0.175l-0.064,-0.176l-0.063,-0.177l-0.061,-0.178l-0.06,-0.18l-0.057,-0.182l-0.056,-0.182l-0.054,-0.184l-0.052,-0.185l-0.05,-0.186l-0.048,-0.188l-0.046,-0.188l-0.044,-0.19l-0.042,-0.191l-0.039,-0.191l-0.038,-0.193l-0.035,-0.193l-0.034,-0.195l-0.031,-0.195l-0.029,-0.196l-0.027,-0.197l-0.024,-0.198l-0.022,-0.198l-0.02,-0.198l-0.018,-0.2l-0.015,-0.2l-0.013,-0.2l-0.011,-0.201l-0.009,-0.201l-0.006,-0.201l-0.004,-0.202l-0.001,-0.201l0,-0.202l0.003,-0.203l0.006,-0.202l0.007,-0.202l0.01,-0.202l0.012,-0.202l0.015,-0.202l0.016,-0.202l0.019,-0.202l0.021,-0.201l0.023,-0.201l0.026,-0.201l0.027,-0.201l0.03,-0.2l0.032,-0.2l0.034,-0.199l0.036,-0.199l0.038,-0.198l0.04,-0.198l0.042,-0.197l0.044,-0.196l0.046,-0.196l0.048,-0.196l0.049,-0.194l0.052,-0.194l0.053,-0.193l0.056,-0.193l0.057,-0.192l0.058,-0.191l0.061,-0.19l0.062,-0.189l0.064,-0.189l0.066,-0.188l0.067,-0.187l0.068,-0.186l0.071,-0.186l0.01,-0.026l0.061,-0.159l0.073,-0.184l0.075,-0.201l0.202,-0.286l0.04,-0.058l0.165,-0.243l0.207,-0.297l0.21,-0.295l0.213,-0.291l0.217,-0.288l0.219,-0.284l0.223,-0.28l0.227,-0.277l0.229,-0.274l0.233,-0.269l0.236,-0.266l0.239,-0.262l0.242,-0.258l0.245,-0.254l0.249,-0.249l0.251,-0.246l0.255,-0.241l0.257,-0.237l0.261,-0.233l0.263,-0.228l0.266,-0.223l0.269,-0.219l0.272,-0.214l0.274,-0.209l0.245,-0.181l0.032,-0.024l0.277,-0.202l0.28,-0.196l0.283,-0.192l0.284,-0.186l0.287,-0.181l0.288,-0.176l0.291,-0.171l0.292,-0.165l0.294,-0.16l0.295,-0.155l0.297,-0.149l0.298,-0.144l0.299,-0.138l0.301,-0.133l0.301,-0.127l0.302,-0.122l0.302,-0.116l0.303,-0.111l0.303,-0.106l0.304,-0.1l0.304,-0.094l0.303,-0.089l0.304,-0.084l0.303,-0.079l0.303,-0.073l0.303,-0.068l0.302,-0.063l0.301,-0.058l0.3,-0.053l0.3,-0.048l0.298,-0.044l0.298,-0.038l0.296,-0.034l0.295,-0.029l0.294,-0.024l0.293,-0.02l0.291,-0.016l0.29,-0.011l0.288,-0.008l0.287,-0.003l0.285,0.001Zm1.5,9.371l-0.158,0.003l-0.157,0.004l-0.156,0.007l-0.157,0.009l-0.156,0.011l-0.156,0.013l-0.156,0.015l-0.155,0.017l-0.155,0.019l-0.155,0.022l-0.154,0.023l-0.154,0.026l-0.154,0.028l-0.153,0.031l-0.153,0.032l-0.152,0.035l-0.152,0.037l-0.151,0.04l-0.151,0.041l-0.15,0.044l-0.15,0.047l-0.149,0.049l-0.149,0.051l-0.148,0.054l-0.148,0.056l-0.147,0.059l-0.146,0.061l-0.146,0.064l-0.145,0.066l-0.144,0.068l-0.144,0.072l-0.142,0.074l-0.143,0.076l-0.141,0.079l-0.141,0.082l-0.139,0.084l-0.139,0.087l-0.139,0.09l-0.137,0.092l-0.136,0.095l-0.136,0.098l-0.135,0.101l-0.134,0.104l-0.133,0.106l-0.132,0.109l-0.131,0.112l-0.13,0.115l-0.129,0.118l-0.128,0.12l-0.127,0.124l-0.126,0.126l-0.125,0.13l-0.124,0.132l-0.123,0.135l-0.121,0.139l-0.121,0.141l-0.119,0.145l-0.119,0.148l-0.117,0.15l-0.116,0.154l-0.114,0.157l-0.114,0.16l-0.112,0.163l-0.111,0.167l-0.11,0.169l-0.108,0.173l-0.107,0.176l-0.106,0.18l-0.104,0.183l-0.104,0.186l-0.101,0.189l-0.1,0.192l-0.043,0.084l-0.041,0.084l-0.04,0.083l-0.04,0.083l-0.038,0.083l-0.037,0.083l-0.036,0.082l-0.035,0.083l-0.035,0.082l-0.033,0.082l-0.032,0.082l-0.031,0.082l-0.03,0.081l-0.029,0.082l-0.028,0.081l-0.027,0.081l-0.026,0.081l-0.026,0.081l-0.024,0.08l-0.023,0.081l-0.022,0.08l-0.021,0.08l-0.021,0.08l-0.019,0.079l-0.018,0.08l-0.018,0.079l-0.016,0.08l-0.015,0.079l-0.015,0.078l-0.014,0.079l-0.012,0.079l-0.012,0.078l-0.011,0.078l-0.01,0.078l-0.009,0.078l-0.008,0.077l-0.007,0.078l-0.006,0.077l-0.005,0.077l-0.005,0.077l-0.003,0.077l-0.003,0.076l-0.001,0.077l-0.001,0.076l0,0.076l0.001,0.076l0.002,0.076l0.002,0.075l0.004,0.076l0.004,0.075l0.006,0.075l0.006,0.075l0.007,0.074l0.008,0.075l0.008,0.074l0.01,0.074l0.01,0.074l0.011,0.074l0.013,0.074l0.012,0.073l0.014,0.073l0.015,0.074l0.015,0.073l0.016,0.072l0.017,0.073l0.018,0.072l0.019,0.073l0.019,0.072l0.02,0.071l0.021,0.072l0.022,0.072l0.022,0.071l0.024,0.071l0.024,0.071l0.025,0.071l0.025,0.071l0.027,0.07l0.027,0.071l0.028,0.07l0.029,0.07l0.029,0.069l0.03,0.07l0.063,0.139l0.066,0.138l0.068,0.137l0.071,0.137l0.075,0.135l0.077,0.136l0.079,0.134l0.083,0.134l0.085,0.133l0.089,0.132l0.09,0.132l0.094,0.131l0.096,0.13l0.098,0.13l0.101,0.129l0.104,0.128l0.106,0.127l0.109,0.127l0.111,0.126l0.114,0.125l0.115,0.125l0.119,0.123l0.12,0.124l0.123,0.122l0.125,0.122l0.128,0.121l0.129,0.12l0.132,0.12l0.134,0.119l0.136,0.118l0.138,0.117l0.14,0.117l0.142,0.116l0.144,0.115l0.146,0.115l0.148,0.114l0.15,0.113l0.152,0.112l0.154,0.112l0.155,0.111l0.158,0.11l0.159,0.11l0.16,0.109l0.163,0.108l0.164,0.107l0.166,0.107l0.167,0.106l0.169,0.105l0.171,0.105l0.172,0.103l0.173,0.103l0.175,0.103l0.177,0.101l0.178,0.101l0.179,0.1l0.18,0.1l0.182,0.099l0.183,0.098l0.185,0.097l0.185,0.096l0.187,0.096l0.188,0.095l0.189,0.095l0.19,0.093l0.192,0.093l0.192,0.092l0.193,0.092l0.195,0.09l0.195,0.09l0.196,0.09l0.197,0.088l0.198,0.088l0.199,0.087l0.2,0.086l0.2,0.086l0.201,0.085l0.202,0.084l0.202,0.083l0.204,0.083l0.204,0.082l0.204,0.081l0.205,0.08l0.206,0.08l0.206,0.079l0.206,0.078l0.207,0.078l0.208,0.077l0.207,0.076l0.209,0.075l0.208,0.074l0.209,0.074l0.209,0.073l0.209,0.073l0.21,0.071l0.21,0.071l0.419,0.139l0.421,0.137l0.42,0.133l0.42,0.131l0.42,0.127l0.42,0.125l0.418,0.121l0.418,0.119l0.416,0.116l0.415,0.112l0.413,0.11l0.411,0.106l0.409,0.104l0.406,0.1l0.403,0.098l0.401,0.094l0.398,0.092l0.394,0.088l0.39,0.086l0.386,0.082l0.383,0.079l0.378,0.077l0.373,0.073l0.369,0.07l0.363,0.067l0.358,0.064l0.353,0.061l0.347,0.058l0.34,0.055l0.335,0.052l0.328,0.049l0.321,0.045l0.314,0.043l0.307,0.04l0.3,0.036l0.291,0.033l0.284,0.031l0.276,0.027l0.267,0.024l0.259,0.021l0.25,0.018l0.241,0.014l0.231,0.012l0.222,0.009l0.212,0.005l0.102,0.001l0.099,0.001l0.097,0l0.095,-0.001l0.092,-0.001l0.089,-0.003l0.086,-0.003l0.084,-0.004l0.081,-0.004l0.078,-0.006l0.076,-0.006l0.072,-0.007l0.07,-0.008l0.066,-0.009l0.064,-0.009l0.061,-0.011l0.058,-0.011l0.055,-0.011l0.052,-0.013l0.048,-0.013l0.046,-0.015l0.042,-0.015l0.04,-0.015l0.036,-0.017l0.032,-0.017l0.03,-0.018l0.026,-0.019l0.023,-0.02l0.02,-0.02l0.009,-0.011l0.007,-0.011l0.021,-0.032l0.021,-0.034l0.02,-0.034l0.019,-0.035l0.019,-0.037l0.019,-0.037l0.018,-0.039l0.017,-0.039l0.017,-0.04l0.016,-0.041l0.016,-0.043l0.015,-0.043l0.014,-0.044l0.014,-0.045l0.014,-0.046l0.013,-0.047l0.012,-0.048l0.012,-0.048l0.022,-0.1l0.02,-0.104l0.018,-0.107l0.015,-0.111l0.013,-0.114l0.011,-0.117l0.009,-0.121l0.007,-0.124l0.004,-0.127l0.002,-0.13l0,-0.133l-0.003,-0.137l-0.004,-0.139l-0.007,-0.142l-0.009,-0.145l-0.012,-0.148l-0.014,-0.151l-0.016,-0.153l-0.018,-0.156l-0.021,-0.159l-0.023,-0.161l-0.025,-0.164l-0.028,-0.166l-0.03,-0.168l-0.032,-0.171l-0.035,-0.174l-0.037,-0.175l-0.039,-0.178l-0.042,-0.179l-0.044,-0.182l-0.046,-0.184l-0.049,-0.186l-0.051,-0.188l-0.053,-0.19l-0.056,-0.191l-0.058,-0.193l-0.061,-0.195l-0.063,-0.197l-0.065,-0.198l-0.068,-0.2l-0.07,-0.201l-0.073,-0.203l-0.075,-0.205l-0.078,-0.205l-0.08,-0.207l-0.082,-0.208l-0.085,-0.209l-0.087,-0.211l-0.09,-0.211l-0.092,-0.213l-0.095,-0.214l-0.097,-0.214l-0.099,-0.215l-0.102,-0.217l-0.105,-0.217l-0.107,-0.217l-0.109,-0.219l-0.113,-0.219l-0.114,-0.219l-0.117,-0.22l-0.12,-0.221l-0.122,-0.221l-0.124,-0.221l-0.128,-0.222l-0.129,-0.222l-0.133,-0.222l-0.134,-0.222l-0.138,-0.223l-0.14,-0.222l-0.142,-0.222l-0.145,-0.223l-0.148,-0.222l-0.15,-0.222l-0.153,-0.222l-0.155,-0.221l-0.158,-0.221l-0.161,-0.221l-0.163,-0.221l-0.166,-0.22l-0.168,-0.219l-0.172,-0.219l-0.173,-0.218l-0.177,-0.217l-0.179,-0.217l-0.181,-0.216l-0.184,-0.215l-0.187,-0.215l-0.19,-0.213l-0.192,-0.212l-0.195,-0.211l-0.198,-0.21l-0.2,-0.209l-0.203,-0.208l-0.206,-0.206l-0.208,-0.206l-0.211,-0.203l-0.214,-0.203l-0.217,-0.201l-0.219,-0.199l-0.111,-0.099l-0.111,-0.099l-0.112,-0.098l-0.113,-0.098l-0.113,-0.097l-0.114,-0.097l-0.115,-0.097l-0.115,-0.096l-0.116,-0.096l-0.117,-0.095l-0.118,-0.095l-0.118,-0.094l-0.119,-0.094l-0.119,-0.093l-0.121,-0.093l-0.12,-0.092l-0.122,-0.092l-0.122,-0.092l-0.123,-0.091l-0.124,-0.09l-0.125,-0.09l-0.125,-0.089l-0.126,-0.089l-0.126,-0.088l-0.127,-0.088l-0.128,-0.087l-0.129,-0.086l-0.129,-0.086l-0.13,-0.085l-0.131,-0.085l-0.131,-0.084l-0.132,-0.084l-0.133,-0.083l-0.134,-0.082l-0.134,-0.082l-0.135,-0.081l-0.135,-0.081l-0.137,-0.08l-0.137,-0.079l-0.138,-0.079l-0.141,-0.079l-0.143,-0.079l-0.143,-0.077l-0.144,-0.077l-0.144,-0.076l-0.145,-0.075l-0.146,-0.073l-0.147,-0.073l-0.147,-0.071l-0.148,-0.071l-0.148,-0.069l-0.149,-0.068l-0.15,-0.067l-0.15,-0.066l-0.15,-0.064l-0.151,-0.064l-0.152,-0.062l-0.152,-0.061l-0.152,-0.06l-0.153,-0.058l-0.153,-0.057l-0.154,-0.056l-0.154,-0.054l-0.155,-0.053l-0.155,-0.052l-0.155,-0.05l-0.155,-0.049l-0.156,-0.047l-0.156,-0.046l-0.157,-0.044l-0.156,-0.043l-0.157,-0.042l-0.157,-0.04l-0.157,-0.038l-0.158,-0.037l-0.157,-0.035l-0.158,-0.033l-0.158,-0.032l-0.158,-0.03l-0.158,-0.029l-0.158,-0.027l-0.159,-0.025l-0.158,-0.024l-0.158,-0.021l-0.159,-0.02l-0.158,-0.018l-0.158,-0.017l-0.159,-0.014l-0.158,-0.013l-0.158,-0.011l-0.158,-0.009l-0.158,-0.007l-0.158,-0.005l-0.158,-0.003l-0.157,-0.002l-0.157,0.001Z" style="fill:#7c7c7c;"/></g><path d="M6.033,71.489l142.248,0l0,70.052c0,4.117 -3.197,7.459 -7.134,7.459l-127.979,0c-3.938,0 -7.135,-3.342 -7.135,-7.459l0,-78.318c0,0 0,8.266 0,8.266Zm135.114,-15.725c1.49,0 2.875,0.479 4.02,1.297l-136.019,0c1.145,-0.818 2.529,-1.297 4.02,-1.297l127.979,0Z" style="fill:#ececec;"/><path d="M154.255,49.103c0,-3.297 -2.677,-5.973 -5.974,-5.973l-142.248,0c-3.297,0 -5.974,2.676 -5.974,5.973l0,16.01c0,1.055 0.857,1.912 1.912,1.912l150.373,0c1.055,0 1.911,-0.857 1.911,-1.912l0,-16.01Z" style="fill:#d6d6d6;"/><rect x="69.746" y="43.347" width="14.823" height="104.859" style="fill:#7c7c7c;"/></g></svg>
