<?xml version="1.0" encoding="UTF-8" standalone="no"?><!DOCTYPE svg PUBLIC "-//W3C//DTD SVG 1.1//EN" "http://www.w3.org/Graphics/SVG/1.1/DTD/svg11.dtd"><svg width="100%" height="100%" viewBox="0 0 136 109" version="1.1" xmlns="http://www.w3.org/2000/svg" xmlns:xlink="http://www.w3.org/1999/xlink" xml:space="preserve" xmlns:serif="http://www.serif.com/" style="fill-rule:evenodd;clip-rule:evenodd;stroke-linecap:round;stroke-linejoin:round;stroke-miterlimit:1.5;"><g id="gifts"><path d="M102.705,43.894l31.489,-11.728l1.475,51.606l-32.964,12.277l0,-52.155Z" style="fill:#26a69a;"/><path d="M28.696,43.268l0,51.055l-28.331,-10.551l0,-51.056l28.331,10.552Z" style="fill:#26a69a;"/><path d="M68.017,56.813l26.425,-9.841l0.055,0.023l0,52.111l-26.48,9.862l0,-52.155Z" style="fill:#006969;"/><path d="M65.7,57.05l0,51.055l-28.796,-10.725l0,-50.438l0.852,-0.3l27.944,10.408Z" style="fill:#26a69a;"/><path d="M102.705,44.229l0,-0.335l31.489,-11.728l1.475,51.606l-32.964,12.277l0,-49.21l0,-2.61Z" style="fill:#006969;"/><path d="M28.696,46.351l0,47.972l-28.331,-10.551l0,-51.056l28.331,10.552l0,0.562l-3.819,1.342l3.819,1.179Z" style="fill:#26a69a;"/><path d="M102.705,96.049l-8.208,3.057l0,-52.155l8.208,-3.057l0,52.155Z" style="fill:#a39f9f;"/><path d="M28.696,43.268l9.06,3.374l-0.852,50.738l-8.208,-3.057l0,-51.055Z" style="fill:#a39f9f;"/><path d="M28.696,43.268l31.857,-10.633l-28.23,-9.792c2.927,-0.867 5.741,-1.754 8.473,-2.654l27.812,9.615l26.999,-9.487l9.083,2.803l-28.34,9.96l26.355,11.149l0,2.61l-4.928,1.544l-3.28,-1.388l0,-0.044l-0.055,0.021l-26.147,-11.062l-30.539,10.732l-0.852,-0.317l-7.955,-2.963l-0.253,-0.094Z" style="fill:#a39f9f;"/><path d="M63.62,9.877c6.05,8.415 5.741,18.988 4.538,19.865c-1.767,1.29 -11.336,-2.213 -17.386,-10.628c-3.701,-5.148 -4.56,-12.416 -1.014,-14.965c3.546,-2.549 10.292,0.761 13.862,5.728Z" style="fill:none;stroke:#a39f9f;stroke-width:4.98px;"/><path d="M90.696,22.334c-7.762,7.762 -18.261,9.852 -19.244,8.885c-1.443,-1.421 1.123,-11.482 8.885,-19.244c4.749,-4.749 11.865,-7.223 14.724,-4.364c2.858,2.858 0.217,10.142 -4.365,14.723Z" style="fill:none;stroke:#a39f9f;stroke-width:4.9px;"/></g></svg>
