<?xml version="1.0" encoding="UTF-8" standalone="no"?><!DOCTYPE svg PUBLIC "-//W3C//DTD SVG 1.1//EN" "http://www.w3.org/Graphics/SVG/1.1/DTD/svg11.dtd"><svg width="100%" height="100%" viewBox="0 0 137 124" version="1.1" xmlns="http://www.w3.org/2000/svg" xmlns:xlink="http://www.w3.org/1999/xlink" xml:space="preserve" xmlns:serif="http://www.serif.com/" style="fill-rule:evenodd;clip-rule:evenodd;stroke-linejoin:round;stroke-miterlimit:1.41421;"><g id="station"><g><path d="M60.302,100.95l0,-100.292l-59.391,0l59.391,100.292Zm-11.937,-44.659l-24.879,-42.013l24.879,0l0,42.013Z" style="fill:#d6d6d6;fill-rule:nonzero;"/><rect x="37.275" y="0.658" width="6.697" height="13.663" style="fill:#7c7c7c;"/></g><g><path d="M136.216,123.623l0,-68.291l-19.122,-19.122l-49.17,0l0,87.413l68.292,0Z" style="fill:#ececec;fill-rule:nonzero;"/><path d="M136.216,55.332l-19.122,-19.122l0,19.122l19.122,0Z" style="fill:#d6d6d6;fill-rule:nonzero;"/><path d="M82.265,63.527l39.61,0c0.377,0 0.683,-0.306 0.683,-0.683c0,-0.377 -0.306,-0.683 -0.683,-0.683l-39.61,0c-0.376,0 -0.682,0.306 -0.682,0.683c0,0.377 0.3,0.683 0.682,0.683Zm39.61,12.292l-39.61,0c-0.376,0 -0.682,0.306 -0.682,0.683c0,0.377 0.306,0.683 0.682,0.683l39.61,0c0.377,0 0.683,-0.306 0.683,-0.683c0,-0.377 -0.301,-0.683 -0.683,-0.683Zm0,13.659l-39.61,0c-0.376,0 -0.682,0.306 -0.682,0.683c0,0.377 0.306,0.683 0.682,0.683l39.61,0c0.377,0 0.683,-0.306 0.683,-0.683c0,-0.377 -0.301,-0.683 -0.683,-0.683Zm0,13.658l-39.61,0c-0.376,0 -0.682,0.306 -0.682,0.683c0,0.377 0.306,0.683 0.682,0.683l39.61,0c0.377,0 0.683,-0.306 0.683,-0.683c0,-0.377 -0.301,-0.683 -0.683,-0.683Z" style="fill:#bbb;fill-rule:nonzero;"/></g><g><path d="M39.759,91.394l72.681,-66.478c2.203,1.228 3.214,2.999 4.322,4.725l-71.905,66.19l-10.836,4.824l5.738,-9.261Z" style="fill:#7c7c7c;fill-rule:nonzero;"/><path d="M17.084,91.76l85.321,-77.326c1.68,1.459 3.249,3.067 4.57,4.936l-90.222,81.531c-1.033,0.784 -0.672,-8.232 0.329,-9.138l0.002,-0.003Z" style="fill:#7c7c7c;fill-rule:nonzero;"/><path d="M103.016,14.019c1.929,1.444 3.356,3.06 4.411,4.813c1.084,-1.124 1.565,-1.795 1.284,-2.175c-0.179,-0.38 -3.155,-3.925 -3.458,-3.904c-0.542,-0.205 -1.247,0.31 -2.237,1.266Z" style="fill:#7c7c7c;fill-rule:nonzero;"/><path d="M40.309,90.721c0.971,1.908 2.6,3.607 4.379,4.87l-1.614,0.726c-1.435,-1.041 -2.838,-2.52 -3.831,-4.066l1.066,-1.53Z" style="fill:#7c7c7c;fill-rule:nonzero;"/><path d="M34.625,75.748c0.712,2.452 2.119,4.209 4.476,5.016l-1.312,1.235c-1.98,-1.133 -3.618,-2.608 -4.167,-5.171l1.003,-1.08Z" style="fill:#7c7c7c;fill-rule:nonzero;"/><path d="M18.551,91.088l0.54,-5.248l24.619,-22.226l0.154,1.698l-19.448,17.827l0.386,2.161l-6.251,5.788Z" style="fill:#7c7c7c;fill-rule:nonzero;"/><path d="M113.039,24.409c1.929,1.444 3.356,3.06 4.411,4.813c1.084,-1.124 1.565,-1.795 1.285,-2.175c-0.179,-0.38 -3.156,-3.925 -3.458,-3.904c-0.543,-0.205 -1.247,0.31 -2.238,1.266Z" style="fill:#7c7c7c;fill-rule:nonzero;"/></g></g></svg>
