<?xml version="1.0" encoding="UTF-8" standalone="no"?><!DOCTYPE svg PUBLIC "-//W3C//DTD SVG 1.1//EN" "http://www.w3.org/Graphics/SVG/1.1/DTD/svg11.dtd"><svg width="100%" height="100%" viewBox="0 0 156 141" version="1.1" xmlns="http://www.w3.org/2000/svg" xmlns:xlink="http://www.w3.org/1999/xlink" xml:space="preserve" xmlns:serif="http://www.serif.com/" style="fill-rule:evenodd;clip-rule:evenodd;stroke-linejoin:round;stroke-miterlimit:1.41421;"><g id="station"><g><path d="M68.646,114.65l0,-114.294l-67.683,0l67.683,114.294Zm-13.604,-50.895l-28.352,-47.878l28.352,0l0,47.878Z" style="fill:#d6d6d6;fill-rule:nonzero;"/><rect x="42.405" y="0.356" width="7.633" height="15.57" style="fill:#7c7c7c;"/></g><g><path d="M155.159,140.489l0,-77.826l-21.791,-21.792l-56.035,0l0,99.618l77.826,0Z" style="fill:#ececec;fill-rule:nonzero;"/><path d="M155.159,62.663l-21.791,-21.792l0,21.792l21.791,0Z" style="fill:#d6d6d6;fill-rule:nonzero;"/><path d="M93.676,72.002l45.14,0c0.429,0 0.778,-0.349 0.778,-0.778c0,-0.43 -0.349,-0.779 -0.778,-0.779l-45.14,0c-0.429,0 -0.778,0.349 -0.778,0.779c0,0.429 0.343,0.778 0.778,0.778Zm45.14,14.009l-45.14,0c-0.429,0 -0.778,0.348 -0.778,0.778c0,0.43 0.349,0.778 0.778,0.778l45.14,0c0.429,0 0.778,-0.348 0.778,-0.778c0,-0.43 -0.342,-0.778 -0.778,-0.778Zm0,15.565l-45.14,0c-0.429,0 -0.778,0.349 -0.778,0.778c0,0.43 0.349,0.779 0.778,0.779l45.14,0c0.429,0 0.778,-0.349 0.778,-0.779c0,-0.429 -0.342,-0.778 -0.778,-0.778Zm0,15.565l-45.14,0c-0.429,0 -0.778,0.349 -0.778,0.779c0,0.429 0.349,0.778 0.778,0.778l45.14,0c0.429,0 0.778,-0.349 0.778,-0.778c0,-0.43 -0.342,-0.779 -0.778,-0.779Z" style="fill:#bbb;fill-rule:nonzero;"/></g><g><path d="M67.213,103.606l34.493,-82.922c2.293,0.168 3.81,1.242 5.39,2.242l-33.961,82.386l-7.1,8.157l1.178,-9.863Z" style="fill:#7c7c7c;fill-rule:nonzero;"/><path d="M48.612,112.635l40.765,-96.753c1.95,0.56 3.865,1.285 5.677,2.321l-43.198,102.116c-0.552,1.045 -3.724,-6.546 -3.245,-7.681l0.001,-0.003Z" style="fill:#7c7c7c;fill-rule:nonzero;"/><path d="M89.722,15.303c2.15,0.452 3.952,1.239 5.498,2.281c0.464,-1.346 0.603,-2.086 0.225,-2.292c-0.294,-0.245 -4.119,-2.029 -4.361,-1.896c-0.527,0.039 -0.911,0.736 -1.362,1.907Z" style="fill:#7c7c7c;fill-rule:nonzero;"/><path d="M67.409,102.838c1.537,1.203 3.538,1.981 5.494,2.34l-1.055,1.221c-1.587,-0.308 -3.316,-0.991 -4.731,-1.886l0.292,-1.675Z" style="fill:#7c7c7c;fill-rule:nonzero;"/><path d="M56.948,92.649c1.532,1.752 3.371,2.664 5.63,2.423l-0.609,1.526c-2.073,-0.174 -3.994,-0.763 -5.434,-2.67l0.413,-1.279Z" style="fill:#7c7c7c;fill-rule:nonzero;"/><path d="M49.566,111.515l-1.574,-4.546l11.796,-27.846l0.781,1.344l-9.215,22.22l1.151,1.638l-2.939,7.19Z" style="fill:#7c7c7c;fill-rule:nonzero;"/><path d="M102.006,20.034c2.15,0.451 3.951,1.238 5.498,2.281c0.464,-1.346 0.603,-2.086 0.225,-2.292c-0.295,-0.245 -4.119,-2.03 -4.361,-1.896c-0.527,0.039 -0.911,0.736 -1.362,1.907Z" style="fill:#7c7c7c;fill-rule:nonzero;"/></g></g></svg>
