<?xml version="1.0" encoding="UTF-8" standalone="no"?><!DOCTYPE svg PUBLIC "-//W3C//DTD SVG 1.1//EN" "http://www.w3.org/Graphics/SVG/1.1/DTD/svg11.dtd"><svg width="100%" height="100%" viewBox="0 0 100 100" version="1.1" xmlns="http://www.w3.org/2000/svg" xmlns:xlink="http://www.w3.org/1999/xlink" xml:space="preserve" style="fill-rule:evenodd;clip-rule:evenodd;stroke-linejoin:round;stroke-miterlimit:1.41421;"><g id="Xartika"><g id="paper"><rect x="43.625" y="18.149" width="42.045" height="63.068" style="fill:none;"/><clipPath id="_clip1"><rect x="43.625" y="18.149" width="42.045" height="63.068"/></clipPath><g clip-path="url(#_clip1)"><path d="M85.67,23.075c0,-0.041 -0.033,-0.074 -0.074,-0.074l-41.896,0c-0.041,0 -0.075,0.033 -0.075,0.074l0,0.148c0,0.041 0.034,0.075 0.075,0.075l41.896,0c0.041,0 0.074,-0.034 0.074,-0.075l0,-0.148Z" style="fill:#9a9a9a;"/><path d="M85.67,27.102c0,-0.041 -0.033,-0.074 -0.074,-0.074l-41.896,0c-0.041,0 -0.075,0.033 -0.075,0.074l0,0.148c0,0.041 0.034,0.074 0.075,0.074l41.896,0c0.041,0 0.074,-0.033 0.074,-0.074l0,-0.148Z" style="fill:#9a9a9a;"/><path d="M85.67,31.129c0,-0.041 -0.033,-0.074 -0.074,-0.074l-41.896,0c-0.041,0 -0.075,0.033 -0.075,0.074l0,0.148c0,0.041 0.034,0.074 0.075,0.074l41.896,0c0.041,0 0.074,-0.033 0.074,-0.074l0,-0.148Z" style="fill:#9a9a9a;"/><path d="M85.67,35.156c0,-0.041 -0.033,-0.075 -0.074,-0.075l-41.896,0c-0.041,0 -0.075,0.034 -0.075,0.075l0,0.148c0,0.041 0.034,0.074 0.075,0.074l41.896,0c0.041,0 0.074,-0.033 0.074,-0.074l0,-0.148Z" style="fill:#9a9a9a;"/><path d="M85.67,39.182c0,-0.041 -0.033,-0.074 -0.074,-0.074l-41.896,0c-0.041,0 -0.075,0.033 -0.075,0.074l0,0.149c0,0.041 0.034,0.074 0.075,0.074l41.896,0c0.041,0 0.074,-0.033 0.074,-0.074l0,-0.149Z" style="fill:#9a9a9a;"/><path d="M85.67,43.209c0,-0.041 -0.033,-0.074 -0.074,-0.074l-41.896,0c-0.041,0 -0.075,0.033 -0.075,0.074l0,0.149c0,0.041 0.034,0.074 0.075,0.074l41.896,0c0.041,0 0.074,-0.033 0.074,-0.074l0,-0.149Z" style="fill:#9a9a9a;"/><path d="M85.67,47.236c0,-0.041 -0.033,-0.074 -0.074,-0.074l-41.896,0c-0.041,0 -0.075,0.033 -0.075,0.074l0,0.148c0,0.041 0.034,0.075 0.075,0.075l41.896,0c0.041,0 0.074,-0.034 0.074,-0.075l0,-0.148Z" style="fill:#9a9a9a;"/><path d="M85.67,51.263c0,-0.041 -0.033,-0.074 -0.074,-0.074l-41.896,0c-0.041,0 -0.075,0.033 -0.075,0.074l0,0.148c0,0.041 0.034,0.074 0.075,0.074l41.896,0c0.041,0 0.074,-0.033 0.074,-0.074l0,-0.148Z" style="fill:#9a9a9a;"/><path d="M85.67,55.29c0,-0.041 -0.033,-0.075 -0.074,-0.075l-41.896,0c-0.041,0 -0.075,0.034 -0.075,0.075l0,0.148c0,0.041 0.034,0.074 0.075,0.074l41.896,0c0.041,0 0.074,-0.033 0.074,-0.074l0,-0.148Z" style="fill:#9a9a9a;"/><path d="M85.67,59.316c0,-0.04 -0.033,-0.074 -0.074,-0.074l-41.896,0c-0.041,0 -0.075,0.034 -0.075,0.074l0,0.149c0,0.041 0.034,0.074 0.075,0.074l41.896,0c0.041,0 0.074,-0.033 0.074,-0.074l0,-0.149Z" style="fill:#9a9a9a;"/><path d="M85.67,63.343c0,-0.041 -0.033,-0.074 -0.074,-0.074l-41.896,0c-0.041,0 -0.075,0.033 -0.075,0.074l0,0.149c0,0.041 0.034,0.074 0.075,0.074l41.896,0c0.041,0 0.074,-0.033 0.074,-0.074l0,-0.149Z" style="fill:#9a9a9a;"/><path d="M85.67,67.37c0,-0.041 -0.033,-0.074 -0.074,-0.074l-41.896,0c-0.041,0 -0.075,0.033 -0.075,0.074l0,0.149c0,0.04 0.034,0.074 0.075,0.074l41.896,0c0.041,0 0.074,-0.034 0.074,-0.074l0,-0.149Z" style="fill:#9a9a9a;"/><path d="M85.67,71.397c0,-0.041 -0.033,-0.074 -0.074,-0.074l-41.896,0c-0.041,0 -0.075,0.033 -0.075,0.074l0,0.148c0,0.041 0.034,0.075 0.075,0.075l41.896,0c0.041,0 0.074,-0.034 0.074,-0.075l0,-0.148Z" style="fill:#9a9a9a;"/><path d="M85.67,75.424c0,-0.041 -0.033,-0.074 -0.074,-0.074l-41.896,0c-0.041,0 -0.075,0.033 -0.075,0.074l0,0.148c0,0.041 0.034,0.074 0.075,0.074l41.896,0c0.041,0 0.074,-0.033 0.074,-0.074l0,-0.148Z" style="fill:#9a9a9a;"/></g></g><g id="pencil"><path d="M15.704,77.469l1.245,0.678l1.58,0.3l-2.597,2.929l-0.228,-3.907Z" style="fill:#4c4343;"/><path d="M19.699,74.482l17.462,-50.413c0.152,-0.266 0.31,-0.345 0.449,-0.297l0.618,0.214l0.17,0.511l-17.643,50.932l-0.019,-0.012c0.041,-0.039 0.018,-0.13 -0.063,-0.215c-0.08,-0.086 -0.194,-0.139 -0.264,-0.132c0.032,-0.043 -0.006,-0.134 -0.099,-0.213c-0.093,-0.08 -0.212,-0.123 -0.278,-0.109c0.024,-0.047 -0.03,-0.136 -0.133,-0.208l-0.2,-0.058Z" style="fill:#4c4343;"/><path d="M17.949,73.668l17.576,-50.74l0.331,-0.159l0.492,0.171l0.161,0.329l-17.575,50.74l-0.261,-0.027c-0.006,-0.055 -0.097,-0.13 -0.221,-0.173c-0.125,-0.043 -0.243,-0.041 -0.282,-0.001l-0.221,-0.14Z" style="fill:#4c4343;"/><path d="M15.639,73.657l17.61,-50.837c0.152,-0.266 0.31,-0.345 0.449,-0.297l0.618,0.214l0.17,0.511l-17.43,50.318l-0.193,-0.078c-0.126,-0.007 -0.223,0.029 -0.234,0.082c-0.043,-0.053 -0.163,-0.092 -0.286,-0.087c-0.122,0.005 -0.208,0.052 -0.209,0.107c-0.051,-0.05 -0.173,-0.078 -0.29,-0.061c-0.116,0.017 -0.19,0.074 -0.182,0.13l-0.023,-0.002Z" style="fill:#4c4343;"/><path d="M34.512,19.173c0.196,-0.565 0.928,-0.825 1.634,-0.581l2.558,0.886c0.706,0.245 1.12,0.902 0.924,1.467l-0.724,2.091c-0.032,0.093 -0.079,0.177 -0.137,0.252c-0.661,-0.319 -1.374,-0.614 -2.127,-0.874c-0.995,-0.345 -1.973,-0.6 -2.896,-0.767c-0.013,-0.128 0.001,-0.258 0.044,-0.383l0.724,-2.091Z" style="fill:#4c4343;"/></g></g></svg>
